<?xml version="1.0" standalone="no"?><!DOCTYPE svg PUBLIC "-//W3C//DTD SVG 1.1//EN" "http://www.w3.org/Graphics/SVG/1.1/DTD/svg11.dtd" ><svg xmlns="http://www.w3.org/2000/svg"><metadata></metadata><defs><font id="DengXian Regular" horiz-adv-x="2048"><font-face font-family="DengXian" font-weight="400" font-stretch="normal" units-per-em="2048" panose-1="2 1 6 0 3 1 1 1 1 1" ascent="1659" descent="-475" x-height="1" bbox="-23 -475 2025 1636" underline-thickness="102" underline-position="-365" unicode-range="U+0020-ff1a" /><missing-glyph horiz-adv-x="2048"  /><glyph glyph-name="" unicode="&#x3001;" d="M276 166 l64 86 q240 -170 408 -379 l-89 -104 q-114 182 -383 397 Z" /><glyph glyph-name="" unicode="&#x300c;" d="M1868 1618 l0 -113 l-504 0 l0 -1845 l-110 0 l0 1958 l614 0 Z" /><glyph glyph-name="" unicode="&#x300d;" d="M180 -340 l0 113 l504 0 l0 1845 l110 0 l0 -1958 l-614 0 Z" /><glyph glyph-name="" unicode="&#x4e00;" d="M121 596 l0 143 q115 -12 205 -12 l1390 0 q94 0 195 12 l0 -143 q-99 12 -199 12 l-1384 0 q-133 2 -207 -12 Z" /><glyph glyph-name="" unicode="&#x4e03;" d="M936 1331 l0 -536 l709 161 q114 23 227 72 l26 -145 q-110 -6 -217 -35 l-745 -174 l0 -674 q-2 -76 22 -90 q19 -21 115 -29 q116 -9 239 -9 q123 0 253 9 q153 13 141 285 q57 -66 143 -92 q-57 -266 -239 -297 q-54 -17 -236 -21 q-55 -1 -116 -1 q-137 0 -216 7 q-153 17 -186 60 q-41 37 -39 180 l0 649 l-450 -108 q-123 -29 -207 -68 l-39 152 q84 2 196 28 l500 109 l0 565 q2 115 -12 207 l158 -20 q18 -3 18 -11 q2 -6 -16 -22 q-21 -19 -25 -45 q-4 -23 -4 -107 Z" /><glyph glyph-name="" unicode="&#x4e0d;" d="M1104 1339 l-770 0 q-80 -2 -184 -16 l0 135 q90 -14 184 -16 l1417 0 q96 2 188 16 l0 -135 q-92 14 -188 16 l-477 0 q-80 -151 -176 -301 l0 -1124 q0 -72 16 -197 l-147 0 q14 113 16 195 l0 963 q-278 -390 -750 -648 q-67 78 -147 127 q619 189 1018 985 ZM1839 252 q-287 311 -602 569 l102 109 q318 -283 605 -567 l-105 -111 Z" /><glyph glyph-name="" unicode="&#x4e0e;" d="M1438 365 l0 -127 q-97 12 -185 12 l-913 0 q-74 0 -172 -12 l0 127 q98 -13 172 -13 l913 0 q86 0 185 13 ZM561 1581 l160 -25 q20 -2 20 -10 q2 -8 -16 -28 q-29 -23 -31 -111 l-8 -137 l1014 0 q74 0 172 12 l0 -127 q-98 14 -172 12 l-1026 0 l-29 -381 l938 0 q80 -2 180 13 q-10 -82 -18 -205 q-2 -16 -2 -25 q-23 -301 -43 -460 q-23 -209 -146 -283 q-116 -82 -462 -117 q-11 82 -70 178 q98 -9 168 -9 q152 0 231 36 q121 47 148 209 q30 194 43 561 l-918 0 q-82 0 -209 -12 q31 123 39 223 l37 475 q4 48 4 101 q0 53 -4 110 Z" /><glyph glyph-name="" unicode="&#x4e24;" d="M1335 1040 l269 0 q77 -2 168 13 q-15 -80 -13 -174 l0 -947 q2 -12 2 -20 q0 -150 -397 -184 q-27 102 -78 172 q122 -13 197 -13 q69 0 98 11 q68 16 64 114 l0 922 l-316 0 q-10 -109 -35 -260 q148 -162 308 -357 l-111 -96 q-76 133 -229 314 q-64 -222 -199 -441 q-59 39 -139 70 q243 239 290 770 l-344 0 q-12 -102 -20 -170 q121 -123 231 -256 l-112 -92 q-54 90 -154 207 q-76 -238 -235 -441 q-62 49 -127 86 q264 230 295 666 l-310 0 l0 -1028 q-2 -74 13 -160 l-140 0 q15 70 13 160 l0 977 q0 80 -13 170 q84 -15 172 -13 l275 0 q5 101 5 205 q0 60 -1 94 l-455 0 q-59 2 -153 -12 l0 131 q79 -14 147 -12 l1487 0 q49 -2 137 12 l0 -131 q-90 12 -143 12 l-443 0 q0 -110 0 -163 q-2 -64 -4 -136 ZM872 1040 l345 0 q6 80 6 144 q1 30 1 68 q0 39 -1 87 l-334 0 q-6 -141 -17 -299 Z" /><glyph glyph-name="" unicode="&#x4e2a;" d="M59 686 q672 229 908 905 l149 -69 q19 -11 19 -17 q0 -6 -23 -20 q-18 -12 -37 -45 q398 -522 912 -695 q-80 -55 -144 -124 q-534 303 -831 708 q-256 -448 -799 -766 q-55 60 -154 123 ZM1104 723 l0 -872 q0 -72 12 -183 l-147 0 q12 111 12 183 l0 909 q0 67 -12 172 l164 -21 q24 -2 26 -12 q2 -10 -18 -27 q-37 -34 -37 -149 Z" /><glyph glyph-name="" unicode="&#x4e2d;" d="M1085 1415 l0 -227 l545 0 q66 -2 146 12 q-15 -72 -13 -139 l0 -615 q-2 -65 13 -126 l-140 0 q15 61 13 108 l-564 0 l0 -561 q-2 -86 13 -164 l-144 0 q15 74 13 160 l0 565 l-557 0 q-2 -70 12 -141 l-139 0 q14 73 12 149 l0 629 q2 59 -12 135 q86 -14 147 -12 l537 0 l0 233 q2 82 -13 172 l156 -20 q23 -2 25 -10 q2 -4 -19 -23 q-35 -20 -31 -125 ZM967 1081 l-557 0 l0 -546 l557 0 l0 546 ZM1085 1081 l0 -546 l564 0 l0 546 l-564 0 Z" /><glyph glyph-name="" unicode="&#x4e3b;" d="M279 -80 l708 0 l0 557 l-448 0 q-62 2 -138 -12 l0 127 q76 -14 131 -12 l455 0 l0 464 l-616 0 q-60 3 -129 -12 l0 127 q73 -14 127 -12 l1343 0 q45 -2 123 12 l0 -127 q-76 15 -125 12 l-604 0 l0 -464 l440 0 q58 -2 140 12 l0 -127 q-84 14 -142 12 l-438 0 l0 -557 l698 0 q49 -2 129 8 l0 -123 q-75 15 -129 13 l-1521 0 q-58 2 -131 -13 l0 123 q75 -10 127 -8 ZM823 1473 l99 96 q161 -144 307 -303 l-99 -99 q-157 181 -307 306 Z" /><glyph glyph-name="" unicode="&#x4e58;" d="M86 -90 q414 121 850 620 q35 43 41 70 q8 23 8 84 l0 356 l-629 0 q-84 0 -198 -12 l0 127 q108 -12 198 -12 l629 0 l0 213 q-309 -17 -555 -25 q-22 68 -76 150 q117 -17 293 -19 q178 -2 377 13 q412 30 602 96 l92 -131 q15 -21 13 -27 q-3 -2 -7 -2 q-5 0 -20 4 q-9 3 -27 3 q-22 0 -73 -5 q-316 -33 -504 -47 l0 -223 l639 0 q96 0 188 12 l0 -127 q-102 12 -188 12 l-639 0 l0 -356 q-6 -94 43 -145 q393 -465 846 -557 q-84 -68 -138 -138 q-360 138 -751 566 l0 -504 q0 -92 12 -203 l-139 0 q12 111 12 203 l0 493 q-352 -379 -768 -616 q-55 72 -131 127 ZM272 707 l0 127 q88 -13 170 -13 l222 0 q0 80 -13 178 l158 -20 q25 -2 25 -8 q2 -6 -19 -25 q-37 -33 -37 -125 l0 -293 q0 -79 13 -147 l-140 0 q13 49 13 106 q-211 -49 -381 -108 l-68 139 q72 -6 449 66 l0 135 l-222 0 q-80 0 -170 -12 ZM1708 915 l78 -120 q4 -7 4 -11 q0 -3 -2 -6 q-4 -4 -16 -2 q-8 3 -18 3 q-18 0 -46 -9 q-129 -41 -297 -88 l0 -94 q-1 -8 -1 -19 q0 -61 60 -59 q28 -2 69 -2 q79 0 149 12 q55 -4 81 162 q48 -55 111 -86 q-61 -193 -174 -193 q-20 -4 -117 -6 q-67 -1 -110 -1 q-44 0 -64 1 q-80 9 -98 33 q-23 23 -21 102 l0 248 q0 86 -12 199 l158 -21 q22 -2 22 -10 q2 -8 -20 -24 q-35 -21 -33 -144 l0 -10 q162 64 297 145 Z" /><glyph glyph-name="" unicode="&#x4e60;" d="M356 131 l-98 158 q662 137 1184 401 q-7 -56 -7 -113 q0 -26 1 -45 q-785 -274 -1080 -401 ZM1214 -209 q-24 84 -81 174 q152 -21 234 -21 q27 0 52 3 q86 8 131 63 q5 -17 10 -17 q41 0 78 1307 l-1146 0 q-80 0 -177 -12 l0 131 q99 -12 177 -12 l1087 0 q90 0 197 12 q-13 -112 -17 -200 q-40 -1289 -76 -1289 q-3 0 -6 9 q-47 -142 -463 -148 ZM637 1104 q231 -141 450 -295 l-75 -123 q-170 148 -441 303 l66 115 Z" /><glyph glyph-name="" unicode="&#x4e86;" d="M1497 1325 l-1059 0 q-65 2 -174 -12 l0 131 q96 -14 170 -12 l1161 0 q86 -2 185 12 q-359 -414 -678 -594 l0 -854 q6 -164 -68 -207 q-63 -49 -334 -65 q-2 63 -65 180 q135 -29 214 -29 q42 0 66 8 q72 21 68 131 l0 899 q315 170 514 412 Z" /><glyph glyph-name="" unicode="&#x4e8c;" d="M147 -18 l0 131 q93 -15 152 -13 l1436 0 q65 -2 166 13 l0 -131 q-107 12 -172 12 l-1426 0 q-53 0 -156 -12 ZM317 1165 l0 131 q93 -12 154 -12 l1104 0 q65 -2 160 12 l0 -131 q-101 13 -162 13 l-1090 0 q-67 0 -166 -13 Z" /><glyph glyph-name="" unicode="&#x4e8e;" d="M121 659 l0 127 q108 -12 186 -12 l692 0 l0 580 l-516 0 q-73 0 -178 -13 l0 127 q111 -12 178 -12 l1110 0 q74 0 179 12 l0 -127 q-97 13 -179 13 l-471 0 l0 -580 l615 0 q90 0 188 12 l0 -127 q-100 13 -188 13 l-615 0 l0 -723 q4 -144 -61 -180 q-57 -45 -301 -62 q-12 86 -60 170 q117 -20 183 -20 q42 0 61 8 q57 12 55 100 l0 707 l-692 0 q-82 0 -186 -13 Z" /><glyph glyph-name="" unicode="&#x4f18;" d="M31 668 q327 364 471 913 l153 -70 q21 -8 19 -18 q0 -8 -23 -18 q-45 -17 -69 -84 q-37 -95 -97 -236 l0 -1274 q0 -73 13 -192 l-140 0 q13 123 13 192 l0 1032 q-97 -178 -195 -325 q-59 47 -145 80 ZM1061 924 l-346 0 q-68 0 -158 -13 l0 127 q96 -12 158 -12 l346 0 l0 408 q2 75 -12 172 l157 -21 q23 -2 25 -10 q2 -8 -17 -25 q-40 -30 -38 -143 l0 -381 l544 0 q78 0 164 12 l0 -127 q-88 13 -164 13 l-544 0 q16 -711 -496 -1182 q-70 55 -152 90 q537 358 533 1092 ZM1378 600 l0 -614 q-2 -12 -2 -22 q0 -85 135 -81 q19 -1 54 -1 q86 0 157 14 q80 12 99 51 q24 39 24 170 q72 -45 146 -68 q-41 -276 -244 -272 q-113 -15 -277 -13 q-129 3 -165 39 q-43 35 -41 144 l0 659 q2 70 -13 172 l158 -18 q23 -2 25 -10.5 q2 -8.5 -17 -24.5 q-37 -35 -39 -125 ZM1339 1413 l93 94 q157 -135 297 -286 l-97 -99 q-127 160 -293 291 Z" /><glyph glyph-name="" unicode="&#x4f7f;" d="M1006 436 q49 -131 153 -239 q64 125 74 305 l-272 0 q-70 -2 -195 -13 q10 115 12 189 l0 129 q-2 70 -12 194 q131 -10 203 -12 l268 0 l0 211 l-426 0 q-59 -2 -158 -12 l0 127 q109 -12 158 -12 l426 0 l0 94 q-2 69 -12 190 l157 -20 q21 -2 21 -8 q2 -7 -17 -25 q-34 -33 -34 -133 l0 -98 l417 0 q58 2 173 12 l0 -127 q-107 10 -173 12 l-417 0 l0 -211 l284 0 q68 2 191 12 q-10 -120 -12 -184 l0 -151 q2 -60 12 -177 q-129 11 -189 13 l-286 0 q-15 -193 -101 -387 q314 -230 719 -254 q-78 -70 -112 -152 q-398 115 -670 314 q-189 -193 -479 -330 q-45 80 -123 129 q340 74 510 285 q-117 124 -203 284 q76 25 113 45 ZM1237 887 l-348 0 l0 -283 l348 0 l0 283 ZM1352 887 l0 -283 l348 0 l0 283 l-348 0 ZM49 666 q338 340 467 911 l162 -64 q20 -8 18 -14 q-2 -6 -26 -20 q-37 -19 -64 -95 q-43 -114 -92 -231 l0 -1264 q2 -69 12 -190 l-135 0 q12 133 12 190 l0 1031 q-110 -197 -182 -316 q-61 31 -172 62 Z" /><glyph glyph-name="" unicode="&#x5019;" d="M39 752 q291 249 463 852 l151 -64 q17 -6 15 -16 q0 -13 -19 -21 q-31 -12 -59 -88 q-64 -151 -113 -258 l0 -1266 q2 -79 12 -182 l-139 0 q10 99 12 182 l0 1049 q-83 -152 -167 -270 q-72 51 -156 82 ZM719 -172 q416 94 538 469 l-278 0 q-70 -2 -162 -12 l0 127 q92 -11 162 -13 l299 0 q22 166 25 320 l-222 0 q-67 -154 -137 -262 q-61 32 -153 65 q190 168 239 477 l146 -43 q16 -4 18 -16 q0 -10 -14 -20 q-41 -27 -64 -99 l529 0 q67 2 153 13 l0 -127 q-86 10 -153 12 l-209 0 q-13 -166 -29 -320 l350 0 q76 2 156 13 l0 -127 q-82 10 -156 12 l-325 0 q196 -369 563 -475 q-99 -66 -137 -133 q-363 221 -506 514 q-119 -324 -502 -504 q-45 70 -131 129 ZM805 1008 l0 127 q96 -11 168 -13 l500 0 l73 256 l-403 0 q-66 -2 -158 -12 l0 127 q94 -10 158 -12 l391 0 q80 2 170 12 l-111 -371 l183 0 q79 2 159 13 l0 -127 q-80 10 -159 12 l-801 0 q-78 -2 -170 -12 ZM758 102 l-140 0 q11 97 13 174 l0 568 q-2 88 -13 194 l156 -20 q11 -4 11 -12 q0 -11 -17 -29 q-25 -10 -23 -145 l0 -556 q3 -73 13 -174 Z" /><glyph glyph-name="" unicode="&#x5148;" d="M104 -182 q670 116 664 778 l-401 0 q-76 0 -181 -12 l0 131 q107 -13 181 -13 l608 0 l0 361 l-428 0 q-55 -113 -139 -252 q-89 29 -168 39 q225 221 323 627 l148 -45 q32 -11 34 -19 q5 -8 -22 -22 q-47 -23 -68 -70 q-49 -111 -67 -152 l387 0 l0 215 q0 84 -12 211 l149 -24 q33 -4 35 -10 q4 -7 -19 -27 q-38 -18 -34 -150 l0 -215 l403 0 q86 0 180 13 l0 -131 q-98 12 -180 12 l-403 0 l0 -361 l600 0 q88 0 180 13 l0 -131 q-90 12 -180 12 l-410 0 l0 -596 q-8 -129 111 -123 q105 -3 149 -3 q77 0 105 5 q136 19 136 171 q0 26 -5 61 q73 -47 153 -76 q-43 -252 -260 -273 q-64 -6 -141 -6 q-77 0 -168 6 q-119 9 -158 48 q-43 38 -41 141 l0 645 l-268 0 q-6 -676 -655 -899 q-56 61 -138 121 Z" /><glyph glyph-name="" unicode="&#x516b;" d="M37 -104 q567 462 700 1472 l166 -45 q13 -4 13 -12 q0 -13 -31 -35 q-23 -16 -33 -59 q-160 -883 -670 -1418 q-59 54 -145 97 ZM1825 -201 q-617 688 -711 1680 l129 10 q86 -1002 735 -1595 q-75 -33 -153 -95 Z" /><glyph glyph-name="" unicode="&#x5173;" d="M150 -156 q628 152 759 629 l-567 0 q-111 0 -166 -12 l0 127 q64 -10 166 -12 l586 0 q14 151 16 391 l-518 0 q-104 0 -166 -13 l0 127 q62 -12 166 -12 l647 0 q234 272 336 504 l125 -90 q31 -23 29 -37 q-2 -14 -39 -19 q-35 -4 -62 -38 q-116 -158 -252 -320 l408 0 q88 0 166 12 l0 -127 q-80 13 -166 13 l-557 0 q-2 -103 -12 -330 q-2 -41 -2 -61 l661 0 q104 0 164 12 l0 -127 q-66 12 -164 12 l-586 0 q230 -465 822 -602 q-66 -74 -109 -145 q-641 274 -815 710 q-111 -456 -758 -729 q-49 88 -112 137 ZM403 1434 l74 102 q234 -147 404 -281 l-80 -98 q-160 139 -398 277 Z" /><glyph glyph-name="" unicode="&#x5185;" d="M1784 1204 q-12 -88 -12 -176 l0 -1026 q6 -180 -72 -227 q-66 -56 -348 -76 q-23 92 -64 180 q114 -8 181 -8 q95 0 124 14 q62 15 56 125 l0 1071 l-564 0 q-10 -127 -24 -243 q248 -279 465 -559 l-137 -109 q-140 231 -367 512 q-117 -358 -412 -573 q-59 55 -141 114 q453 185 492 858 l-560 0 l0 -1173 q0 -82 13 -187 l-144 0 q13 87 13 187 l0 1122 q0 86 -13 174 q99 -12 189 -12 l504 0 q0 162 -2 231 q-5 76 -13 146 l166 -15 q39 -2 39 -14 q2 -10 -29 -39 q-39 -31 -37 -117 q0 -100 0 -192 l504 0 q90 0 193 12 Z" /><glyph glyph-name="" unicode="&#x5206;" d="M57 672 q467 262 643 852 l138 -54 q30 -10 28 -18 q2 -8 -28 -27 q-43 -20 -78 -104 q-211 -457 -570 -741 q-59 55 -133 92 ZM215 -172 q565 190 571 887 l-135 0 q-78 0 -170 -13 l0 127 q86 -12 170 -12 l670 0 q113 0 209 12 q-14 -100 -17 -190 l-18 -377 q-10 -323 -86 -395 q-63 -88 -338 -103 q-27 78 -74 158 q75 -7 140 -7 q133 0 168 36 q65 39 69 280 l21 484 l-477 0 q-23 -717 -580 -1004 q-51 62 -123 117 ZM1253 1587 q154 -579 713 -874 q-70 -35 -147 -103 q-482 348 -695 959 l129 18 Z" /><glyph glyph-name="" unicode="&#x5207;" d="M1200 1235 l-143 0 q-60 0 -162 -12 l0 127 q94 -13 156 -13 l669 0 q74 0 172 13 q-18 -181 -18 -277 q0 -422 -25 -1009 q-6 -164 -84 -224 q-71 -61 -290 -78 q-15 82 -70 160 q81 -9 133 -9 q87 0 123 21 q65 33 68 170 q20 457 20 1131 l-426 0 q2 -668 -127 -942 q-115 -291 -528 -567 q-43 73 -136 122 q402 166 543 469 q129 257 129 748 q0 71 -4 170 ZM551 1403 l0 -332 l178 14 q102 9 180 25 l6 -127 q-54 5 -103 5 q-33 0 -83 -3 l-178 -14 l0 -719 q252 123 395 227 q-9 -49 -9 -94 q0 -25 3 -51 q-61 -43 -213 -123 q-127 -70 -254 -164 l-88 131 q53 55 51 156 l0 627 l-200 -17 q-50 -4 -134 -22 q-14 -2 -22 -4 l-12 129 q41 -2 78 -2 q50 0 85 4 l205 14 l0 334 q0 73 -12 178 l156 -21 q28 -2 30 -12 q2 -8 -20 -29 q-39 -36 -39 -110 Z" /><glyph glyph-name="" unicode="&#x5217;" d="M1034 1348 l-360 0 q-29 -136 -76 -304 l340 0 q70 -2 158 13 q-23 -1047 -858 -1379 q-48 76 -121 132 q475 135 665 485 q-149 151 -315 276 l92 103 q131 -105 289 -254 q90 164 119 522 l-408 0 q-143 -305 -364 -506 q-68 60 -132 99 q379 208 478 813 l-242 0 q-74 2 -162 -13 l0 127 q86 -14 158 -12 l735 0 q109 -2 174 12 l0 -127 q-61 15 -170 13 ZM1454 211 l-139 0 q14 82 12 172 l0 770 q2 80 -12 197 l149 -21 q21 -4 23 -14 q-2 -12 -23 -22 q-22 -11 -22 -122 l0 -786 q-2 -88 12 -174 ZM1456 -293 q-18 105 -61 176 q112 -17 176 -17 q42 0 63 7 q60 12 56 86 l0 1444 q0 86 -13 194 l168 -20 q15 -2 17 -12 q0 -13 -15 -23 q-41 -26 -39 -121 l0 -1501 q2 -117 -71 -158 q-74 -47 -281 -55 Z" /><glyph glyph-name="" unicode="&#x521a;" d="M215 1442 q111 -12 186 -12 l553 0 q76 -3 183 12 q-13 -113 -13 -191 l0 -1312 q2 -113 -61 -154 q-59 -41 -260 -57 q-10 71 -53 159 q93 -12 149 -12 q45 0 64 8 q49 15 47 94 l0 1350 l-668 0 l0 -1423 q0 -74 12 -176 l-139 0 q12 100 12 176 l0 1345 q0 72 -12 193 ZM383 260 q152 168 258 399 q-113 199 -246 390 l105 67 q28 -49 100 -168 q62 -102 96 -160 q56 142 97 349 l139 -62 q20 -8 20 -20.5 q0 -12.5 -22 -24.5 q-43 -26 -62 -78 q-49 -155 -104 -288 q84 -148 209 -404 l-127 -57 q-60 178 -137 332 q-76 -156 -181 -332 q-63 39 -145 57 ZM1485 242 l-139 0 q12 104 12 172 l0 698 q0 78 -12 195 l149 -21 q21 -4 25 -14 q4 -10 -13 -27 q-34 -41 -34 -114 l0 -715 q0 -78 12 -174 ZM1487 -268 q-8 78 -53 162 q86 -11 147 -11 q48 0 85.5 12.5 q37.5 12.5 35.5 86.5 l0 1380 q0 86 -12 194 l153 -20 q25 -4 27 -14 q4 -13 -17 -31 q-36 -37 -36 -113 l0 -1431 q4 -113 -62 -152 q-63 -43 -268 -63 Z" /><glyph glyph-name="" unicode="&#x5230;" d="M606 8 l0 361 l-217 0 q-59 0 -162 -13 l0 127 q97 -12 156 -12 l223 0 l0 105 q2 69 -12 180 l147 -21 q27 -2 29 -12 q4 -10 -16 -31 q-31 -30 -33 -112 l0 -109 l197 0 q61 -2 174 12 l0 -127 q-111 15 -168 13 l-203 0 l0 -346 q252 18 446 67 q-22 -53 -37 -137 q-722 -72 -958 -137 l-61 166 q288 -5 495 26 ZM367 885 q362 12 594 37 q-89 108 -195 213 l100 79 q185 -196 336 -403 l-110 -96 q-35 63 -66 112 q-362 -30 -546.5 -53.5 q-184.5 -23.5 -262.5 -42.5 l-53 152 q90 12 137 80 q158 215 252 401 l-225 0 q-68 0 -174 -12 l0 127 q118 -13 174 -13 l641 0 q71 -2 174 13 l0 -127 q-99 12 -168 12 l-338 0 l63 -37 q23 -14 23 -22 q-2 -11 -29 -19 q-39 -10 -73 -59 q-125 -180 -254 -342 ZM1448 266 l-139 0 q12 105 12 172 l0 697 q0 71 -12 194 l147 -20 q25 -2 27 -13 q2 -8 -17 -30 q-30 -33 -30 -115 l0 -713 q0 -59 12 -172 ZM1493 -285 q-18 72 -70 162 q84 -9 137 -9 q54 0 76 9 q50 14 47 90 l0 1426 q0 71 -12 194 l150 -20 q24 -2 26 -12.5 q2 -10.5 -16 -32.5 q-31 -41 -33 -113 l0 -1487 q2 -117 -61 -158 q-56 -40 -244 -49 Z" /><glyph glyph-name="" unicode="&#x5236;" d="M416 1231 l266 0 l0 147 q2 101 -12 195 l157 -21 q23 -2 23 -12 q0 -10 -23 -29 q-32 -20 -30 -114 l0 -166 l293 0 q49 -2 129 12 l0 -123 q-82 15 -127 13 l-295 0 l0 -261 l333 0 q58 -2 127 13 l0 -123 q-69 14 -124 12 l-336 0 l0 -217 l272 0 q59 -2 135 12 q-14 -69 -12 -131 l0 -370 q2 -91 -45 -119 q-43 -33 -197 -49 q-10 73 -63 151 q54 -10 93 -10 q104 0 101 72 l0 346 l-284 0 l0 -602 q-2 -68 12 -140 l-139 0 q14 76 12 138 l0 604 l-272 0 l0 -463 q-2 -64 12 -129 l-135 0 q14 65 12 129 l0 444 q2 56 -12 129 q78 -14 145 -12 l250 0 l0 217 l-403 0 q-50 2 -129 -12 l0 123 q69 -15 124 -13 l408 0 l0 261 l-317 0 q-43 -80 -84 -152 q-72 29 -148 47 q176 182 268 510 l146 -55 q22 -8 20 -17 q0 -6 -26 -20 q-41 -27 -60 -66 q-32 -73 -65 -149 ZM1511 268 l-139 0 q14 72 12 156 l0 678 q2 94 -12 194 l160 -20 q22 -4 22 -12 q2 -11 -20 -23 q-35 -24 -35 -123 l0 -698 q-2 -86 12 -152 ZM1505 -291 q-10 96 -61 158 q73 -3 113 -3 q94 0 124 11 q50 12 45 82 l0 1403 q3 94 -12 192 l158 -20 q24 -2 24 -11.5 q0 -9.5 -24 -29.5 q-31 -25 -31 -115 l0 -1454 q4 -110 -63 -149 q-64 -43 -273 -64 Z" /><glyph glyph-name="" unicode="&#x524d;" d="M557 1509 l92 95 q154 -125 277 -252 l-88 -88 l354 0 q117 147 201 354 l155 -78 q25 -12 23 -22 q0 -11 -27 -17 q-61 -14 -96 -67 q-59 -86 -119 -170 l436 0 q70 0 174 12 l0 -127 q-96 12 -174 12 l-1482 0 q-72 0 -162 -12 l0 127 q94 -12 162 -12 l532 0 q-117 133 -258 245 ZM313 983 q101 -12 168 -12 l344 0 q70 0 164 12 q-12 -106 -12 -178 l0 -885 q2 -108 -53 -145 q-54 -43 -226 -60 q-12 78 -67 160 q104 -13 152 -13 q29 0 44 5 q41 10 39 76 l0 305 l-430 0 l0 -369 q0 -65 13 -174 l-136 0 q13 107 13 172 l0 928 q0 63 -13 178 ZM436 553 l0 -207 l430 0 l0 207 l-430 0 ZM436 872 l0 -221 l430 0 l0 221 l-430 0 ZM1366 125 l-139 0 q12 102 12 172 l0 352 q0 82 -12 187 l153 -21 q25 -2 25 -12 q2 -6 -16 -29 q-37 -39 -35 -115 l0 -360 q0 -78 12 -174 ZM1364 -322 q-6 80 -55 162 q104 -14 163 -14 q44 0 68 8 q57 12 55 88 l0 928 q0 84 -12 194 l156 -20 q26 -2 28 -12 q2 -8 -18 -29 q-37 -41 -39 -117 l0 -972 q4 -130 -57 -160 q-51 -39 -289 -56 Z" /><glyph glyph-name="" unicode="&#x526a;" d="M705 1579 q88 -70 225 -199 l-64 -63 l293 0 q92 92 201 272 l119 -67 q22 -13 18 -21 q-2 -8 -29 -16 q-30 -12 -59 -41 q-41 -51 -113 -127 l469 0 q76 -2 140 12 l0 -123 q-78 15 -138 13 l-1448 0 q-83 2 -155 -13 l0 123 q63 -14 151 -12 l508 0 q-96 96 -213 188 l95 74 ZM827 215 l-354 0 q-100 0 -158 -12 l0 123 q52 -15 154 -13 l1069 0 q100 -2 174 13 q-14 -121 -22 -244 q-11 -221 -103 -287 q-86 -76 -375 -92 q-8 82 -59 150 q88 -11 155 -11 q214 0 242 107 q25 74 31 266 l-629 0 q-57 -389 -690 -532 q-18 61 -98 135 q563 10 663 397 ZM1065 1120 q-14 -71 -12 -139 l0 -430 q2 -13 2 -24 q0 -137 -264 -144 q-17 78 -52 121 q66 -9 109 -9 q113 0 102 56 l0 57 l-463 0 l0 -65 q0 -64 13 -146 l-127 0 q14 80 12 148 l0 438 q2 55 -12 137 q71 -14 145 -12 l410 0 q63 -2 137 12 ZM950 698 l0 109 l-463 0 l0 -109 l463 0 ZM487 1018 l0 -121 l463 0 l0 121 l-463 0 ZM1382 600 l-127 0 q15 72 13 129 l0 154 q2 94 -13 188 l150 -20 q18 -4 18 -14.5 q0 -10.5 -18 -24.5 q-35 -29 -35 -115 l0 -170 q-2 -61 12 -127 ZM1427 393 q-16 80 -55 142 q93 -11 143 -11 q37 0 52 6 q41 11 37 89 l0 348 q2 96 -13 190 l142 -20 q20 -4 22 -13 q-2 -10 -22 -20 q-27 -10 -27 -119 l0 -399 q2 -103 -51 -137 q-51 -39 -228 -56 Z" /><glyph glyph-name="" unicode="&#x529f;" d="M121 109 q139 18 375 92 l0 942 l-185 0 q-100 0 -161 -12 l0 126 q53 -12 155 -12 l422 0 q107 0 174 12 l0 -126 q-63 10 -168 12 l-123 0 l0 -910 q168 56 326 136 q-18 -80 -14 -162 q-35 -10 -105 -33 q-414 -133 -627 -213 q-18 66 -69 148 ZM1018 1069 l184 12 q0 43 -2 328 q0 76 -10 162 l180 -17 q23 -2 21 -14 q-2 -12 -27 -31 q-39 -32 -37 -151 q0 -8 -6 -275 l371 19 q43 2 184 22 q-6 -82 -8 -170 q-2 -47 -4 -75 q-6 -129 -17 -463 q-8 -266 -14 -396 q-4 -169 -86 -223 q-78 -59 -328 -71 q-4 88 -47 170 q81 -9 142 -9 q77 0 114 15 q76 24 80 112 q14 242 31 754 q6 158 8 229 l-428 -20 q4 -57 4 -126 q0 -726 -616 -1160 q-52 49 -150 102 q223 103 410 336 q230 273 230 767 q0 43 -1 73 l-152 -8 q-4 0 -10 -3 q-41 -2 -157 -20 l-9 139 q98 -9 134 -9 q11 0 16 1 Z" /><glyph glyph-name="" unicode="&#x52a0;" d="M1235 1292 q98 -12 162 -12 l321 0 q68 -2 160 12 q-14 -102 -12 -194 l0 -1086 q-2 -75 12 -170 l-139 0 q12 92 12 166 l0 51 l-389 0 l0 -75 q-2 -72 12 -170 l-139 0 q12 96 12 166 l0 1118 q2 82 -12 194 ZM1751 158 l0 1024 l-389 0 l0 -1024 l389 0 ZM285 1155 l223 0 q0 313 -8 424 l159 -18 q31 -2 29 -17 q0 -10 -31 -39 q-24 -20 -24 -106 q0 -82 0 -129 q-2 -56 -4 -115 l231 0 q88 -2 170 12 q-16 -73 -45 -1046 q-4 -174 -63 -225 q-54 -60 -248 -82 q-17 90 -70 161 q63 -11 112 -11 q61 0 91 18 q55 30 59 145 q25 432 33 930 l-272 0 q2 -907 -361 -1344 q-49 25 -168 58 q408 303 408 1286 l-217 0 q-51 2 -139 -13 l0 123 q81 -14 135 -12 Z" /><glyph glyph-name="" unicode="&#x52c7;" d="M178 -186 q522 45 699 370 l-502 -12 q-78 -2 -164 -20 l-8 137 q100 -13 182 -13 l526 9 q23 65 27 147 l133 -35 q33 -8 35 -18 q2 -10 -27 -27 q-22 -12 -39 -63 l621 8 q76 0 166 16 q-15 -82 -21 -143 q-10 -125 -39 -250 q-10 -180 -456 -209 q-11 78 -56 160 q90 -9 161 -9 q215 0 235 85 q24 82 37 250 l-684 -9 q-115 -333 -723 -512 q-33 76 -103 138 ZM1278 1139 l29 -17 l299 0 q80 0 174 13 q-13 -101 -13 -174 l0 -439 q0 -55 13 -133 l-140 0 q13 82 13 133 l0 56 l-516 0 l0 -21 q0 -55 12 -125 l-139 0 q12 74 12 125 l0 21 l-483 0 l0 -48 q0 -57 12 -149 l-139 0 q12 88 12 149 l0 426 q0 66 -12 179 q98 -13 180 -13 l473 0 q-107 52 -260 105 l65 102 q170 -67 297 -131 q123 74 230 156 l-955 0 q-61 0 -161 -13 l0 127 q98 -12 161 -12 l1082 0 q90 0 207 12 q-189 -163 -453 -329 ZM1022 797 l-483 0 l0 -121 l483 0 l0 121 ZM539 1024 l0 -129 l483 0 l0 129 l-483 0 ZM1137 797 l0 -121 l516 0 l0 121 l-516 0 ZM1653 1024 l-516 0 l0 -129 l516 0 l0 129 Z" /><glyph glyph-name="" unicode="&#x5316;" d="M76 651 q348 287 600 940 l151 -78 q21 -10 19 -16 q0 -6 -23 -16 q-45 -19 -90 -111 q-61 -127 -133 -254 l0 -1218 q2 -82 12 -193 l-139 0 q12 117 12 193 l0 1028 q-118 -189 -266 -373 q-63 55 -143 98 ZM1237 1360 l0 -723 q330 295 506 588 l125 -109 q20 -16 18 -23.5 q-2 -7.5 -28 -15.5 q-39 0 -113 -88 q-277 -315 -508 -514 l0 -461 q-4 -92 41 -108 q43 -25 215 -25 q172 0 229 25 q60 20 76 96 q14 64 25 180 q49 -45 147 -65 q-4 -19 -10 -43 q-10 -43 -18 -76 q-50 -231 -289 -229 q-84 -3 -148 -3 q-108 0 -211 7 q-170 16 -176 184 l0 430 q-137 -98 -303 -207 q-63 86 -121 129 q164 37 424 230 l0 827 q0 64 -12 195 l158 -21 q22 -2 22 -10 q2 -4 -16 -23 q-35 -28 -33 -147 Z" /><glyph glyph-name="" unicode="&#x533a;" d="M240 1450 q104 -12 180 -12 l1177 0 q72 0 175 12 l0 -127 q-99 12 -177 12 l-1228 0 l0 -1427 l1333 0 q84 0 182 12 l0 -127 q-96 12 -182 12 l-1266 0 q-80 0 -194 -12 q12 94 12 158 l0 1317 q0 71 -12 182 ZM426 96 q348 172 633 512 q-262 269 -522 475 l92 93 q258 -220 508 -461 q176 239 284 555 l135 -72 q25 -12 23 -24.5 q-2 -12.5 -31 -26.5 q-35 -19 -78 -109 q-110 -221 -245 -415 q239 -238 450 -488 l-112 -119 q-179 267 -416 502 q-246 -291 -596 -530 q-51 61 -125 108 Z" /><glyph glyph-name="" unicode="&#x5341;" d="M1075 1370 l0 -559 l647 0 q58 2 199 16 l0 -139 q-154 17 -199 17 l-647 0 l0 -830 q2 -76 17 -190 l-148 0 q14 114 17 190 l0 830 l-701 0 q-78 -3 -176 -17 l0 139 q117 -14 176 -16 l701 0 l0 569 q-5 78 -17 197 l162 -21 q20 -4 20 -10 q2 -6 -16 -20 q-37 -21 -35 -156 Z" /><glyph glyph-name="" unicode="&#x5355;" d="M264 246 l715 0 l0 207 l-406 0 q-69 0 -174 -13 q13 109 13 174 l0 451 q0 63 -13 184 q109 -12 179 -12 l579 0 q129 168 238 381 l135 -72 q20 -10 16 -21.5 q-4 -11.5 -35 -23.5 q-32 -12 -57 -47 q-70 -96 -164 -217 l205 0 q72 0 188 12 q-12 -114 -12 -184 l0 -459 q0 -61 12 -166 q-98 15 -176 13 l-409 0 l0 -207 l659 0 q58 0 160 12 l0 -127 q-96 12 -160 12 l-659 0 l0 -301 q0 -75 12 -190 l-143 0 q12 123 12 190 l0 301 l-715 0 q-63 2 -164 -12 l0 127 q105 -12 164 -12 ZM526 797 l0 -242 l453 0 l0 242 l-453 0 ZM526 1135 l0 -240 l453 0 l0 240 l-453 0 ZM1098 797 l0 -242 l454 0 l0 242 l-454 0 ZM1552 1135 l-454 0 l0 -240 l454 0 l0 240 ZM528 1505 l84 95 q179 -130 310 -240 l-88 -100 q-117 118 -306 245 Z" /><glyph glyph-name="" unicode="&#x535a;" d="M70 848 l0 127 q80 -10 153 -12 l113 0 l0 413 q-2 88 -12 183 l159 -21 q19 -2 17 -12 q0 -13 -19 -29 q-30 -31 -30 -137 l0 -397 l61 0 q66 0 150 12 l0 -127 q-87 12 -148 12 l-63 0 l0 -985 q2 -88 12 -184 l-139 0 q12 100 12 184 l0 985 l-113 0 q-57 0 -153 -12 ZM590 156 l0 127 q88 -13 162 -13 l776 0 q-2 76 -12 138 l133 -21 q12 66 12 121 l-371 0 q0 -47 13 -125 l-140 0 q13 72 13 125 l-336 0 q2 -76 12 -160 l-139 0 q12 98 12 158 l0 446 q0 72 -12 172 q90 -12 170 -12 l293 0 l0 133 l-398 0 q-71 0 -170 -12 l0 127 q92 -10 170 -12 l398 0 l0 43 q-2 84 -13 182 l156 -21 q18 -2 18 -14 q0 -10 -18 -27 q-27 -30 -29 -131 l0 -32 l316 0 q-76 59 -199 131 l86 104 q115 -72 205 -137 l-56 -98 l89 0 q73 0 161 12 l0 -127 q-84 12 -161 12 l-441 0 l0 -133 l340 0 q74 0 164 12 q-10 -86 -12 -161 l0 -443 q0 -65 12 -151 l-115 0 q2 -21 -26 -31 q-13 -8 -11 -68 l160 0 q72 0 158 13 l0 -127 q-84 10 -158 12 l-160 0 l0 -240 q7 -157 -49 -188 q-41 -41 -274 -59 q-21 83 -66 163 q117 -19 176 -19 q29 0 48 5 q55 12 51 90 l0 248 l-776 0 q-74 0 -162 -12 ZM840 754 l0 -144 l336 0 l0 144 l-336 0 ZM1176 1010 l-336 0 l0 -154 l336 0 l0 154 ZM1290 1010 l0 -154 l377 0 l0 154 l-377 0 ZM1290 754 l0 -144 l377 0 l0 144 l-377 0 ZM1186 -74 l-96 -90 q-97 115 -226 223 l86 88 q119 -104 236 -221 Z" /><glyph glyph-name="" unicode="&#x53cc;" d="M76 -90 q289 162 510 598 q-170 250 -344 416 l106 82 q189 -215 295 -371 q109 264 125 631 l-426 0 q-117 0 -162 -13 l0 127 q53 -12 156 -12 l430 0 q96 0 147 12 q-4 -30 -12 -86 q-4 -39 -6 -57 q-55 -463 -168 -717 q150 -180 260 -354 l-106 -94 q-107 194 -215 323 q-156 -301 -451 -573 q-43 49 -139 88 ZM668 -156 q383 140 649 500 q-187 387 -264 916 q-17 -3 -68 -9 q-14 -2 -22 -2 l0 133 q73 -14 157 -14 l545 0 q84 0 158 10 q-8 -51 -45 -227 q-6 -25 -9 -37 q-83 -371 -301 -780 q181 -289 512 -479 q-73 -33 -137 -109 q-258 203 -452 475 q-228 -272 -574 -483 q-76 63 -149 106 ZM1184 1266 q47 -406 215 -795 q196 352 266 795 l-481 0 Z" /><glyph glyph-name="" unicode="&#x53d1;" d="M803 965 l-350 0 q-101 0 -203 -35 l-72 114 q66 29 98 78 q113 174 177 383 l147 -57 q21 -8 18 -16 q0 -7 -26 -19 q-41 -18 -70 -78 q-57 -127 -133 -268 l442 0 q55 239 55 423 q0 43 -3 83 l164 -25 q38 -4 34 -12 q2 -6 -43 -45 q-28 -18 -37 -107 q-28 -206 -49 -317 l768 0 q86 0 162 12 l0 -127 q-80 13 -162 13 l-792 0 q-33 -115 -82 -252 l592 0 q92 0 178 12 q-143 -350 -369 -588 q342 -227 701 -243 q-64 -68 -111 -156 q-354 86 -684 319 q-334 -235 -709 -350 q-41 70 -110 135 q440 70 729 297 q-148 150 -260 340 l125 68 q39 -166 225 -330 q178 160 279 397 l-631 0 q-189 -397 -563 -686 q-64 52 -146 92 q524 259 711 945 ZM1247 1456 l82 88 q178 -153 338 -305 l-82 -90 q-145 151 -338 307 Z" /><glyph glyph-name="" unicode="&#x540e;" d="M78 -115 q303 254 303 914 l0 475 q-2 74 -12 170 q135 -15 326 -15 q193 0 417 15 q457 33 614 96 l97 -145 q14 -23 10 -31 q-2 -3 -9 -3 q-8 0 -20 3 q-33 9 -83 9 q-42 0 -107 -7 q-454 -49 -923 -49 q-97 0 -191 2 l0 -322 l1290 0 q78 2 166 13 l0 -131 q-96 10 -166 12 l-1290 0 l0 -107 q14 -571 -260 -966 q-62 43 -162 67 ZM678 592 q108 -10 184 -12 l684 0 q78 2 176 12 q-10 -88 -12 -164 l0 -506 q2 -71 12 -174 l-143 0 q10 82 12 148 l-782 0 q2 -74 12 -158 l-143 0 q10 94 12 180 l0 496 q-2 78 -12 178 ZM809 -2 l782 0 l0 475 l-782 0 l0 -475 Z" /><glyph glyph-name="" unicode="&#x548c;" d="M121 201 q239 207 475 667 l-289 0 q-74 -2 -160 -12 l0 127 q86 -10 160 -12 l314 0 l0 373 q-121 -21 -357 -52 q-16 66 -61 140 q62 -2 92 -2 q403 0 694 120 l76 -129 q5 -8 5 -12 q0 -3 -3 -6 q-4 -4 -23 -2 q-15 3 -29 3 q-19 0 -48 -5 q-31 -4 -101 -17 q-96 -14 -131 -20 l0 -391 l213 0 q88 2 168 12 l0 -127 q-84 10 -166 12 l-215 0 l0 -94 q203 -141 350 -276 l-88 -113 q-123 139 -262 250 l0 -752 q2 -69 13 -176 l-140 0 q10 98 13 176 l0 787 q-179 -289 -357 -535 q-45 39 -143 66 ZM1169 1317 q109 -10 179 -12 l342 0 q79 2 176 12 q-11 -90 -13 -170 l0 -1051 q2 -76 13 -174 l-140 0 q11 82 13 150 l-447 0 q2 -74 13 -160 l-136 0 q11 92 13 170 l0 1067 q-2 74 -13 168 ZM1296 1202 l0 -1028 l443 0 l0 1028 l-443 0 Z" /><glyph glyph-name="" unicode="&#x5668;" d="M74 508 q56 -2 84 -2 q467 0 716 199 l-532 0 q-129 0 -211 -15 l0 125 q80 -12 211 -12 l588 0 q21 89 21 156 q0 32 -5 61 l148 -37 q16 -4 16 -12 q0 -6 -16 -19 q-17 -16 -25 -39 q-8 -34 -29 -110 l437 0 q-129 90 -197 110 l66 99 q84 -43 225 -131 l-58 -78 l142 0 q129 0 217 12 l0 -125 q-92 15 -219 15 l-479 0 q438 -218 813 -207 q-70 -80 -70 -152 q-117 19 -199 41 l0 -438 q-2 -84 13 -174 l-136 0 q15 53 13 110 l-391 0 q-3 -65 12 -123 l-135 0 q14 95 12 158 l0 359 q2 59 -12 135 q69 -15 133 -13 l436 0 q-360 93 -659 281 q-152 -203 -609 -276 l375 0 q55 -3 145 12 q-14 -66 -12 -135 l0 -355 q-2 -71 12 -159 l-135 0 q15 59 13 116 l-367 0 q-2 -65 12 -131 l-135 0 q14 76 12 166 l0 475 q-82 -14 -180 -20 q-12 51 -61 133 ZM426 307 l0 -327 l367 0 l0 327 l-367 0 ZM1217 303 l0 -323 l391 0 l0 323 l-391 0 ZM319 1520 q78 -15 138 -13 l323 0 q68 -2 144 13 q-15 -74 -13 -144 l0 -225 q-2 -61 13 -143 q-86 14 -146 12 l-319 0 q-58 2 -140 -12 q15 61 13 127 l0 258 q2 53 -13 127 ZM442 1409 l0 -291 l359 0 l0 291 l-359 0 ZM1128 1520 q82 -15 132 -13 l344 0 q51 -2 131 13 q-15 -72 -13 -142 l0 -237 q-2 -58 13 -133 q-78 14 -140 12 l-333 0 q-58 2 -134 -12 q15 61 13 123 l0 258 q2 61 -13 131 ZM1251 1409 l0 -291 l361 0 l0 291 l-361 0 Z" /><glyph glyph-name="" unicode="&#x56de;" d="M645 1053 q119 -13 184 -13 l355 0 q65 2 198 13 q-12 -109 -12 -174 l0 -344 q0 -66 12 -185 q-116 13 -196 13 l-348 0 q-72 0 -193 -13 q10 103 12 176 l0 346 q-2 74 -12 181 ZM768 938 l0 -473 l492 0 l0 473 l-492 0 ZM399 -229 l-139 0 q10 110 12 184 l0 1307 q0 59 -12 188 q125 -12 203 -12 l1110 0 q80 2 205 12 q-6 -78 -9 -195 l0 -1249 q0 -108 9 -198 l-140 0 q9 65 13 135 l-1264 0 q2 -66 12 -172 ZM387 45 l1264 0 l0 1290 l-1264 0 l0 -1290 Z" /><glyph glyph-name="" unicode="&#x5730;" d="M379 225 l0 705 l-131 0 q-58 0 -146 -12 l0 126 q97 -14 146 -12 l131 0 l0 346 q0 72 -12 187 l139 -21 q31 -4 33 -12 q2 -6 -23 -33 q-24 -22 -22 -119 l0 -348 l112 0 q56 0 137 12 l0 -126 q-88 12 -137 12 l-112 0 l0 -666 q168 56 309 117 q-12 -68 -12 -129 q-289 -86 -652 -248 l-71 127 q145 31 311 94 ZM907 883 l0 403 q0 82 -12 201 l152 -21 q28 -4 30 -12 q2 -10 -20 -29 q-33 -32 -35 -100 l0 -414 l246 58 l0 438 q0 86 -13 199 l154 -21 q29 -4 31 -14 q2 -8 -23 -35 q-35 -39 -35 -141 l0 -402 l250 64 q62 14 156 51 q-2 -51 -4 -158 q-8 -354 -19 -499 q2 -238 -254 -242 q-14 67 -57 137 q49 -15 88 -15 q113 0 113 138 q12 154 12 340 q0 54 -2 149 l-283 -65 l0 -623 q0 -55 13 -176 l-140 0 q13 107 13 176 l0 594 l-246 -65 l0 -791 q-12 -160 223 -151 l285 0 q178 -2 233 51 q62 47 64 205 q53 -43 135 -86 q-43 -162 -127 -215 q-84 -60 -279 -58 l-362 0 q-297 -8 -287 219 l0 803 l-71 -20 q-58 -15 -154 -54 l-25 136 q82 2 150 20 l100 25 Z" /><glyph glyph-name="" unicode="&#x57fa;" d="M70 115 q342 80 563 395 l-338 0 q-66 -2 -166 -12 l0 127 q100 -11 166 -13 l256 0 l0 625 l-152 0 q-77 -2 -168 -12 l0 127 q107 -11 168 -13 l152 0 l0 62 q-2 80 -12 192 l149 -20 q23 -2 25 -9.5 q2 -7.5 -15 -23.5 q-34 -33 -32 -156 l0 -45 l690 0 l0 72 q0 62 -13 195 l150 -23 q25 -2 25 -10 q2 -6 -17 -25 q-31 -30 -31 -153 l0 -56 l146 0 q55 0 164 13 l0 -127 q-115 12 -164 12 l-146 0 l0 -625 l263 0 q47 0 163 13 l0 -127 q-104 12 -163 12 l-303 0 q196 -268 546 -338 q-69 -51 -116 -135 q-422 211 -568 473 l-516 0 q-235 -338 -583 -522 q-50 78 -123 127 ZM1356 872 l0 136 l-690 0 l0 -136 l690 0 ZM666 1237 l0 -131 l690 0 l0 131 l-690 0 ZM666 774 l0 -162 l690 0 l0 162 l-690 0 ZM512 -152 l469 0 l0 238 l-285 0 q-59 0 -168 -12 l0 127 q101 -11 168 -13 l285 0 l0 68 q0 70 -12 193 l147 -21 q23 -2 25 -8 q2 -6 -13 -23 q-34 -28 -32 -157 l0 -52 l280 0 q62 2 164 13 l0 -127 q-102 10 -164 12 l-280 0 l0 -238 l491 0 q64 3 166 13 l0 -127 q-108 12 -166 12 l-1075 0 q-57 -2 -168 -12 l0 127 q100 -13 168 -13 Z" /><glyph glyph-name="" unicode="&#x5904;" d="M502 1544 l174 -41 q18 -4 18 -14 q-2 -8 -22 -23 q-25 -14 -45 -77 q-6 -19 -17 -58 q-30 -108 -45 -151 l297 0 q39 0 162 10 q-80 -645 -258 -961 q135 -178 467 -249 q182 -37 383 -37 q176 0 358 28 q-45 -75 -65 -168 q-991 -6 -1209 320 q-168 -242 -442 -422 q-41 66 -127 113 q289 94 487 411 q-145 250 -217 512 q64 6 131 37 q17 -205 154 -426 q154 340 193 729 l-347 0 q-124 -338 -288 -590 q-78 27 -156 37 q367 426 414 1020 ZM1348 96 l-140 0 q13 115 13 183 l0 1099 q0 70 -13 209 l162 -24 q21 -2 23 -15 q4 -12 -13 -22 q-43 -31 -45 -148 l0 -321 q279 -152 590 -395 l-74 -127 q-227 206 -516 383 l0 -639 q0 -66 13 -183 Z" /><glyph glyph-name="" unicode="&#x590d;" d="M98 1049 q320 198 477 575 l142 -63 q24 -11 24 -19 q-2 -8 -26 -16 q-45 -15 -68 -51 q-16 -29 -41 -64 l1039 0 q63 -2 163 12 l0 -127 q-96 13 -163 13 l-1100 0 q-142 -185 -320 -357 q-49 58 -127 97 ZM119 -174 q504 0 854 184 q-133 101 -268 248 l114 68 q94 -133 254 -244 q141 102 268 250 l-682 0 q-116 -127 -266 -254 q-55 55 -145 90 q282 129 438 412 l-35 0 q-67 0 -157 -13 q12 99 12 176 l0 271 q0 71 -12 176 q104 -12 174 -12 l792 0 q64 -2 176 12 q-12 -100 -12 -176 l0 -273 q0 -67 10 -174 q-104 15 -170 13 l-727 0 l101 -48 q20 -10 16 -16 q0 -8 -25 -16 q-49 -17 -81 -66 l649 0 q67 0 192 12 q-182 -239 -411 -432 q323 -168 772 -157 q-82 -64 -109 -156 q-479 72 -762 231 q-313 -161 -876 -251 q-21 71 -84 145 ZM621 838 l0 -160 l888 0 l0 160 l-888 0 ZM621 1079 l0 -143 l888 0 l0 143 l-888 0 Z" /><glyph glyph-name="" unicode="&#x5927;" d="M106 -203 q717 359 799 1075 l-563 0 q-68 -2 -166 -12 l0 127 q107 -10 166 -12 l571 0 l0 393 q0 66 -12 193 l154 -21 q24 -4 24 -10 q2 -6 -16 -25 q-31 -43 -35 -153 l0 -377 l608 0 q62 0 187 12 l0 -127 q-117 10 -187 12 l-583 0 q231 -747 891 -1028 q-74 -34 -148 -127 q-594 408 -803 938 q-119 -518 -735 -956 q-65 49 -152 98 Z" /><glyph glyph-name="" unicode="&#x5929;" d="M922 772 l-568 0 q-69 0 -172 -12 l0 127 q107 -12 172 -12 l584 0 q27 231 25 473 l-457 0 q-66 0 -168 -13 l0 127 q98 -12 168 -12 l1038 0 q76 0 164 12 l0 -127 q-88 13 -164 13 l-452 0 q-7 -295 -25 -473 l610 0 q70 0 164 12 l0 -127 q-88 12 -164 12 l-559 0 q213 -700 834 -870 q-82 -58 -146 -140 q-612 340 -778 910 q-143 -592 -782 -912 q-56 66 -137 129 q665 191 813 883 Z" /><glyph glyph-name="" unicode="&#x5b66;" d="M991 457 q160 104 269 205 l-592 0 q-113 0 -164 -13 l0 127 q49 -12 164 -12 l704 0 q123 0 203 12 q-45 -47 -164 -139 q-25 -21 -80 -64 q-147 -116 -213 -170 l0 -47 l641 0 q109 0 168 13 l0 -127 q-69 12 -164 12 l-645 0 l0 -375 q2 -104 -65 -141 q-62 -39 -275 -64 q-12 82 -67 162 q106 -17 170 -17 q41 0 65 7 q62 14 58 94 l0 334 l-711 0 q-111 0 -164 -12 l0 127 q59 -13 164 -13 l704 0 q0 64 -6 101 ZM1384 1067 l306 0 q116 0 170 12 q-13 -63 -13 -161 l0 -62 q0 -106 13 -154 l-140 0 q13 56 13 156 l0 107 l-1393 0 l0 -121 q0 -113 12 -170 l-139 0 q12 74 12 170 l0 74 q0 106 -12 161 q66 -12 174 -12 l868 0 q238 365 281 518 l150 -76 q30 -16 28 -20 q2 -4 -35 -12 q-53 -19 -86 -72 q-71 -131 -209 -338 ZM354 1442 l95 90 q188 -176 317 -322 l-102 -92 q-134 174 -310 324 ZM934 1606 q145 -193 256 -377 l-121 -78 q-80 180 -242 381 l107 74 Z" /><glyph glyph-name="" unicode="&#x5b83;" d="M1473 813 l135 -125 q9 -8 9 -13 q0 -2 -2.5 -5.5 q-2.5 -3.5 -23.5 -3.5 q-55 0 -139 -37 q-334 -144 -762 -242 l0 -323 q-12 -166 131 -164 q109 -12 229 -12 q180 0 402 26 q154 -8 170 283 q68 -50 145 -80 q-73 -283 -225 -307 q-110 -27 -323 -33 q-74 -2 -113 -2 q-164 0 -356 14 q-170 21 -175 203 l0 801 q0 106 -12 163 l166 -24 q19 -4 21 -10 q0 -9 -17 -17 q-39 -33 -43 -139 l0 -277 q565 144 783 324 ZM899 1610 q105 -74 270 -250 l-75 -84 l577 0 q105 0 168 12 q-12 -59 -12 -160 l0 -57 q0 -102 12 -160 l-139 0 q12 62 12 160 l0 103 l-1384 0 l0 -117 q0 -103 12 -160 l-139 0 q12 64 12 160 l0 65 q0 95 -12 166 q53 -12 166 -12 l708 0 q-119 129 -264 244 l88 90 Z" /><glyph glyph-name="" unicode="&#x5ba2;" d="M795 1260 l-488 0 l0 -76 q0 -80 12 -178 l-135 0 q13 98 13 178 l0 22 q0 80 -13 168 q105 -12 183 -12 l698 0 q-94 80 -248 166 l70 104 q147 -86 284 -192 l-61 -78 l547 0 q82 0 180 12 q-12 -98 -12 -162 l0 -16 q0 -68 12 -178 l-135 0 q12 98 12 178 l0 64 l-891 0 l111 -48 q31 -12 29 -18 q2 -6 -29 -16 q-31 -7 -76 -66 q-6 -6 -14 -18 q-13 -19 -21 -27 l537 0 q104 0 211 12 q-170 -204 -422 -420 q393 -219 809 -245 q-55 -68 -88 -148 q-481 111 -823 320 q-234 -144 -431 -236 q52 -10 113 -10 l641 0 q86 0 186 8 q-8 -92 -6 -176 l0 -291 q0 -88 13 -174 l-140 0 q13 72 13 103 l-813 0 q-2 -56 12 -129 l-139 0 q12 110 12 180 l0 299 q0 67 -12 141 q-127 -51 -299 -106 q-43 79 -99 137 q428 53 834 323 q-127 86 -213 174 l90 91 q115 -125 231 -193 q123 90 271 238 l-572 0 q-178 -197 -366 -349 q-54 56 -127 95 q387 215 549 549 ZM623 238 l0 -326 l813 0 l0 326 l-813 0 Z" /><glyph glyph-name="" unicode="&#x5bb9;" d="M1552 211 l0 -326 q0 -84 13 -192 l-140 0 q13 67 13 133 l-789 0 q0 -82 13 -154 l-142 0 q15 109 15 203 l0 324 q0 57 -11 170 q-2 6 -2 10 q62 -12 129 -12 l733 0 q72 0 181 12 q-13 -115 -13 -168 ZM649 -76 l789 0 l0 340 l-789 0 l0 -340 ZM367 932 l-140 0 q0 6 2 18 q11 80 11 131 l0 95 q0 71 -13 159 q111 -12 191 -12 l688 0 q-121 92 -240 174 q41 47 66 98 q72 -45 270 -182 q-37 -53 -55 -90 l475 0 q98 0 193 12 q-13 -69 -13 -172 l0 -69 q0 -54 13 -142 l-144 0 q12 70 12 138 l0 131 l-1329 0 l0 -140 q0 -49 13 -149 ZM350 801 q223 100 389 368 l140 -90 q9 -6 9 -11 q0 -2 -1 -3 q-2 -8 -17 -12 q-53 -11 -84 -43 q-159 -170 -311 -293 q-69 53 -125 84 ZM1169 1063 l86 90 q242 -172 414 -330 l-92 -90 q-178 182 -408 330 ZM997 977 l146 -64 q26 -12 26 -18 q0 -8 -30 -18 q-33 -11 -60 -39 q377 -346 914 -418 q-76 -66 -101 -146 q-581 181 -882 488 q-355 -365 -834 -533 q-43 76 -106 127 q589 107 927 621 Z" /><glyph glyph-name="" unicode="&#x5bf9;" d="M82 -45 q295 156 493 541 q-225 340 -335 467 l100 77 q139 -188 295 -413 q98 239 129 573 l-406 0 q-61 0 -165 -12 l0 131 q108 -14 165 -12 l361 0 q74 0 188 12 q-55 -473 -188 -807 q147 -227 287 -465 l-121 -74 q-62 164 -230 408 q-159 -270 -424 -514 q-57 41 -149 88 ZM1106 1077 l442 0 l0 252 q2 123 -12 234 l166 -23 q10 -2 10 -10 q0 -8 -10 -17 q-33 -32 -35 -159 l0 -277 l129 0 q64 -2 164 13 l0 -132 q-107 13 -164 13 l-129 0 l0 -1020 q4 -133 -63 -172 q-62 -45 -275 -53 q-12 86 -47 159 q98 -13 160 -13 q39 0 57 5 q53 12 49 80 l0 1014 l-442 0 q-64 2 -168 -13 l0 132 q88 -15 168 -13 ZM1032 723 l115 61 q88 -145 239 -430 l-124 -67 q-82 196 -230 436 Z" /><glyph glyph-name="" unicode="&#x5c0f;" d="M90 129 q246 211 361 930 l178 -58 q18 -6 16 -12 q0 -8 -20 -20 q-60 -35 -86 -156 q-105 -436 -287 -739 q-80 35 -162 55 ZM788 -307 q-22 108 -67 170 q98 -16 155 -16 q39 0 60 8 q53 14 51 96 l0 1423 q-2 72 -12 191 l160 -23 q20 -4 22 -10 q2 -6 -14 -21 q-37 -28 -37 -129 l0 -1503 q4 -94 -55 -125 q-54 -35 -263 -61 ZM1419 967 l127 63 q226 -436 381 -862 l-127 -64 q-143 467 -381 863 Z" /><glyph glyph-name="" unicode="&#x5de7;" d="M115 186 q149 9 356 50 l0 1024 l-174 0 q-68 0 -162 -13 l0 127 q105 -12 162 -12 l371 0 q75 0 161 12 l0 -127 q-94 13 -161 13 l-82 0 l0 -998 q141 27 305 84 q-14 -76 -10 -139 q-502 -100 -705 -174 l-61 153 ZM1780 1313 l-545 0 l-43 -535 l467 0 q80 -2 180 13 q-2 -15 -4 -41 q-14 -121 -18 -197 q-19 -311 -43 -520 q-17 -189 -132 -240 q-106 -61 -468 -74 q4 82 -44 162 q124 -12 218 -12 q119 0 180 20 q112 31 125 152 q33 270 51 635 l-498 0 q-69 0 -153 -10 q20 112 24 180 l39 467 l-59 0 q-70 0 -160 -13 l0 127 q88 -12 156 -12 l727 0 q69 0 162 12 l0 -127 q-87 13 -162 13 Z" /><glyph glyph-name="" unicode="&#x5dee;" d="M135 129 q467 113 696 455 l-479 0 q-69 -2 -159 -13 l0 123 q86 -10 161 -12 l527 0 q37 86 65 193 l-354 0 q-74 -3 -160 -13 l0 123 q80 -10 160 -12 l375 0 q16 92 26 190 l-536 0 q-76 -2 -162 -12 l0 123 q94 -10 162 -12 l745 0 q123 141 193 311 l139 -64 q14 -8 14 -17 q0 -12 -26 -28 q-52 -24 -105 -100 q-49 -70 -74 -102 l314 0 q76 2 155 12 l0 -123 q-81 10 -155 12 l-545 0 q-10 -100 -27 -190 l420 0 q68 2 156 12 l0 -123 q-82 10 -156 13 l-438 0 q-29 -109 -61 -193 l743 0 q74 2 156 12 l0 -123 q-78 11 -156 13 l-780 0 q-88 -138 -189 -238 l756 0 q74 2 156 12 l0 -122 q-78 10 -156 12 l-334 0 l0 -365 l529 0 q75 2 155 13 l0 -123 q-82 10 -155 12 l-1151 0 q-80 -2 -166 -12 l0 123 q94 -11 166 -13 l512 0 l0 365 l-414 0 q-199 -139 -422 -244 q-47 68 -121 125 ZM819 1264 q-119 112 -241 209 l81 86 q125 -105 244 -209 l-84 -86 Z" /><glyph glyph-name="" unicode="&#x5e38;" d="M1354 1233 l340 0 q71 0 151 12 q-12 -74 -12 -141 l0 -27 q0 -82 12 -172 l-135 0 q12 88 12 172 l0 54 l-1407 0 l0 -80 q0 -72 13 -164 l-135 0 q12 94 12 164 l0 51 q0 59 -12 143 q88 -12 155 -12 l617 0 l0 166 q0 41 -11 174 q-2 27 -2 37 l168 -25 q21 -2 21 -10 q0 -6 -19 -23 q-45 -34 -43 -153 l0 -166 l142 0 q149 180 211 332 l165 -76 q17 -8 13 -14 q-2 -5 -27 -13 q-55 -16 -96 -65 q-72 -92 -133 -164 ZM375 412 q69 -11 166 -11 l436 0 q0 84 -12 172 l-254 0 q-76 0 -170 -12 q12 98 12 166 l0 107 q0 81 -12 170 q94 -13 168 -13 l622 0 q80 0 172 13 q-12 -97 -12 -168 l0 -107 q0 -72 12 -168 q-86 12 -172 12 l-336 0 l121 -24 q23 -4 23 -14 q0 -13 -23 -31 q-29 -19 -26 -103 l419 0 q82 0 172 13 q-12 -86 -12 -164 l0 -266 q4 -95 -51 -125 q-49 -35 -238 -58 q-20 82 -71 150 q85 -7 137 -7 q52 0 70 7 q43 8 38 74 l0 274 l-462 0 l0 -422 q0 -76 12 -168 l-139 0 q12 99 12 168 l0 422 l-475 0 l0 -309 q0 -80 12 -168 l-139 0 q12 90 12 168 l0 262 q-4 82 -12 160 ZM664 889 l0 -213 l716 0 l0 213 l-716 0 ZM451 1466 l84 88 q127 -108 245 -219 l-88 -96 q-94 117 -241 227 Z" /><glyph glyph-name="" unicode="&#x5e8f;" d="M707 582 l604 0 q-181 92 -371 172 l51 102 q68 -31 271 -125 q139 90 292 238 l-735 0 q-61 -2 -157 -13 l0 127 q110 -12 157 -12 l778 0 q80 0 205 12 q-151 -194 -426 -405 q37 -19 70 -41 l-29 -55 l408 0 q35 2 164 10 q-33 -76 -93 -195 q-10 -22 -36 -73 q-54 -109 -76 -158 q-70 29 -137 41 q104 147 157 272 l-481 0 l0 -600 q4 -106 -57 -139 q-60 -37 -256 -45 q-11 72 -54 151 q96 -10 151 -10 q43 0 60 6 q45 11 41 78 l0 559 l-501 0 q-58 -2 -160 -12 l0 127 q108 -12 160 -12 ZM74 -221 q274 258 266 1003 l0 387 q0 43 -12 185 q135 -13 192 -13 l656 0 q-105 89 -252 175 l71 96 q166 -109 297 -203 l-47 -68 l535 0 q69 3 172 13 l0 -127 q-109 10 -172 12 l-1321 0 l0 -496 q12 -618 -213 -1001 q-56 27 -172 37 Z" /><glyph glyph-name="" unicode="&#x5e93;" d="M74 -184 q276 239 262 891 l0 456 q0 80 -12 181 q94 -13 186 -13 l707 0 q-111 86 -267 166 l80 111 q154 -90 289 -185 l-64 -92 l465 0 q97 0 189 13 l0 -127 q-88 12 -189 12 l-1269 0 l0 -522 q8 -609 -230 -943 q-59 33 -147 52 ZM651 195 l525 0 l0 245 l-304 0 q-100 0 -196 -34 l-72 110 q72 33 129 127 q53 84 121 219 l-149 0 q-80 0 -173 -12 l0 127 q86 -12 173 -12 l200 0 q66 114 92 231 l148 -47 q22 -8 22 -14 q0 -9 -22 -21 q-58 -35 -84 -92 q-6 -14 -23 -45 q-6 -8 -8 -12 l619 0 q84 0 163 12 l0 -127 q-81 12 -163 12 l-670 0 q-82 -149 -188 -319 l385 0 l0 45 q0 98 -13 203 l162 -25 q25 -2 25 -13.5 q0 -11.5 -23 -31.5 q-37 -29 -37 -133 l0 -45 l318 0 q88 0 164 12 l0 -127 q-82 12 -164 12 l-318 0 l0 -245 l510 0 q84 0 164 12 l0 -127 q-92 12 -164 12 l-510 0 l0 -235 q0 -66 13 -164 l-140 0 q13 88 13 164 l0 235 l-525 0 q-76 0 -162 -12 l0 127 q97 -12 162 -12 Z" /><glyph glyph-name="" unicode="&#x5ea6;" d="M1094 49 q-195 170 -287 352 l-25 0 q-59 2 -159 -12 l0 127 q94 -14 159 -12 l727 0 q58 -2 170 12 q-137 -225 -385 -467 q322 -166 672 -176 q-59 -55 -90 -149 q-422 73 -682 245 q-295 -176 -649 -280 q-37 88 -94 141 q344 31 643 219 ZM1194 117 q162 129 264 284 l-520 0 q86 -141 256 -284 ZM977 1057 l450 0 l0 28 q3 93 -12 187 l154 -23 q28 -4 28 -10 q2 -6 -24 -29 q-31 -28 -31 -131 l0 -22 l164 0 q61 -2 162 12 l0 -127 q-103 14 -162 12 l-164 0 l0 -141 q-2 -65 12 -176 q-120 14 -192 12 l-361 0 q-63 0 -151 -12 q12 88 12 158 l0 159 l-170 0 q-59 2 -157 -12 l0 127 q94 -14 157 -12 l170 0 l0 26 q0 82 -12 181 l156 -23 q26 -2 26 -10 q0 -8 -24 -29 q-31 -22 -31 -131 l0 -14 ZM977 954 l0 -202 l450 0 l0 202 l-450 0 ZM88 -143 q166 139 219 340 q58 188 55 635 l0 382 q3 89 -12 191 q105 -12 182 -12 l674 0 q-80 63 -209 141 l72 94 q133 -80 240 -160 l-52 -75 l515 0 q65 0 172 12 l0 -131 q-111 12 -172 12 l-1291 0 l0 -493 q2 -390 -47 -580 q-45 -197 -196 -420 q-52 43 -150 64 Z" /><glyph glyph-name="" unicode="&#x5f0f;" d="M276 1120 l889 0 q-10 72 -18 226 q-2 88 -19 227 l179 -21 q22 -2 24 -12 q2 -10 -16 -29 q-43 -28 -43 -133 q-4 -96 16 -258 l441 0 q55 2 163 13 l0 -127 q-102 12 -163 12 l-431 0 q66 -703 349 -1096 q47 -63 92 -59 q47 6 67 78 q19 75 29 157 q72 -67 131 -90 q-45 -135 -63 -174 q-58 -125 -170 -115 q-113 19 -209 162 q-281 418 -346 1137 l-902 0 q-63 -2 -165 -12 l0 127 q96 -11 165 -13 ZM197 -92 q180 2 450 63 l0 672 l-192 0 q-72 -2 -168 -12 l0 127 q106 -10 168 -13 l491 0 q39 0 164 13 l0 -127 q-104 10 -164 12 l-184 0 l0 -639 q282 53 459 125 q-21 -63 -33 -158 q-500 -84 -944 -225 l-47 162 ZM1409 1436 l88 88 q119 -109 250 -244 l-98 -98 q-109 141 -240 254 Z" /><glyph glyph-name="" unicode="&#x5f15;" d="M1739 -270 l-148 0 q13 114 13 239 l0 1465 q0 96 -13 163 l170 -20 q15 -2 17 -14.5 q2 -12.5 -13 -18.5 q-41 -6 -39 -137 l0 -1438 q0 -116 13 -239 ZM1108 1460 q-12 -114 -12 -180 l0 -227 q0 -82 12 -174 q-100 12 -180 12 l-486 0 q-8 -80 -26 -244 q-8 -65 -13 -102 l555 0 q78 0 175 12 q-29 -295 -43 -539 q3 -15 3 -32 q0 -217 -642 -224 q-27 109 -58 162 q98 -4 177 -4 q198 0 280 25 q121 30 127 145 q8 76 16 225 q6 82 8 123 l-569 0 q-96 0 -176 -12 q31 106 41 197 q14 114 20.5 205.5 q6.5 91.5 6.5 181.5 q69 -13 176 -13 l481 0 l0 344 l-584 0 q-78 0 -157 -12 l0 131 q65 -12 157 -12 l531 0 q100 0 180 12 Z" /><glyph glyph-name="" unicode="&#x5f52;" d="M166 -182 q360 145 483 483 q39 133 45 475 l0 621 q0 110 -12 164 l162 -27 q20 -2 20 -10 q0 -6 -18 -17 q-39 -28 -41 -139 l0 -549 q6 -479 -86 -661 q-86 -207 -408 -441 q-53 70 -145 101 ZM289 1331 l162 -26 q18 -5 20 -11 q0 -6 -16 -16 q-39 -23 -39 -139 l0 -754 q0 -96 12 -168 l-139 0 q12 55 12 168 l0 782 q0 111 -12 164 ZM1126 764 l564 0 l0 524 l-625 0 q-96 0 -158 -12 l0 127 q39 -12 158 -12 l569 0 q119 0 183 12 q-13 -68 -13 -186 l0 -1207 q0 -102 13 -174 l-140 0 q13 66 13 176 l-639 0 q-97 0 -158 -12 l0 127 q39 -12 158 -12 l639 0 l0 547 l-564 0 q-98 0 -157 -13 l0 127 q49 -12 157 -12 Z" /><glyph glyph-name="" unicode="&#x5f88;" d="M197 461 q-50 59 -134 96 q381 252 578 641 l137 -96 q17 -12 15 -25 q-5 -10 -27 -10 q-45 -4 -82 -53 q-72 -103 -149 -195 l0 -954 q2 -82 12 -178 l-139 0 q10 102 12 178 l0 821 q-113 -121 -223 -225 ZM549 1610 l133 -107 q14 -10 10 -20 q-2 -10 -20 -15 q-62 -14 -107 -77 q-159 -222 -336 -394 q-49 56 -125 93 q269 165 445 520 ZM858 1487 q105 -10 176 -12 l557 0 q80 2 176 12 q-10 -90 -12 -168 l0 -559 q2 -80 12 -168 q-96 10 -176 12 l-241 0 q20 -125 108 -284 q275 167 357 268 l96 -111 q12 -14 10 -24 q-4 -9 -25 -11 q-61 -6 -131 -49 q-120 -78 -254 -153 q183 -260 459 -396 q-76 -24 -149 -104 q-490 381 -598 864 l-238 0 l0 -684 q205 111 330 209 q-1 -34 -1 -71 q0 -37 1 -76 q-303 -174 -422 -267 l-84 129 q68 27 61 148 l0 1323 q-2 72 -12 172 ZM985 983 l0 -276 l655 0 l0 276 l-655 0 ZM985 1372 l0 -287 l655 0 l0 287 l-655 0 Z" /><glyph glyph-name="" unicode="&#x5f97;" d="M78 502 q352 235 508 571 l143 -98 q15 -9 15 -18 q0 -3 -1 -5 q-2 -8 -24 -10 q-43 -2 -72 -37 q-43 -55 -117 -139 l0 -870 q9 -134 17 -197 l-141 0 q6 55 14 197 l0 735 q-129 -129 -227 -221 q-41 49 -115 92 ZM106 1106 q302 180 453 459 l117 -95 q24 -18 20 -26 q0 -8 -30 -17 q-39 -8 -80 -57 q-152 -172 -346 -350 q-60 55 -134 86 ZM799 395 l712 0 l0 185 l-620 0 q-62 0 -162 -13 l0 127 q100 -12 162 -12 l813 0 q59 -2 164 12 l0 -127 q-103 13 -164 13 l-82 0 l0 -185 l174 0 q59 0 164 13 l0 -127 q-96 12 -164 12 l-174 0 l0 -410 q4 -112 -59 -145 q-54 -37 -260 -47 q-13 84 -72 155 q100 -12 161 -12 q49 0 70 8 q54 15 49 95 l0 356 l-712 0 q-58 0 -162 -12 l0 127 q104 -13 162 -13 ZM827 1497 q105 -12 168 -12 l570 0 q71 -2 174 12 q-13 -110 -13 -176 l0 -320 q0 -65 13 -172 q-105 15 -174 13 l-570 0 q-65 0 -168 -13 q13 107 13 172 l0 320 q0 63 -13 176 ZM950 1106 l0 -162 l666 0 l0 162 l-666 0 ZM950 1382 l0 -174 l666 0 l0 174 l-666 0 ZM911 145 l84 93 q142 -113 275 -240 l-88 -94 q-138 143 -271 241 Z" /><glyph glyph-name="" unicode="&#x601d;" d="M78 -127 q176 168 260 479 l145 -55 q19 -6 17 -13.5 q-2 -7.5 -25 -19.5 q-33 -18 -49 -57 q-70 -176 -203 -397 q-30 26 -145 63 ZM375 571 q12 60 12 168 l0 543 q0 107 -12 170 q53 -12 164 -12 l989 0 q106 0 168 12 q-13 -61 -13 -170 l0 -543 q0 -108 13 -168 q-74 13 -164 13 l-993 0 q-103 0 -164 -13 ZM502 958 l0 -272 l471 0 l0 272 l-471 0 ZM502 1337 l0 -276 l471 0 l0 276 l-471 0 ZM1087 686 l482 0 l0 272 l-482 0 l0 -272 ZM1087 1337 l0 -276 l482 0 l0 276 l-482 0 ZM1434 78 q49 -68 131 -90 q-72 -224 -181 -232 q-106 -22 -266 -26 q-172 -4 -336 10 q-204 6 -190 186 l0 258 q2 109 -12 168 l165 -26 q23 -4 23 -20.5 q0 -16.5 -23 -26.5 q-36 -23 -38 -119 l0 -201 q-2 -12 -2 -23 q0 -81 114 -83 q96 -11 230 -9 q139 0 243 13 q119 18 142 221 ZM868 428 l99 88 q172 -164 305 -317 l-105 -95 q-116 172 -299 324 ZM1544 297 l107 74 q159 -178 299 -420 l-113 -76 q-106 213 -293 422 Z" /><glyph glyph-name="" unicode="&#x603b;" d="M287 -162 q-60 47 -135 66 q161 153 221 481 l147 -55 q19 -8 19 -17 q-2 -10 -23 -20 q-33 -17 -65 -105 q-72 -198 -164 -350 ZM463 1171 q57 -12 145 -12 l455 0 q213 248 311 457 l154 -84 q26 -14 24 -20.5 q-2 -6.5 -34 -14.5 q-60 -14 -125 -100 q-78 -103 -189 -238 l269 0 q90 0 151 12 q-12 -73 -12 -155 l0 -330 q0 -96 12 -154 q-76 13 -151 13 l-865 0 q-65 0 -145 -13 q12 91 12 152 l0 330 q0 78 -12 157 ZM586 1053 l0 -402 l911 0 l0 402 l-911 0 ZM537 1454 l92 88 q162 -123 295 -262 l-99 -86 q-133 145 -288 260 ZM1395 117 q65 -74 135 -86 q-66 -295 -324 -283 l-258 -4 q-16 -1 -43 -1 q-236 0 -221 191 l0 263 q0 86 -12 180 l174 -21 q26 -4 26 -16 q0 -14 -26 -25 q-45 -26 -47 -151 l0 -203 q-2 -13 -2 -21 q0 -86 -6.5 -81 q-6.5 5 109.5 5 q16 0 28 1 l235 0 q131 -2 176 51 q47 45 56 201 ZM862 426 l96 86 q146 -133 281 -276 l-102 -89 q-129 160 -275 279 ZM1479 346 l104 74 q156 -172 315 -404 l-116 -88 q-119 224 -303 418 Z" /><glyph glyph-name="" unicode="&#x60a8;" d="M90 999 q332 215 518 586 l133 -82 q17 -10 15 -18 q-2 -6 -23 -10 q-37 -11 -71 -56 q-58 -82 -117 -153 l0 -660 q0 -76 12 -180 l-139 0 q12 94 12 180 l0 522 q-111 -118 -197 -204 q-63 45 -143 75 ZM98 -125 q168 148 277 426 l137 -68 q18 -10 18 -16 q-2 -6 -22 -14 q-39 -13 -59 -53 q-93 -164 -218 -349 q-59 45 -133 74 ZM1434 119 q59 -60 131 -90 q-88 -287 -281 -281 q-98 -8 -295 -6 q-174 2 -217 12 q-160 25 -147 199 l0 147 q0 80 -13 195 l152 -25 q22 -2 22 -14 q0 -12 -22 -35 q-27 -14 -25 -121 l0 -129 q-10 -100 82 -106 q43 -8 201 -10 q174 -2 233 4 q154 -6 179 260 ZM610 1038 q295 181 459 557 l137 -63 q21 -10 19 -18.5 q-2 -8.5 -29 -18.5 q-37 -14 -66 -59 q-47 -74 -83 -127 l657 0 q92 0 197 12 q-54 -72 -97 -158 q-45 -88 -104 -180 q-55 29 -123 49 q57 74 115 174 l-721 0 q-88 -104 -217 -239 q-62 45 -144 71 ZM649 580 q182 153 316 405 l102 -82 q18 -14 18 -24 q-2 -11 -24 -19 q-41 -14 -84 -80 q-86 -127 -199 -270 q-59 43 -129 70 ZM881 328 l90 82 q155 -152 258 -271 l-84 -98 q-129 164 -264 287 ZM1016 547 q79 -12 123 -12 q37 0 55 8 q43 12 41 84 l0 284 q0 84 -12 187 l151 -25 q23 -2 23 -14 q0 -10 -23 -32 q-24 -23 -24 -116 l0 -327 q2 -105 -54 -135 q-51 -37 -235 -48 q-14 72 -45 146 ZM1450 883 l84 86 q172 -154 344 -342 l-90 -97 q-158 181 -338 353 ZM1493 309 l94 82 q191 -178 355 -352 l-93 -96 q-149 174 -356 366 Z" /><glyph glyph-name="" unicode="&#x6210;" d="M63 -188 q189 106 242 368 q40 170 40 490 q0 177 -11 379 q-2 61 -17 178 q105 -13 183 -13 l678 0 q-15 146 -23 369 l164 -14 q31 -2 33 -13 q4 -10 -19 -28 q-30 -23 -37 -76 q-4 -33 -4 -109 q0 -35 2 -129 l418 0 q84 0 166 13 l0 -127 q-80 12 -166 12 l-409 0 q22 -438 129 -760 q135 209 198 559 l150 -41 q28 -8 28 -16 q0 -8 -26 -25 q-35 -18 -56 -81 q-92 -281 -241 -537 q119 -250 287 -342 q55 4 79 217 q56 -59 123 -98 q-80 -283 -162 -285 q-188 31 -405 395 q-168 -202 -406 -381 q-49 70 -127 121 q256 78 476 389 q-131 394 -164 885 l-733 0 l0 -315 l352 0 q84 0 172 12 q-4 -78 -8 -166 q-6 -328 -14.5 -426 q-8.5 -98 -36.5 -131 q-68 -104 -334 -111 q-2 80 -33 166 q88 -19 149 -19 q80 0 105 34 q31 22 39 117.5 q8 95.5 8 420.5 l-399 0 q2 -79 2 -126 q0 -301 -46.5 -478.5 q-46.5 -177.5 -207.5 -359.5 q-66 51 -138 82 ZM1432 1493 l92 84 q108 -104 213 -225 l-103 -86 q-82 112 -202 227 Z" /><glyph glyph-name="" unicode="&#x6211;" d="M586 987 l0 299 q-119 -20 -320 -45 q-49 98 -92 143 q70 -8 142 -8 q290 0 614 129 l76 -112 q12 -17 12 -24 q0 -3 -3 -6 q-3 -3 -12 -3 q-9 0 -24 2 q-16 3 -29 3 q-14 0 -26 -3 q-109 -31 -219 -53 l0 -322 l454 0 q-31 418 -39 615 l185 -43 q20 -5 20 -13 q2 -6 -16 -18 q-47 -37 -47 -135 q2 -232 18 -406 l502 0 q49 -2 125 12 l0 -127 q-86 15 -129 13 l-492 0 q25 -314 105 -537 q151 209 208 459 l152 -86 q18 -10 14 -16 q0 -7 -26 -21 q-41 -22 -68 -80 q-92 -192 -227 -387 q137 -319 295 -352 q73 -12 90 205 q61 -45 127 -70 q-75 -288 -178 -288 q-10 0 -15 1 q-202 19 -403 398 q-184 -187 -430 -359 q-70 51 -158 80 q291 111 535 404 q-99 202 -140 649 l-462 0 l0 -371 q192 68 319 137 l2 -131 q-197 -71 -321 -123 l0 -479 q4 -123 -66 -162 q-66 -43 -287 -53 q2 80 -39 158 q123 -19 180 -19 q33 0 48 6 q49 11 45 95 l0 407 q-246 -84 -373 -162 l-92 136 q233 47 465 147 l0 414 l-322 0 q-59 2 -160 -13 l0 127 q86 -14 156 -12 l326 0 ZM1372 1403 l88 80 q154 -127 318 -291 l-92 -94 q-166 184 -314 305 Z" /><glyph glyph-name="" unicode="&#x624d;" d="M1112 1057 l-752 0 q-90 -2 -172 -17 l0 136 q97 -17 172 -17 l828 0 l0 219 q-4 84 -17 219 l172 -20 q16 -7 16 -18 q0 -12 -20 -31 q-36 -23 -36 -156 l0 -213 l428 0 q92 2 167 17 l0 -136 q-77 15 -167 17 l-428 0 l0 -1086 q6 -170 -60 -213 q-55 -51 -305 -77 q-27 114 -70 176 q113 -21 185 -21 q45 0 69 8 q68 21 66 117 l0 963 q-305 -553 -897 -928 q-51 72 -129 129 q586 235 950 932 Z" /><glyph glyph-name="" unicode="&#x627e;" d="M1169 870 l-165 -16 q-89 -10 -148 -27 l-14 144 q41 -10 87 -10 q24 0 44 2 l190 14 q0 24 -2 82 q-4 229 -4 264 q-2 129 -12 258 l166 -16 q26 -2 28 -12.5 q2 -10.5 -16 -28.5 q-27 -25 -33 -51 q-8 -25 -10 -103 q-4 -90 -4 -186 q0 -96 4 -197 l436 39 q78 10 150 31 l14 -133 q-37 2 -96 2 q-51 -2 -74 -4 l-424 -41 q8 -281 78 -535 q166 209 266 442 l133 -98 q23 -16 21 -24 q-2 -11 -29 -17 q-47 -12 -96 -90 q-127 -196 -240 -346 q158 -293 318 -313 q61 4 84 239 q75 -86 127 -108 q-95 -267 -185 -275 q-184 -20 -432 361 q-192 -191 -448 -340 q-39 63 -127 119 q237 59 518 346 q-94 297 -105 628 ZM1417 1366 l90 92 q105 -104 226 -258 l-107 -94 q-98 154 -209 260 ZM516 586 l0 436 l-203 0 q-67 -2 -163 -12 l0 127 q90 -11 163 -13 l203 0 l0 273 q-2 71 -12 178 l158 -21 q16 -2 16 -14 q0 -12 -16 -24 q-33 -13 -31 -142 l0 -250 l114 0 q72 2 160 13 l0 -127 q-84 10 -160 12 l-114 0 l0 -387 q133 63 227 125 q-9 -66 -9 -116 q0 -17 1 -32 q-107 -47 -219 -104 l0 -604 q1 -8 1 -22 q0 -152 -300 -150 q-27 116 -60 162 q107 -12 158 -12 q32 0 47 5 q43 7 39 66 l0 502 q-168 -82 -301 -166 l-104 149 q163 35 405 148 Z" /><glyph glyph-name="" unicode="&#x6280;" d="M1260 117 q-195 200 -308 577 q-43 0 -118 -12 l0 125 q69 -14 167 -12 l297 0 l0 336 l-346 0 q-57 2 -141 -13 l0 123 q70 -14 135 -12 l352 0 l0 147 q0 97 -12 217 l160 -20 q24 -2 22 -14 q0 -11 -24 -33 q-29 -31 -31 -117 l0 -180 l361 0 q53 0 133 12 l0 -123 q-80 15 -131 13 l-363 0 l0 -336 l227 0 q72 0 160 12 q-104 -408 -356 -700 q209 -191 532 -263 q-92 -71 -129 -147 q-336 174 -497 323 q-252 -200 -584 -327 q-57 90 -129 135 q356 53 623 289 ZM1350 195 q188 184 282 501 l-565 0 q76 -270 283 -501 ZM444 619 l0 417 l-182 0 q-55 2 -141 -12 l0 123 q63 -14 133 -12 l190 0 l0 231 q2 109 -12 213 l170 -20 q16 -3 16 -13 q0 -12 -16 -28 q-47 -37 -43 -136 l0 -247 l70 0 q49 0 133 12 l0 -123 q-82 12 -127 12 l-76 0 l0 -362 q82 41 184 117 l-12 -164 q-110 -51 -172 -86 l0 -650 q2 -14 2 -21 q0 -142 -295 -165 q-22 111 -71 168 q72 -15 123 -15 q131 0 126 97 l0 524 q-147 -67 -270 -153 l-100 149 q159 33 370 144 Z" /><glyph glyph-name="" unicode="&#x62a4;" d="M625 -236 q374 213 356 861 l0 409 q0 56 -12 178 q121 -12 192 -12 l463 0 q68 0 219 12 q-10 -114 -12 -182 l0 -442 q2 -53 12 -178 l-135 0 q8 57 8 116 l-624 0 q6 -530 -328 -833 q-68 43 -139 71 ZM1096 1098 l0 -469 l620 0 l0 469 l-620 0 ZM1184 1497 l92 92 q123 -104 266 -235 l-92 -97 q-141 154 -266 240 ZM453 588 l0 426 l-166 0 q-51 0 -166 -13 l0 127 q96 -10 166 -12 l166 0 l0 264 q0 68 -13 201 l156 -20 q31 -5 31 -13 q2 -8 -23 -30 q-37 -35 -37 -134 l0 -268 l80 0 q68 0 166 12 l0 -127 q-106 13 -166 13 l-80 0 l0 -369 q138 68 230 133 l-11 -151 q-100 -54 -219 -109 l0 -610 q4 -113 -49 -148 q-49 -41 -225 -59 q-17 70 -66 154 q87 -13 133 -13 q32 0 50 6 q45 13 43 74 l0 535 q-95 -54 -197 -113 q-31 -16 -33 -18 l-100 137 q174 45 330 125 Z" /><glyph glyph-name="" unicode="&#x6301;" d="M975 258 l82 82 q135 -127 243 -238 l-81 -88 q-103 123 -244 244 ZM432 606 l0 430 l-147 0 q-82 0 -179 -12 l0 127 q95 -12 179 -12 l147 0 l0 233 q0 94 -12 223 l158 -24 q28 -4 28 -20.5 q0 -16.5 -26 -34.5 q-35 -17 -33 -144 l0 -233 l74 0 q94 0 167 12 l0 -127 q-86 12 -167 12 l-74 0 l0 -377 q127 64 211 132 q-8 -82 -8 -158 q-84 -39 -203 -101 l0 -628 q2 -129 -51 -164 q-50 -43 -228 -45 q-18 78 -63 158 q75 -16 124 -16 q115 0 109.5 -16.5 q-5.5 -16.5 -5.5 84.5 q0 8 -1 15 l0 553 q-145 -76 -250 -147 l-108 141 q131 29 358 139 ZM1313 926 l0 264 l-238 0 q-84 0 -176 -12 l0 127 q88 -13 176 -13 l238 0 l0 92 q0 107 -13 232 l154 -25 q33 -4 33 -16 q2 -12 -27 -39 q-37 -14 -33 -152 l0 -92 l238 0 q88 0 168 13 l0 -127 q-96 12 -168 12 l-238 0 l0 -264 l357 0 q88 0 186 12 l0 -127 q-102 12 -186 12 l-799 0 q-74 0 -186 -12 l0 127 q106 -12 186 -12 l328 0 ZM1563 -68 l0 521 l-559 0 q-76 0 -168 -13 l0 127 q94 -12 168 -12 l559 0 l0 6 q0 103 -13 223 l156 -24 q31 -4 31 -20.5 q0 -16.5 -29 -37.5 q-33 -14 -31 -141 l0 -6 l76 0 q86 0 174 12 l0 -127 q-92 13 -174 13 l-76 0 l0 -533 q2 -131 -51 -168 q-49 -41 -229 -45 q-25 80 -76 156 q87 -15 138 -15 q35 0 54 7 q52 12 50 77 Z" /><glyph glyph-name="" unicode="&#x6307;" d="M1827 -299 l-139 0 q14 55 12 104 l0 13 l-656 0 l0 -17 q-2 -53 13 -110 l-139 0 q14 65 12 117 l0 675 q2 58 -12 133 q79 -14 141 -12 l629 0 q61 -2 139 12 q-15 -67 -12 -135 l0 -673 q-3 -46 12 -107 ZM1044 -84 l656 0 l0 254 l-656 0 l0 -254 ZM1044 268 l656 0 l0 238 l-656 0 l0 -238 ZM1120 1384 l0 -137 q404 97 609 248 l108 -131 q18 -23 14 -35 q-4 -6 -15 -6 q-8 0 -17 2 q-28 8 -52 8 q-24 0 -43 -8 q-284 -111 -604 -186 l0 -119 q-6 -88 56 -102 q49 -23 305 -21 q229 -2 280 43 q62 35 68 207 q55 -55 141 -74 q-41 -186 -135 -235 q-88 -58 -354 -56 q-320 -2 -396 37 q-86 31 -79 170 l0 393 q2 109 -13 201 l166 -20 q21 -4 23 -15 q-2 -10 -23 -26 q-39 -29 -39 -138 ZM449 625 l0 419 l-187 0 q-57 3 -131 -12 l0 123 q57 -14 127 -12 l191 0 l0 221 q0 76 -2.5 112.5 q-2.5 36.5 -10.5 88.5 l158 -21 q31 -4 31 -16 q2 -10 -27 -29 q-35 -22 -35 -131 l0 -225 l150 0 q59 -2 127 12 l0 -123 q-76 15 -125 12 l-152 0 l0 -360 q103 53 191 123 l-4 -160 q-109 -51 -187 -98 l0 -629 q4 -121 -47 -151 q-41 -39 -235 -62 q-13 78 -72 156 q81 -8 125 -8 q47 0 72 8 q47 12 43 74 l0 548 q-181 -90 -275 -176 l-100 150 q129 30 375 166 Z" /><glyph glyph-name="" unicode="&#x6362;" d="M588 -205 q444 162 579 539 l-352 0 q-61 0 -170 -12 l0 127 q111 -13 172 -13 l0 393 q0 58 -12 177 q106 -11 182 -13 l268 0 q121 183 177 289 l-355 0 q-80 -139 -186 -274 q-70 53 -133 75 q215 136 340 541 l155 -65 q11 -5 11 -11 q0 -4 -13 -12 q-49 -25 -73 -74 q-21 -35 -45 -78 l321 0 q100 3 174 11 q-69 -113 -242 -402 l187 0 q67 0 196 13 q-12 -113 -12 -172 l0 -398 q68 0 174 13 l0 -127 q-116 12 -172 12 l-397 0 q182 -404 569 -535 q-92 -49 -127 -118 q-393 245 -528 589 q-127 -325 -561 -575 q-43 59 -127 100 ZM928 891 l0 -455 l266 0 q16 76 25 193 q3 61 3 97 q0 56 -5 110 l151 -23 q23 -2 23 -10 q2 -6 -19 -23 q-31 -28 -37 -100 q-8 -133 -24 -244 l331 0 l0 455 l-714 0 ZM397 641 l0 416 l-121 0 q-65 0 -172 -13 l0 127 q105 -12 172 -12 l121 0 l0 230 q0 63 -12 200 l158 -24 q22 -4 24 -13.5 q2 -9.5 -16 -23.5 q-37 -35 -39 -158 l0 -211 l55 0 q54 0 162 12 l0 -127 q-106 13 -162 13 l-55 0 l0 -365 q104 56 195 115 q-9 -51 -11 -145 q-121 -48 -184 -82 l0 -676 q2 -15 2 -26 q0 -159 -293 -157 q-4 66 -53 140 q76 -10 124 -10 q43 0 62 8 q45 12 43 80 l0 581 q-102 -55 -221 -123 q-10 -6 -14 -8 l-82 125 q145 41 317 127 Z" /><glyph glyph-name="" unicode="&#x636e;" d="M893 1513 q94 -10 149 -10 l600 0 q78 0 177 13 q-13 -103 -13 -166 l0 -179 q0 -77 13 -174 q-95 13 -172 13 l-242 0 l113 -35 q18 -6 20 -14 q0 -9 -18 -23 q-35 -23 -37 -115 l-2 -63 l307 0 q4 0 29 2 q67 6 137 10 l0 -127 q-99 12 -166 12 l-309 0 l-13 -262 l228 0 q67 -2 161 13 q-12 -107 -12 -172 l0 -332 q0 -80 12 -187 l-135 0 q4 52 9 109 l-574 0 q0 -2 0 -6 q2 -51 8 -119 l-135 0 q12 104 12 193 l0 337 q0 66 -12 177 q107 -13 160 -13 l164 0 l12 262 l-352 0 q-13 -489 -277 -833 q-67 51 -143 86 q323 227 315 989 q4 350 -14 614 ZM1356 1010 l-336 0 q0 -129 -4 -250 l350 0 l2 92 q0 82 -12 158 ZM1696 1108 l0 297 l-676 0 l0 -297 l676 0 ZM1151 297 l0 -377 l582 0 l0 377 l-582 0 ZM121 1053 l0 127 q84 -13 145 -13 l172 0 l0 273 q0 76 -12 182 l162 -20 q22 -5 24 -13 q0 -10 -20 -28 q-43 -37 -43 -131 l0 -263 l108 0 q62 -2 154 13 l0 -127 q-86 14 -154 12 l-108 0 l0 -397 q98 51 217 131 l-21 -148 q-53 -26 -165 -86 q-21 -10 -31 -16 l0 -633 q2 -104 -51 -139 q-47 -37 -217 -49 q-2 69 -50 151 q69 -12 113 -12 q36 0 53 8 q43 14 41 86 l0 520 q-98 -55 -252 -155 l-96 125 q154 51 348 159 l0 455 l-172 0 q-57 0 -145 -12 Z" /><glyph glyph-name="" unicode="&#x641c;" d="M678 -197 q348 39 575 217 q-178 146 -309 418 q-98 0 -168 -12 l0 125 q47 -12 152 -12 l317 0 l0 170 l-258 0 q-125 0 -184 -13 q12 76 12 201 l0 303 q0 109 -12 174 q127 21 266 111 l90 -86 q23 -21 21 -33 q-2 -10 -27 -8 q-37 2 -72 -8 q-4 -2 -14 -4 q-74 -29 -137 -43 l0 -191 l59 0 q109 0 162 12 l0 -127 q-59 13 -162 13 l-59 0 l0 -199 l315 0 l0 598 q0 123 -12 182 l162 -26 q22 -4 22 -11.5 q0 -7.5 -18 -23.5 q-39 -33 -39 -131 l0 -588 l362 0 l0 215 l-120 0 q-97 0 -150 -12 l0 127 q61 -13 150 -13 l120 0 l0 183 l-143 0 q-96 0 -149 -13 l0 127 q49 -12 149 -12 l102 0 q99 0 168 12 q-12 -71 -12 -186 l0 -364 q0 -109 12 -179 q-84 13 -186 13 l-303 0 l0 -170 l229 0 q117 0 197 12 q-6 -10 -17 -35 q-30 -70 -73 -147 q-117 -211 -252 -344 q254 -140 545 -172 q-74 -56 -117 -140 q-275 90 -520 234 q-240 -168 -578 -279 q-24 66 -96 135 ZM1341 88 q121 72 261 348 l-541 0 q113 -213 280 -348 ZM78 993 l0 123 q45 -12 131 -12 l162 0 l0 293 q0 110 -13 182 l162 -27 q23 -4 25 -14 q2 -10 -19 -22 q-41 -25 -41 -107 l0 -305 l95 0 q79 0 127 12 l0 -123 q-48 13 -127 13 l-95 0 l0 -390 q90 41 228 136 q-8 -68 -15 -150 q-123 -59 -213 -108 l0 -617 q2 -106 -47 -137 q-43 -37 -202 -49 q0 65 -58 147 q74 -11 117 -11 q33 0 45 7 q33 10 31 86 l0 504 q-135 -80 -203 -133 q-43 76 -90 139 q115 31 293 123 l0 453 l-158 0 q-86 0 -135 -13 Z" /><glyph glyph-name="" unicode="&#x652f;" d="M141 -149 q473 51 824 307 q-263 231 -392 489 l-45 0 q-59 2 -149 -12 l0 127 q65 -14 137 -12 l453 0 l0 331 l-641 0 q-58 2 -127 -12 l0 127 q67 -14 121 -12 l647 0 l0 217 q2 80 -13 178 l160 -20 q23 -3 23 -9 q2 -6 -19 -18 q-39 -16 -37 -135 l0 -213 l627 0 q55 -2 127 12 l0 -127 q-74 14 -125 12 l-629 0 l0 -331 l318 0 q74 -2 180 12 q-182 -338 -432 -590 q313 -211 797 -285 q-97 -59 -111 -147 q-571 190 -774 352 q-340 -250 -813 -377 q-21 82 -107 136 ZM1053 236 q217 188 325 411 l-688 0 q127 -225 363 -411 Z" /><glyph glyph-name="" unicode="&#x6562;" d="M78 94 q108 6 231 23 l0 917 l-80 0 q-63 0 -155 -12 l0 127 q94 -12 155 -12 l404 0 q37 110 88 250 l-301 0 q-58 0 -152 -13 l0 127 q90 -12 152 -12 l280 0 q76 -2 191 12 q-74 -168 -143 -364 l184 0 q74 0 168 12 l0 -127 q-94 12 -168 12 l-37 0 l0 -295 q313 334 410 858 l163 -49 q25 -8 25 -18 q0 -8 -25 -25 q-47 -28 -67 -82 q-49 -129 -115 -290 l465 0 q78 0 170 12 l0 -127 q-90 12 -170 12 l-70 0 q-16 -465 -165 -778 q198 -258 458 -363 q-82 -47 -133 -125 q-250 195 -389 367 q-178 -229 -412 -410 q-59 60 -133 95 q283 145 463 426 q-123 198 -237 532 l112 49 q80 -270 193 -446 q106 256 118 653 l-313 0 q-88 -178 -213 -354 q-78 45 -135 55 l0 -504 q80 23 152 47 q-23 -65 -33 -133 q-19 -4 -60 -12 q-45 -8 -59 -12 l0 -244 q0 -76 12 -186 l-139 0 q12 114 12 186 l0 219 q-487 -86 -643 -141 l-59 143 ZM424 387 l0 -256 q192 33 356 66 l0 190 l-356 0 ZM424 1034 l0 -225 l356 0 l0 225 l-356 0 ZM424 711 l0 -226 l356 0 l0 226 l-356 0 Z" /><glyph glyph-name="" unicode="&#x6563;" d="M246 938 l127 0 l0 227 l-80 0 q-62 0 -152 -12 l0 123 q86 -12 152 -12 l80 0 l0 86 q0 90 -13 209 l150 -25 q29 -4 31 -16 q0 -11 -25 -33 q-29 -23 -29 -135 l0 -86 l211 0 l0 77 q0 99 -12 215 l152 -24 q28 -4 28 -14 q2 -11 -24 -35 q-31 -23 -29 -142 l0 -77 q92 0 186 12 l0 -123 q-94 12 -186 12 l0 -227 q113 0 211 12 l0 -96 q203 322 281 748 l149 -43 q31 -9 35 -19 q2 -8 -23 -22 q-39 -23 -63 -86 q-80 -220 -111 -301 l443 0 q92 0 178 12 l0 -127 q-92 12 -178 12 l-25 0 q-47 -516 -188 -797 q211 -286 473 -362 q-74 -47 -129 -117 q-236 156 -412 377 q-143 -190 -377 -377 q-49 43 -125 86 q260 129 424 385 q-135 250 -200 584 l110 18 q49 -286 160 -495 q123 254 147 698 l-336 0 q-77 -162 -155 -305 q-70 33 -148 51 q25 23 50 53 q-91 13 -191 13 l-567 0 q-68 0 -166 -13 l0 123 q94 -12 166 -12 ZM487 1165 l0 -227 l211 0 l0 227 l-211 0 ZM682 -276 q-18 73 -61 151 q71 -7 108 -7 q47 0 66 9 q39 12 34 82 l0 131 l-436 0 l0 -194 q0 -93 13 -191 l-140 0 q13 107 13 191 l0 614 q0 78 -13 188 q111 -12 201 -12 l295 0 q98 0 194 12 q-12 -98 -12 -180 l0 -581 q2 -115 -47 -150 q-41 -41 -215 -63 ZM393 338 l0 -150 l436 0 l0 150 l-436 0 ZM393 588 l0 -152 l436 0 l0 152 l-436 0 Z" /><glyph glyph-name="" unicode="&#x6570;" d="M111 670 q254 141 407 372 l-182 0 q-70 -2 -174 -12 l0 127 q112 -12 174 -12 l260 0 l0 252 q-2 67 -12 203 l149 -25 q35 -4 37 -10 q4 -6 -16 -25 q-47 -39 -47 -147 l0 -248 l233 0 q45 0 170 12 l0 -127 q-111 10 -170 12 l-225 0 q90 -61 346 -260 q-43 -51 -84 -106 q-117 123 -270 237 l0 -73 q2 -58 12 -183 l-135 0 q10 121 12 183 l0 116 q-168 -231 -360 -393 q-46 56 -125 107 ZM293 453 l182 0 q47 112 78 192 l141 -55 q21 -8 21 -17.5 q0 -9.5 -23 -17.5 q-30 -6 -55 -55 l-27 -47 l254 0 q4 0 56 4 q118 8 124 6 q-59 -195 -217 -424 q29 -12 88 -35 q58 -24 86 -37 q-26 -39 -55 -112 q-61 36 -203 92 q-211 -164 -452 -248 q-39 63 -111 131 q242 10 447 166 q-144 61 -340 115 q75 102 141 239 l-135 0 q-64 -2 -168 -12 l0 127 q113 -12 168 -12 ZM557 350 l-96 -178 q125 -45 254 -92 q96 117 159 270 l-317 0 ZM336 1491 q29 -43 78 -117 q45 -67 73 -108 l-96 -66 q-67 125 -149 238 l94 53 ZM993 1528 l109 -84 q14 -10 12 -19 q-2 -6 -20 -8 q-33 0 -76 -53 q-37 -43 -139 -172 q-29 25 -91 65 q121 123 205 271 ZM1626 1008 l-328 0 q-55 -99 -124 -207 q-50 28 -138 51 q267 272 310 754 l151 -47 q25 -9 27 -17 q0 -6 -23 -18 q-37 -15 -53 -82 q-72 -246 -107 -332 l439 0 q59 2 162 12 l0 -127 q-117 13 -162 13 l-35 0 q-53 -519 -199 -785 q213 -278 457 -385 q-86 -39 -133 -112 q-166 116 -389 385 q-195 -267 -449 -422 q-43 67 -123 104 q330 158 492 430 q-137 209 -205 551 q82 6 119 17 q35 -234 153 -449 q115 217 158 666 Z" /><glyph glyph-name="" unicode="&#x6587;" d="M954 313 q-274 320 -444 775 l-217 0 q-49 2 -133 -13 l0 131 q67 -14 129 -12 l1485 0 q59 -2 129 12 l0 -131 q-70 15 -131 13 l-281 0 q-141 -463 -365 -771 q408 -333 834 -409 q-98 -53 -133 -133 q-486 196 -783 444 q-294 -272 -782 -491 q-55 84 -129 131 q512 137 821 454 ZM772 1509 l90 93 q158 -121 342 -293 l-96 -99 q-190 205 -336 299 ZM1040 416 q207 278 312 672 l-703 0 q133 -365 391 -672 Z" /><glyph glyph-name="" unicode="&#x65b0;" d="M106 -49 q181 182 250 399 l129 -76 q19 -10 17 -18 q-4 -6 -31 -12 q-31 -4 -63 -66 q-80 -145 -177 -289 q-49 37 -125 62 ZM293 852 l196 0 q-94 123 -196 219 l90 74 q92 -94 199 -215 l-80 -78 l172 0 q119 190 160 336 l133 -74 q22 -12 20 -20 q0 -9 -22 -17 q-27 -12 -50 -30 q-20 -23 -124 -195 l153 0 q57 2 160 12 l0 -127 q-98 11 -162 13 l-231 0 l0 -218 l202 0 q70 3 160 13 l0 -127 q-104 10 -164 12 l-198 0 l0 -479 q4 -127 -45 -156 q-39 -37 -228 -49 q-6 80 -51 143 q65 -9 107 -9 q43 0 63 9 q41 15 39 84 l0 457 l-250 0 q-78 -2 -170 -12 l0 127 q111 -13 170 -13 l250 0 l0 218 l-303 0 q-60 -2 -164 -13 l0 127 q100 -10 164 -12 ZM172 1194 l0 127 q123 -12 172 -12 l305 0 q-78 92 -207 202 l86 82 q78 -63 222 -198 l-82 -86 l237 0 q56 2 162 12 l0 -127 q-106 10 -162 12 l-561 0 q-41 0 -172 -12 ZM782 276 l103 66 q80 -117 157 -258 l-112 -68 q-66 152 -148 260 ZM1767 1567 l107 -111 q16 -16 12 -24.5 q-4 -8.5 -28 -6.5 q-11 1 -30 1 q-60 0 -118 -21 q-108 -35 -403 -117 l0 -405 l497 0 q56 0 164 12 l0 -127 q-102 10 -164 12 l-102 0 l0 -874 q4 -84 12 -182 l-139 0 q12 124 12 182 l0 874 l-278 0 q4 -458 -45 -628 q-47 -195 -230 -435 q-43 52 -127 88 q176 152 230 347 q57 186 55 632 l0 420 q0 2 -2 37 q-8 80 -12 148 q18 -3 36 -3 q58 0 148 25 q278 74 405 156 Z" /><glyph glyph-name="" unicode="&#x65f6;" d="M350 -137 l-135 0 q10 108 12 184 l0 1153 q-2 78 -12 193 q119 -13 195 -13 l229 0 q72 0 201 13 q-11 -101 -13 -193 l0 -1104 q2 -73 13 -188 l-131 0 q8 94 8 137 l-379 0 q2 -59 12 -182 ZM338 1278 l0 -485 l379 0 l0 485 l-379 0 ZM338 690 l0 -543 l379 0 l0 543 l-379 0 ZM1638 1407 l0 -346 l140 0 q63 2 159 12 l0 -127 q-108 12 -159 12 l-140 0 l0 -1003 q2 -125 -69 -168 q-66 -47 -283 -63 q-20 84 -80 178 q128 -19 196 -19 q44 0 64 8 q62 17 58 115 l0 952 l-459 0 q-64 -2 -168 -12 l0 127 q98 -10 168 -12 l459 0 l0 346 q0 57 -13 174 l158 -25 q21 -2 21 -10 q2 -6 -15 -18 q-35 -27 -37 -121 ZM1108 782 q104 -176 223 -387 l-119 -71 q-98 211 -215 399 l111 59 Z" /><glyph glyph-name="" unicode="&#x66f4;" d="M121 -164 q457 21 710 228 q-188 108 -342 229 l93 108 q102 -127 315 -243 q64 106 82 280 l-404 0 q-86 0 -186 -12 q14 113 12 186 l0 361 q0 67 -12 190 q115 -12 189 -12 l411 0 l0 195 l-665 0 q-66 0 -168 -13 l0 127 q96 -12 168 -12 l1386 0 q68 0 166 12 l0 -127 q-96 15 -166 13 l-606 0 l0 -195 l379 0 q69 -2 182 12 q-12 -106 -12 -180 l0 -375 q0 -73 12 -182 q-106 14 -182 12 l-389 0 q-25 -194 -93 -338 q400 -192 912 -209 q-64 -75 -86 -157 q-502 92 -885 268 q-217 -201 -715 -317 q-37 79 -106 151 ZM512 1049 l0 -211 l477 0 l0 211 l-477 0 ZM512 735 l0 -194 l473 0 q2 50 2 53 q0 3 0 2 l0 -2 l-2 -41 q4 88 4 182 l-477 0 ZM1098 541 l444 0 l0 194 l-440 0 q0 -76 0 -110 q-2 -43 -4 -84 ZM1104 1049 l0 -211 l438 0 l0 211 l-438 0 Z" /><glyph glyph-name="" unicode="&#x6700;" d="M1780 774 l-787 0 l0 -627 q21 7 62 15 q51 10 69 16 q-10 -43 -20 -114 q-2 -9 -2 -13 q-29 -2 -74 -12 q-22 -4 -35 -6 l0 -148 q0 -104 13 -172 l-140 0 q13 103 13 174 l0 123 q-426 -69 -666 -133 q-4 23 -55 143 q104 3 211 19 l0 735 l-115 0 q-61 0 -158 -12 l0 123 q68 -13 158 -13 l1526 0 q80 0 159 9 l0 -119 q-86 12 -159 12 ZM879 123 l0 141 l-396 0 l0 -209 q152 17 396 68 ZM483 504 l0 -150 l396 0 l0 150 l-396 0 ZM483 774 l0 -176 l396 0 l0 176 l-396 0 ZM1106 506 q-4 0 -10 0 q-25 -2 -66 -8 l0 123 q6 0 19 -2 q88 -11 141 -11 l436 0 q90 0 164 13 q-92 -269 -281 -517 q187 -159 414 -217 q-72 -47 -119 -127 q-227 127 -370 254 q-136 -135 -342 -264 q-21 64 -84 125 q200 68 346 221 q-148 168 -248 410 ZM442 1528 q62 -12 148 -12 l895 0 q74 0 164 12 q-13 -101 -13 -182 l0 -195 q0 -90 13 -180 q-80 12 -166 12 l-891 0 q-76 0 -152 -12 q15 61 13 166 l0 217 q0 86 -11 174 ZM567 1417 l0 -117 l955 0 l0 117 l-955 0 ZM567 1202 l0 -121 l955 0 l0 121 l-955 0 ZM1430 190 q126 168 186 320 l-383 0 q65 -164 197 -320 Z" /><glyph glyph-name="" unicode="&#x6708;" d="M121 -233 q221 180 297 430 q82 249 80 755 l0 332 q0 82 -13 186 q111 -12 203 -12 l705 0 q120 0 229 12 q-12 -118 -12 -221 l0 -1290 q2 -137 -86 -186 q-86 -54 -314 -49 q-8 77 -41 155 q106 -12 172 -12 q66 0 93 12 q57 17 53 119 l0 414 l-891 0 q-55 -418 -338 -731 q-65 51 -137 86 ZM621 870 q-7 -198 -17 -352 l883 0 l0 352 l-866 0 ZM621 1352 l0 -375 l866 0 l0 375 l-866 0 Z" /><glyph glyph-name="" unicode="&#x6709;" d="M104 555 q476 213 676 666 l-473 0 q-59 0 -162 -13 l0 127 q95 -12 162 -12 l508 0 q49 135 59 293 l168 -33 q25 -4 27 -14 q0 -10 -22 -25 q-41 -24 -54 -76 q-20 -79 -41 -145 l772 0 q76 0 179 12 l0 -127 q-99 15 -179 13 l-806 0 q-54 -127 -132 -248 l603 0 q102 -2 215 12 q-13 -125 -13 -213 l0 -862 q4 -121 -51 -152 q-43 -37 -262 -59 q-8 90 -53 170 q92 -12 148 -12 q39 0 57 6 q45 12 43 80 l0 258 l-728 0 l0 -297 q0 -74 13 -191 l-144 0 q13 115 13 191 l0 856 q-154 -166 -389 -326 q-50 62 -134 121 ZM745 870 l0 -231 l728 0 l0 231 l-728 0 ZM745 537 l0 -234 l728 0 l0 234 l-728 0 Z" /><glyph glyph-name="" unicode="&#x6717;" d="M418 1305 l225 0 q-111 114 -252 211 l86 100 q137 -107 266 -219 l-75 -92 l71 0 q86 2 181 12 q-11 -92 -13 -168 l0 -487 q2 -72 13 -168 q-97 10 -179 12 l-376 0 l0 -428 q178 92 354 194 q-47 64 -111 125 l105 80 q168 -207 278 -373 l-108 -96 q-41 82 -109 180 q-242 -145 -506 -321 l-86 135 q74 27 68 154 l0 981 q-2 84 -12 180 q100 -10 180 -12 ZM365 860 l0 -252 l428 0 l0 252 l-428 0 ZM365 963 l428 0 l0 239 l-428 0 l0 -239 ZM729 -221 q232 168 303 371 q80 196 78 616 l0 526 q-2 82 -12 181 q110 -11 184 -13 l344 0 q80 2 180 13 q-10 -91 -12 -168 l0 -1293 q4 -153 -57 -190 q-51 -47 -291 -66 q-8 74 -70 166 q116 -12 176 -12 q59 0 80 10 q51 14 47 123 l0 391 l-462 0 q-37 -430 -336 -729 q-41 37 -152 74 ZM1221 537 l458 0 l0 360 l-454 0 q-2 -221 -4 -360 ZM1225 1358 l0 -359 l454 0 l0 359 l-454 0 Z" /><glyph glyph-name="" unicode="&#x672c;" d="M63 59 q455 224 805 990 l-497 0 q-105 0 -164 -13 l0 127 q53 -12 164 -12 l604 0 l0 291 q0 106 -12 155 l155 -20 q31 -2 29 -8 q2 -6 -31 -25 q-24 -28 -26 -125 l0 -268 l608 0 q106 0 168 12 l0 -127 q-74 13 -164 13 l-504 0 q258 -711 778 -965 q-88 -45 -155 -111 q-463 328 -731 1041 l0 -813 l241 0 q109 0 166 12 l0 -127 q-57 12 -164 12 l-243 0 l0 -252 q0 -6 0 -20 q-3 -113 8 -164 l-135 0 q12 70 12 182 l0 254 l-279 0 q-96 0 -166 -12 l0 127 q52 -12 166 -12 l279 0 l0 778 q-305 -666 -778 -1026 q-41 65 -134 106 Z" /><glyph glyph-name="" unicode="&#x6742;" d="M313 498 l648 0 l0 90 q0 74 -13 178 l162 -21 q23 -2 23 -8 q0 -6 -21 -18 q-35 -14 -33 -131 l0 -90 l643 0 q90 0 179 12 l0 -131 q-86 12 -179 12 l-643 0 l0 -508 q4 -98 -55 -129 q-53 -35 -244 -45 q-14 72 -69 160 q107 -17 165 -17 q26 0 39 3 q48 8 46 63 l0 473 l-648 0 q-84 0 -182 -12 l0 131 q105 -12 182 -12 ZM139 -166 q281 176 408 442 l141 -88 q13 -8 13 -14 q0 -2 -3.5 -7 q-3.5 -5 -31.5 -11 q-39 -13 -93 -80 q-124 -158 -297 -324 q-61 53 -137 82 ZM195 688 q542 107 583 520 l-327 -12 q-89 -2 -183 -18 l-8 127 q60 -8 131 -8 q28 0 53 1 l355 11 q9 95 9 172 q0 59 -5 104 l174 -20 q22 -2 20 -11 q0 -6 -22 -20 q-39 -16 -41 -80 q-6 -76 -12 -141 l362 12 q88 2 203 19 q-25 -99 -27 -177 l-12 -249 q-2 -27 -2 -48 q0 -41 8 -55 q10 -22 64 -29 q40 -4 78 -4 q56 0 108 9 q76 16 70 172 q71 -45 139 -64 q-55 -219 -193 -225 q-39 -6 -112 -8 q-80 0 -127 4 q-105 10 -127 57 q-23 36 -23 139 q0 23 2 62 l15 301 l-441 -19 q-69 -477 -600 -637 q-39 62 -112 115 ZM1399 281 q207 -164 418 -351 l-91 -108 q-200 188 -419 354 l92 105 Z" /><glyph glyph-name="" unicode="&#x6765;" d="M512 1145 q166 -180 299 -338 l-94 -90 q-121 172 -303 344 l98 84 ZM1462 1159 l127 -92 q19 -14 17 -23.5 q-2 -9.5 -25 -11.5 q-59 -8 -102 -69 q-90 -125 -189 -236 q-49 43 -104 78 q160 145 276 354 ZM963 678 l0 528 l-541 0 q-68 -2 -166 -12 l0 127 q90 -10 166 -12 l541 0 l0 100 q-2 82 -13 180 l158 -20 q12 -6 12 -14 q0 -11 -18 -25 q-25 -19 -25 -131 l0 -90 l531 0 q78 2 166 12 l0 -127 q-88 10 -166 12 l-531 0 l0 -528 l615 0 q75 2 166 12 l0 -127 q-86 10 -164 13 l-535 0 q314 -465 828 -594 q-103 -66 -138 -127 q-485 225 -772 641 l0 -619 q2 -78 13 -184 l-140 0 q11 106 13 184 l0 612 q-340 -413 -754 -663 q-39 76 -127 117 q399 135 792 633 l-569 0 q-72 -3 -164 -13 l0 127 q95 -10 164 -12 l658 0 Z" /><glyph glyph-name="" unicode="&#x677f;" d="M573 -152 q377 320 394 920 q4 120 4 224 q0 57 -2 157 q-6 190 -21 281 q56 -3 108 -3 q368 0 703 138 l80 -138 q8 -16 8 -25 q0 -4 -2 -7 q-4 -4 -11 -4 q-8 0 -24 6 q-15 6 -40 6 q-32 0 -76 -10 q-228 -56 -613 -88 q2 -76 4 -217 q5 -107 5 -158 l552 0 q64 -2 168 12 q-90 -477 -264 -741 q189 -215 445 -322 q-74 -57 -109 -145 q-229 162 -412 350 q-172 -205 -462 -381 q-43 76 -144 123 q324 104 522 358 q-167 244 -266 643 l-30 0 q2 -634 -361 -1052 q-74 55 -156 73 ZM406 1028 l-123 0 q-58 0 -164 -12 l0 127 q102 -12 164 -12 l139 0 l0 309 q0 59 -12 155 l155 -20 q19 -2 19 -10.5 q0 -8.5 -19 -22.5 q-30 -31 -33 -131 l0 -280 l156 0 q68 0 166 12 l0 -127 q-109 14 -166 12 l-156 0 l0 -115 q175 -147 322 -317 l-102 -107 q-95 150 -220 293 l0 -891 q0 -71 13 -180 l-135 0 q12 113 12 180 l0 857 q-88 -263 -223 -486 q-60 47 -144 64 q219 231 351 702 ZM1466 301 q136 211 193 526 l-404 0 q70 -315 211 -526 Z" /><glyph glyph-name="" unicode="&#x679d;" d="M1272 137 q-178 191 -293 525 q-43 2 -92 -13 l0 131 q53 -14 121 -12 l299 0 l0 354 l-326 0 q-61 2 -137 -12 l0 131 q69 -14 129 -12 l334 0 l0 184 q2 113 -13 189 l158 -21 q23 -2 23 -10 q0 -6 -23 -21 q-29 -24 -31 -133 l0 -188 l336 0 q53 -2 127 12 l0 -131 q-74 14 -127 12 l-336 0 l0 -354 l193 0 q74 -2 168 12 q-109 -362 -334 -649 q180 -188 532 -270 q-75 -43 -106 -133 q-336 151 -514 321 q-213 -184 -574 -319 q-30 75 -104 125 q358 73 590 282 ZM1358 215 q176 186 268 447 l-522 0 q51 -211 254 -447 ZM418 999 l-142 0 q-61 2 -143 -12 l0 131 q74 -14 133 -12 l152 0 l0 285 q2 86 -12 172 l153 -21 q25 -2 25 -8 q2 -6 -19 -18 q-33 -23 -33 -138 l0 -272 l105 0 q59 -2 137 12 l0 -131 q-78 14 -137 12 l-105 0 l0 -127 q166 -163 246 -270 q-53 -33 -94 -78 q-88 138 -152 193 l0 -866 q-2 -68 13 -154 l-139 0 q14 80 12 151 l0 793 q-99 -225 -209 -430 q-84 53 -139 61 q239 271 348 727 Z" /><glyph glyph-name="" unicode="&#x67b6;" d="M274 510 l672 0 l0 45 q2 96 -12 182 l156 -20 q24 -2 24 -9.5 q0 -7.5 -27 -23.5 q-26 -18 -26 -129 l0 -45 l682 0 q84 -2 166 12 l0 -127 q-78 15 -164 13 l-567 0 q338 -375 745 -478 q-86 -55 -111 -127 q-462 213 -751 560 l0 -500 q-2 -99 12 -170 l-139 0 q14 82 12 170 l0 479 q-297 -328 -727 -532 q-31 75 -113 110 q406 123 734 488 l-566 0 q-92 2 -163 -13 l0 127 q41 -14 163 -12 ZM901 1262 l-274 0 q-47 -381 -371 -633 q-47 61 -131 92 q319 135 381 541 l-152 0 q-67 2 -164 -13 l0 127 q80 -14 164 -12 l164 0 q1 30 1 69 q0 88 -7 171 l154 -21 q20 -2 20 -8 q0 -6 -18 -19 q-21 -12 -27 -45 q-4 -28 -6 -147 l209 0 q69 -2 182 12 q-14 -119 -22 -288 q-9 -254 -62 -306 q-41 -63 -252 -75 q0 67 -69 163 q94 -30 148 -30 q31 0 50 10 q53 20 64 143 q14 127 18 269 ZM1802 756 q-100 14 -166 12 l-278 0 q-58 0 -156 -12 q15 88 12 151 l0 359 q0 69 -12 157 q94 -14 156 -12 l278 0 q88 -2 166 12 q-14 -82 -12 -157 l0 -361 q-2 -69 12 -149 ZM1329 1309 l0 -439 l346 0 l0 439 l-346 0 Z" /><glyph glyph-name="" unicode="&#x67e5;" d="M61 739 q439 109 826 451 l-527 0 q-75 -2 -176 -12 l0 127 q95 -11 174 -13 l625 0 l0 101 q-2 71 -12 186 l155 -20 q9 -6 9 -15 q0 -13 -17 -31 q-20 -18 -20 -126 l0 -95 l610 0 q86 2 168 13 l0 -127 q-84 10 -168 12 l-485 0 q297 -356 733 -399 q-80 -68 -92 -142 q-510 172 -766 518 l0 -235 q2 -78 12 -170 l-139 0 q10 92 12 170 l0 201 q-283 -279 -799 -517 q-28 68 -123 123 ZM1894 -131 l0 -127 q-92 10 -163 12 l-1436 0 q-78 -2 -164 -12 l0 127 q86 -10 164 -12 l1431 0 q78 2 168 12 ZM449 14 q10 84 12 160 l0 358 q-2 74 -12 170 q98 -10 176 -12 l798 0 q78 2 172 12 q-10 -90 -12 -163 l0 -361 q2 -63 12 -164 q-88 11 -172 13 l-794 0 q-80 -2 -180 -13 ZM575 129 l893 0 l0 184 l-893 0 l0 -184 ZM575 588 l0 -172 l893 0 l0 172 l-893 0 Z" /><glyph glyph-name="" unicode="&#x6807;" d="M682 -4 q246 244 340 543 l154 -68 q14 -6 12 -16 q-4 -9 -23 -13 q-47 -14 -80 -82 q-88 -182 -247 -415 q-72 41 -156 51 ZM1927 899 l0 -127 q-61 12 -164 12 l-344 0 l0 -901 q0 -131 -104 -155 q-66 -17 -166 -21 q-29 -2 -41 -2 q-6 90 -55 154 q121 -19 153 -19 q101 -7 101 63 q0 6 -2 19 l0 862 l-310 0 q-118 0 -166 -12 l0 127 q50 -12 166 -12 l764 0 q115 0 168 12 ZM1802 1425 l0 -127 q-67 13 -166 13 l-565 0 q-102 0 -164 -13 l0 127 q56 -10 164 -12 l563 0 q115 0 168 12 ZM1546 465 l94 78 q242 -287 351 -506 l-105 -82 q-119 272 -340 510 ZM436 971 l-155 0 q-105 0 -164 -13 l0 127 q53 -12 164 -12 l172 0 l0 340 q0 103 -13 154 l156 -19 q25 -2 25 -8 q2 -6 -19 -20 q-37 -21 -35 -136 l0 -311 l133 0 q101 0 166 12 l0 -127 q-63 13 -164 13 l-135 0 l0 -135 q121 -84 299 -258 l-84 -111 q-100 139 -215 227 l0 -815 q0 -117 13 -182 l-140 0 q13 72 13 180 l0 799 q-121 -301 -224 -481 q-45 41 -157 45 q223 237 364 731 Z" /><glyph glyph-name="" unicode="&#x6808;" d="M872 451 l-36 139 q110 2 192 16 l225 47 q-16 127 -30 295 l-129 -20 q-90 -15 -160 -37 l-21 135 q29 -2 56 -2 q55 0 106 8 l139 21 q0 47 -4 174 q-4 127 -6 172 q-4 135 -14 205 l164 -15 q24 -2 26 -12 q0 -12 -22 -27 q-35 -22 -33 -129 q2 -69 6 -225 q2 -90 2 -127 l336 57 q84 17 166 43 l23 -139 q-18 1 -42 1 q-56 0 -118 -7 l-357 -55 q13 -133 31 -287 l408 86 q78 18 147 49 l29 -139 q-20 1 -40 1 q-60 0 -120 -9 l-407 -88 q24 -185 86 -353 q167 162 258 338 l122 -100 q21 -16 19 -25.5 q-2 -9.5 -29 -11.5 q-47 -8 -100 -72 q-113 -135 -219 -239 q133 -242 284 -258 q39 21 39 135 q0 39 -4 84 q68 -60 140 -66 q-39 -270 -113 -286 q-28 -8 -57 -8 q-180 0 -385 317 q-279 -195 -558 -281 q-22 80 -98 135 q305 29 600 252 q-67 199 -106 410 l-217 -47 q-84 -19 -179 -55 ZM1538 1575 q137 -129 236 -248 l-88 -98 q-97 141 -232 252 l84 94 ZM451 1026 l-158 0 q-70 -2 -164 -12 l0 131 q98 -10 164 -12 l184 0 l0 297 q-2 71 -12 167 l153 -20 q15 -2 13 -14 q0 -11 -17 -21 q-28 -8 -26 -129 l0 -280 l100 0 q76 2 166 12 l0 -131 q-94 10 -164 12 l-102 0 l0 -117 q139 -108 262 -239 l-94 -115 q-80 127 -168 205 l0 -883 q2 -72 12 -176 l-135 0 q10 100 12 176 l0 862 q-121 -293 -260 -503 q-78 32 -147 45 q268 288 381 745 Z" /><glyph glyph-name="" unicode="&#x680f;" d="M1952 -63 l0 -123 q-88 10 -164 12 l-776 0 q-74 -2 -166 -12 l0 123 q94 -11 166 -13 l774 0 q78 2 166 13 ZM1556 1055 l185 0 q71 2 164 12 l0 -127 q-88 10 -164 12 l-631 0 q-72 -2 -166 -12 l0 127 q94 -10 166 -12 l330 0 q151 256 209 487 l147 -76 q14 -8 14 -16 q-2 -10 -20 -16 q-45 -15 -78 -86 q-61 -131 -156 -293 ZM1032 1509 q156 -168 279 -327 l-101 -82 q-118 168 -268 332 l90 77 ZM1008 461 l0 127 q86 -10 168 -12 l497 0 q76 2 162 12 l0 -127 q-88 10 -162 12 l-497 0 q-72 -2 -168 -12 ZM481 981 l-166 0 q-75 -2 -161 -12 l0 127 q90 -11 161 -13 l177 0 l0 349 q-3 71 -13 176 l154 -21 q14 -6 14 -15 q0 -10 -16 -24 q-25 -14 -25 -127 l0 -338 l66 0 q73 2 166 13 l0 -127 q-93 10 -164 12 l-68 0 l0 -121 q137 -139 254 -278 l-102 -90 q-58 104 -152 206 l0 -827 q2 -86 12 -182 l-139 0 q10 98 13 182 l0 825 q-130 -272 -267 -481 q-53 43 -143 64 q213 172 399 702 Z" /><glyph glyph-name="" unicode="&#x6846;" d="M868 1462 q99 -12 176 -12 l713 0 q90 0 172 12 l0 -127 q-86 13 -172 13 l-766 0 l0 -1430 l813 0 q78 0 181 8 l0 -123 q-105 13 -181 13 l-772 0 q-74 0 -164 -13 q13 84 13 152 l0 1343 q0 78 -13 164 ZM1419 721 l0 315 l-166 0 q-67 0 -166 -12 l0 127 q82 -12 166 -12 l449 0 q78 0 166 12 l0 -127 q-82 12 -166 12 l-172 0 l0 -315 l119 0 q82 0 170 12 l0 -127 q-90 13 -170 13 l-119 0 l0 -363 l225 0 q86 0 174 12 l0 -127 q-92 13 -174 13 l-495 0 q-84 0 -177 -13 l0 127 q93 -12 177 -12 l159 0 l0 363 l-110 0 q-66 0 -164 -13 l0 127 q90 -12 164 -12 l110 0 ZM461 983 l-113 0 q-69 0 -170 -12 l0 127 q92 -13 170 -13 l127 0 l0 318 q0 84 -12 178 l160 -20 q22 -2 22 -8.5 q0 -6.5 -22 -18.5 q-37 -23 -37 -131 l0 -318 l28 0 q88 0 174 13 l0 -127 q-90 12 -174 12 l-28 0 l0 -100 q121 -121 233 -267 l-82 -86 q-63 113 -151 207 l0 -876 q0 -72 12 -193 l-135 0 q12 105 12 193 l0 841 q-125 -260 -264 -442 q-59 49 -129 80 q235 182 379 643 Z" /><glyph glyph-name="" unicode="&#x6848;" d="M1704 389 q-264 131 -563 217 q-316 -166 -813 -207 q-21 70 -68 144 q80 -6 147 -6 q116 0 226 16 q166 23 360 92 q-315 64 -456 84 q81 80 161 168 l-356 0 q-59 0 -160 -12 l0 127 q101 -13 160 -13 l434 0 q82 101 133 220 l150 -58 q16 -6 16 -12 q-2 -8 -18 -12 q-43 -15 -68 -41 q-47 -60 -80 -97 l795 0 q70 0 166 13 l0 -127 q-96 12 -166 12 l-285 0 q-80 -106 -184 -211 q321 -92 537 -182 l-68 -115 ZM758 795 q172 -33 342 -76 q108 76 186 178 l-446 0 q-37 -47 -82 -102 ZM846 190 l-490 0 q-51 0 -153 -12 l0 127 q96 -12 153 -12 l629 0 l0 49 q0 72 -12 158 l157 -27 q19 -2 19 -8 q2 -6 -14 -16 q-37 -29 -39 -111 l0 -45 l614 0 q62 0 156 12 l0 -127 q-90 12 -156 12 l-473 0 q262 -256 629 -323 q-74 -51 -113 -123 q-432 166 -657 444 l0 -327 q0 -66 12 -174 l-135 0 q12 106 12 174 l0 319 q-283 -311 -704 -454 q-33 82 -93 135 q351 22 658 329 ZM946 1571 q121 -80 223 -164 l-55 -59 l514 0 q62 0 162 12 q-14 -86 -12 -127 l0 -25 q0 -45 12 -131 l-135 0 q12 78 12 131 l0 37 l-1276 0 l0 -53 q0 -39 12 -127 l-135 0 q13 76 13 127 l0 41 q2 39 -13 127 q99 -12 164 -12 l619 0 q-80 65 -191 137 l86 86 Z" /><glyph glyph-name="" unicode="&#x6863;" d="M743 1354 l101 84 q209 -250 315 -416 l-102 -90 q-135 231 -314 422 ZM979 -80 l766 0 l0 361 l-692 0 q-52 0 -166 -13 l0 127 q106 -12 166 -12 l692 0 l0 328 l-756 0 q-69 0 -164 -13 l0 127 q105 -12 164 -12 l289 0 l0 625 q0 63 -10 155 l151 -18 q19 -2 19 -10.5 q0 -8.5 -17 -24.5 q-30 -24 -28 -129 l0 -598 l280 0 q76 -2 199 12 q-12 -104 -12 -180 l0 -784 q0 -74 12 -185 l-139 0 q10 82 12 146 l-766 0 q-66 0 -164 -12 l0 122 q92 -12 164 -12 ZM1446 1024 q196 209 313 446 l133 -100 q14 -9 14 -16 q0 -3 -1 -4 q-2 -6 -31 -13 q-47 -12 -78 -61 q-104 -156 -235 -324 q-54 37 -115 72 ZM426 987 l-127 0 q-68 0 -164 -12 l0 127 q94 -12 164 -12 l156 0 l0 352 q2 51 -13 158 l152 -21 q16 -2 16 -10 q0 -8 -16 -27 q-25 -24 -25 -127 l0 -325 l95 0 q71 0 167 12 l0 -127 q-94 12 -165 12 l-97 0 l0 -92 q172 -188 256 -307 l-100 -109 q-57 115 -156 238 l0 -854 q4 -101 11 -187 l-142 0 q2 21 13 132 q4 53 4 55 l0 850 q-109 -244 -228 -443 q-67 47 -166 60 q238 221 365 657 Z" /><glyph glyph-name="" unicode="&#x6a21;" d="M1262 438 l127 -24 q41 -8 45 -13 q1 -1 1 -3 q0 -5 -20 -15 q-22 -12 -37 -68 q-2 -4 -2 -16 q-2 -10 -2 -16 l422 0 q90 0 166 12 l0 -127 q-88 12 -166 12 l-342 0 q129 -272 522 -362 q-65 -47 -110 -133 q-387 172 -527 477 q-100 -277 -553 -473 q-36 75 -98 129 q422 100 524 362 l-327 0 q-76 0 -164 -12 l0 127 q88 -12 164 -12 l364 0 q17 75 13 155 ZM907 436 q13 74 13 156 l0 313 q0 64 -13 160 q107 -12 178 -12 l555 0 q84 0 172 12 q-12 -92 -12 -156 l0 -317 q0 -80 12 -156 q-79 13 -163 13 l-574 0 q-74 0 -168 -13 ZM1030 709 l0 -162 l660 0 l0 162 l-660 0 ZM1030 807 l660 0 l0 147 l-660 0 l0 -147 ZM975 1335 l125 0 l0 31 q0 82 -13 182 l154 -20 q27 -2 27 -9.5 q0 -7.5 -25 -19.5 q-35 -10 -33 -133 l0 -31 l258 0 l0 47 q0 82 -12 187 l152 -21 q26 -2 28 -8 q2 -6 -20 -18 q-39 -9 -37 -140 l0 -47 l197 0 q82 0 168 13 l0 -127 q-80 12 -168 12 l-197 0 q0 -55 12 -129 l-135 0 q12 74 12 129 l-258 0 q0 -66 13 -133 l-136 0 q13 63 13 133 l-125 0 q-82 0 -180 -12 l0 127 q112 -13 180 -13 ZM406 999 l-78 0 q-74 0 -183 -12 l0 127 q101 -12 183 -12 l106 0 l0 287 q0 84 -12 182 l151 -21 q27 -2 29 -8 q2 -4 -20 -18 q-39 -19 -37 -135 l0 -287 l39 0 q88 0 186 12 l0 -127 q-92 12 -186 12 l-39 0 l0 -112 q123 -111 270 -258 l-100 -101 q-72 109 -170 209 l0 -846 q0 -81 12 -194 l-135 0 q12 104 12 194 l0 830 q-110 -260 -233 -469 q-62 47 -138 74 q213 217 343 673 Z" /><glyph glyph-name="" unicode="&#x6b22;" d="M72 45 q235 152 413 531 q-118 182 -292 403 l88 68 q147 -183 262 -334 q75 213 108 538 l-340 0 q-53 0 -172 -12 l0 127 q105 -12 172 -12 l342 0 q72 0 154 10 q-19 -61 -33 -166 q-47 -323 -151 -596 q125 -186 233 -373 l-115 -86 q-102 209 -176 320 q-162 -301 -350 -498 q-72 55 -143 80 ZM575 -199 q396 156 566 498 q94 205 96 418 q0 78 -12 168 l168 -17 q22 -2 24 -8 q2 -8 -12 -22 q-49 -41 -45 -136 q0 -155 49 -266 q221 -465 573 -614 q-90 -55 -139 -115 q-381 281 -534 715 q-121 -438 -598 -727 q-43 59 -136 106 ZM760 705 q299 311 383 884 l162 -45 q26 -8 24 -18 q0 -10 -26 -27 q-37 -20 -60 -92 q-12 -41 -41 -131 q-26 -84 -41 -129 l572 0 l4 0 q63 6 170 10 q-86 -229 -158 -403 q-55 20 -137 20 q65 121 117 270 l-607 0 q-88 -210 -209 -387 q-63 39 -153 48 Z" /><glyph glyph-name="" unicode="&#x6bb5;" d="M78 129 q86 8 194 33 l0 1071 q2 115 -12 217 q225 14 539 152 l102 -123 q18 -21 18 -29 q0 -1 -1.5 -3.5 q-1.5 -2.5 -6.5 -2.5 q-7 0 -30 4 q-15 3 -30 3 q-32 0 -83 -11 q-154 -31 -381 -72 l0 -311 l260 0 q58 -2 152 12 l0 -127 q-101 12 -156 12 l-256 0 l0 -299 l246 0 q57 -2 166 13 l0 -127 q-111 14 -164 12 l-248 0 l0 -369 q326 72 494 140 l-15 -140 q-243 -53 -479 -118 l0 -166 q0 -82 12 -193 l-139 0 q12 119 12 201 l0 117 q-75 -25 -139 -52 l-55 156 ZM1286 141 q-149 187 -252 437 q-53 0 -137 -13 l0 129 q100 -14 166 -12 l539 0 q73 -2 180 12 q-142 -307 -334 -553 q240 -198 520 -288 q-90 -70 -115 -129 q-311 167 -481 337 q-237 -215 -559 -348 q-31 72 -106 129 q327 58 579 299 ZM1583 580 l-428 0 q72 -189 209 -357 q135 156 219 357 ZM823 875 q258 68 258 461 q0 86 -12 186 q96 -13 156 -13 l276 0 q53 0 146 13 q-15 -76 -13 -144 l0 -327 q-9 -100 115 -100 q69 0 182 32 q-33 -88 -41 -149 q-71 -6 -135 -6 q-115 0 -162 24 q-75 33 -73 160 l0 395 l-320 0 q-4 -264 -55 -381 q-49 -129 -201 -258 q-41 61 -121 107 Z" /><glyph glyph-name="" unicode="&#x6cd5;" d="M125 887 l80 100 q149 -100 327 -244 l-79 -102 q-142 129 -328 246 ZM135 -192 q230 292 395 675 q35 -57 91 -112 q-285 -484 -355 -670 l-131 107 ZM260 1376 l90 99 q182 -134 328 -265 l-86 -104 q-148 143 -332 270 ZM791 684 l389 0 l0 395 l-269 0 q-75 0 -176 -12 l0 127 q103 -12 176 -12 l269 0 l0 180 q0 82 -13 205 l164 -25 q25 -2 25 -14 q0 -10 -23 -29 q-39 -31 -39 -137 l0 -180 l326 0 q86 0 172 12 l0 -127 q-88 12 -172 12 l-326 0 l0 -395 l467 0 q86 0 168 12 l0 -127 q-78 13 -168 13 l-575 0 l119 -74 q16 -10 14 -16 q0 -7 -23 -13 q-32 -6 -75 -73 q-160 -236 -342 -484 q350 12 733 39 q-111 166 -250 344 l111 72 q182 -252 391 -565 l-111 -80 q-33 67 -84 137 q-645 -31 -946 -92 l-64 141 q68 4 113 53 q289 351 389 611 l-370 0 q-82 0 -168 -13 l0 127 q100 -12 168 -12 Z" /><glyph glyph-name="" unicode="&#x6d45;" d="M98 936 l72 111 q201 -113 358 -224 l-82 -114 q-141 123 -348 227 ZM469 541 q49 -66 92 -97 q-108 -235 -301 -688 q-55 52 -143 88 q182 222 352 697 ZM244 1456 l75 103 q201 -121 363 -242 l-76 -111 q-155 140 -362 250 ZM811 580 l301 55 q-22 127 -39 317 l-215 -45 q-110 -22 -186 -47 l-25 133 q113 8 178 21 l240 43 q-12 139 -14 342 q-2 131 -15 229 l168 -26 q25 -5 27 -15 q2 -8 -21 -26 q-43 -31 -41 -146 q0 -151 13 -338 l395 68 q88 16 190 51 l15 -139 q-82 -4 -183 -23 l-407 -65 q8 -150 37 -312 l422 82 q92 19 190 56 l12 -140 q-98 -4 -176 -20 l-432 -80 q35 -178 101 -328 q190 162 305 340 l121 -110 q14 -15 10 -21 q-4 -8 -27 -10 q-41 0 -106 -68 q-117 -116 -254 -235 q172 -258 323 -297 q62 2 80 221 q70 -63 144 -82 q-68 -176 -107 -223 q-39 -53 -111 -53 q-196 28 -419 356 q-267 -182 -584 -285 q-31 66 -98 125 q329 45 630 265 q-73 157 -123 385 l-305 -68 q-80 -16 -178 -49 l-31 141 q113 6 195 21 ZM1307 1477 l90 90 q137 -121 248 -242 l-93 -94 q-108 139 -245 246 Z" /><glyph glyph-name="" unicode="&#x6d4f;" d="M119 903 l63 103 q164 -91 307 -187 l-67 -112 q-143 112 -303 196 ZM485 418 q-120 -375 -194 -705 l-162 60 q123 215 250 751 l106 -106 ZM215 1411 l72 96 q145 -90 288 -215 l-73 -102 q-140 129 -287 221 ZM416 -90 q303 125 495 508 q-190 268 -342 416 l99 79 q151 -180 297 -372 q67 243 71 501 l-354 0 q-64 2 -143 -12 l0 127 q73 -14 131 -12 l540 0 q60 -2 127 12 l0 -127 q-69 14 -131 12 l-53 0 q-20 -372 -106 -610 q131 -170 268 -373 q-64 -43 -111 -96 q-96 182 -211 348 q-133 -268 -432 -485 q-53 43 -145 84 ZM760 1468 l98 58 q78 -99 197 -283 l-101 -76 q-90 164 -194 301 ZM1389 1321 l149 -21 q25 -2 25 -12 q0 -10 -25 -33 q-25 -26 -27 -143 l0 -780 q-2 -72 13 -139 l-135 0 q14 75 12 137 l0 805 q2 112 -12 186 ZM1532 -317 q-10 79 -57 151 q93 -8 139 -8 q43 0 61 6 q43 6 39 62 l0 1513 q2 115 -12 186 l160 -20 q18 -2 18 -11.5 q0 -9.5 -18 -29.5 q-37 -25 -33 -148 l0 -1540 q4 -92 -51 -116 q-49 -31 -246 -45 Z" /><glyph glyph-name="" unicode="&#x6df1;" d="M90 985 l86 98 q184 -147 318 -272 l-86 -109 q-146 158 -318 283 ZM133 -113 q166 207 379 732 q31 -62 84 -119 q-164 -342 -330 -713 l-133 100 ZM242 1434 l96 92 q186 -158 303 -269 l-96 -88 q-144 148 -303 265 ZM838 684 l350 0 l0 98 q0 95 -12 199 l159 -23 q21 -2 21 -8 q0 -6 -21 -20 q-37 -8 -32 -148 l0 -98 l432 0 q90 0 178 12 l0 -127 q-88 13 -178 13 l-369 0 q211 -406 608 -557 q-82 -45 -139 -117 q-350 235 -532 559 l0 -557 q0 -90 12 -203 l-139 0 q12 107 12 203 l0 557 q-264 -365 -567 -559 q-56 57 -127 110 q348 132 624 564 l-280 0 q-78 0 -183 -13 l0 127 q105 -12 183 -12 ZM670 875 q235 159 360 401 l137 -90 q17 -10 13 -21 q-4 -8 -27 -10 q-37 0 -70 -43 q-151 -186 -299 -317 q-65 49 -114 80 ZM1329 1151 l86 86 q193 -141 357 -291 l-91 -94 q-159 162 -352 299 ZM719 1475 q98 -13 174 -13 l797 0 q90 0 172 13 q-13 -91 -13 -148 l0 -20 q0 -84 13 -179 l-140 0 q13 99 13 179 l0 53 l-889 0 l0 -74 q0 -82 12 -174 l-139 0 q12 109 12 174 l0 31 q0 65 -12 158 Z" /><glyph glyph-name="" unicode="&#x6e05;" d="M92 911 l74 93 q168 -117 305 -240 l-78 -100 q-131 139 -301 247 ZM137 -145 q166 209 371 727 q33 -54 82 -99 q-219 -446 -326 -727 q-78 68 -127 99 ZM309 1532 q166 -127 307 -262 l-84 -101 q-129 144 -303 273 l80 90 ZM569 764 l0 123 q86 -12 158 -12 l469 0 l0 153 l-289 0 q-59 0 -149 -12 l0 119 q88 -13 149 -13 l289 0 l0 154 l-346 0 q-68 0 -152 -12 l0 123 q90 -13 152 -13 l346 0 l0 72 q0 63 -12 156 l153 -23 q21 -2 23 -12 q4 -8 -12 -25 q-37 -43 -37 -110 l0 -58 l370 0 q66 0 158 13 l0 -123 q-84 12 -153 12 l-375 0 l0 -154 l297 0 q67 0 147 13 l0 -119 q-76 12 -147 12 l-297 0 l0 -153 l475 0 q82 0 176 12 l0 -123 q-90 12 -176 12 l-1059 0 q-63 2 -158 -12 ZM891 -326 l-139 0 q12 97 12 172 l0 631 q0 62 -12 174 q106 -12 182 -12 l649 0 q74 -2 172 12 q-12 -102 -12 -170 l0 -592 q4 -122 -47 -153 q-41 -35 -242 -53 q-10 73 -47 147 q92 -13 136 -13 q28 0 44 5 q43 10 41 67 l0 148 l-749 0 l0 -191 q0 -73 12 -172 ZM879 131 l749 0 l0 160 l-749 0 l0 -160 ZM879 545 l0 -160 l749 0 l0 160 l-749 0 Z" /><glyph glyph-name="" unicode="&#x6e90;" d="M80 -188 q196 299 352 747 q35 -67 92 -133 q-190 -416 -313 -700 l-131 86 ZM100 918 l68 98 q186 -121 356 -250 l-73 -102 q-162 135 -351 254 ZM227 1421 l82 99 q187 -119 357 -252 l-84 -97 q-185 150 -355 250 ZM721 1473 q121 -13 205 -13 l843 0 q95 0 183 13 l0 -132 q-92 13 -183 13 l-350 0 l92 -49 q17 -9 13 -15 q-4 -6 -29 -12 q-43 -10 -70 -55 q-20 -33 -69 -107 q-6 -6 -8 -10 l278 0 q94 0 197 12 q-13 -104 -13 -194 l0 -355 q0 -84 13 -188 q-94 12 -193 12 l-172 0 l0 -516 q4 -102 -53 -133 q-55 -37 -240 -51 q-12 80 -63 164 q91 -24 147 -24 q98 0 90 73 l0 487 l-159 0 q-84 0 -197 -12 q12 96 12 188 l0 357 q0 82 -12 192 q113 -12 199 -12 l43 0 q67 125 112 248 l-485 0 l0 -393 q2 -496 -64 -756 q-59 -262 -233 -496 q-72 49 -154 76 q193 172 261 420 q73 244 71 737 l0 332 q0 90 -12 199 ZM1114 500 l578 0 l0 194 l-578 0 l0 -194 ZM1114 999 l0 -198 l578 0 l0 198 l-578 0 ZM754 -127 q186 119 313 424 l125 -64 q35 -16 35 -24 q2 -8 -27 -19 q-49 -12 -98 -100 q-86 -149 -213 -295 q-55 41 -135 78 ZM1554 188 l97 80 q164 -174 313 -356 l-106 -88 q-156 207 -304 364 Z" /><glyph glyph-name="" unicode="&#x73b0;" d="M532 -188 q416 151 584 491 q134 266 134 693 q0 119 -9 237 l168 -31 q29 -4 29 -10 q2 -6 -21 -23 q-43 -24 -43 -114 q-4 -234 -39 -506 l127 -21 q25 -4 25 -14 q0 -8 -23 -25 q-32 -14 -30 -98 l0 -399 q-9 -98 88 -103 q43 -6 118 -4 q66 2 86 11 q111 24 103 235 q67 -51 147 -70 q-63 -258 -233 -280 q-49 -11 -115 -11 q-60 0 -133 9 q-188 12 -176 164 l0 553 q-113 -492 -631 -791 q-51 57 -156 107 ZM1620 1409 l-582 0 l0 -795 q0 -79 13 -186 l-140 0 q13 100 13 186 l0 750 q0 70 -13 164 q95 -12 179 -12 l462 0 q93 0 195 12 q-12 -90 -12 -170 l0 -713 q0 -86 12 -192 l-139 0 q12 98 12 192 l0 764 ZM616 1331 l-112 0 l0 -448 l74 0 q94 0 184 12 l0 -131 q-92 12 -184 12 l-74 0 l0 -538 q153 49 295 120 q-11 -63 -19 -157 q-413 -140 -628 -252 l-86 166 q122 2 323 84 l0 577 l-67 0 q-80 0 -179 -12 l0 131 q105 -12 179 -12 l67 0 l0 448 l-113 0 q-75 0 -178 -12 l0 131 q107 -12 178 -12 l340 0 q89 0 175 12 l0 -131 q-93 12 -175 12 Z" /><glyph glyph-name="" unicode="&#x7528;" d="M590 1495 l1032 0 q84 0 188 12 q-12 -118 -12 -196 l0 -1377 q2 -108 -65 -145 q-64 -39 -271 -49 q-10 78 -57 154 q107 -15 168 -15 q39 0 57 6 q56 13 53 84 l0 459 l-520 0 l0 -373 q0 -69 13 -166 l-144 0 q12 101 12 166 l0 373 l-520 0 q-12 -403 -245 -733 q-58 53 -150 84 q295 235 283 833 l0 703 q0 82 -13 192 q99 -12 191 -12 ZM526 881 l0 -351 l518 0 l0 351 l-518 0 ZM526 1393 l0 -410 l518 0 l0 410 l-518 0 ZM1163 881 l0 -351 l520 0 l0 351 l-520 0 ZM1163 1393 l0 -410 l520 0 l0 410 l-520 0 Z" /><glyph glyph-name="" unicode="&#x7684;" d="M920 858 q258 246 350 733 l147 -51 q29 -10 25 -18 q0 -11 -33 -35 q-29 -19 -47 -72 q-51 -145 -100 -262 l409 0 q74 0 172 12 q-12 -129 -12 -211 l-10 -948 q2 -166 -84 -225 q-82 -66 -342 -92 q-9 75 -62 157 q73 -7 131 -7 q106 0 158 24 q80 35 80 149 l16 1039 l-497 0 q-74 -140 -154 -263 q-76 44 -147 70 ZM1147 639 l98 82 q160 -166 322 -375 l-113 -86 q-135 209 -307 379 ZM354 -256 l-131 0 q13 125 13 184 l0 1024 q0 76 -13 203 q80 -12 162 -12 q86 225 121 436 l145 -39 q31 -8 31 -18 q2 -13 -25 -29 q-39 -25 -57 -82 q-49 -137 -100 -268 l223 0 q88 0 186 12 q-12 -123 -12 -203 l0 -977 q0 -67 12 -170 l-137 0 q10 64 12 117 l-442 0 q0 -69 12 -178 ZM346 483 l0 -458 l440 0 l0 458 l-440 0 ZM346 1040 l0 -458 l440 0 l0 458 l-440 0 Z" /><glyph glyph-name="" unicode="&#x76ee;" d="M1495 -43 l-946 0 q0 -96 12 -203 l-139 0 q12 115 12 203 l0 1317 q0 84 -12 188 q113 -12 203 -12 l800 0 q103 0 197 12 q-12 -110 -12 -188 l0 -1247 q0 -105 12 -222 l-139 0 q12 89 12 152 ZM549 1348 l0 -359 l946 0 l0 359 l-946 0 ZM549 887 l0 -363 l946 0 l0 363 l-946 0 ZM549 422 l0 -363 l946 0 l0 363 l-946 0 Z" /><glyph glyph-name="" unicode="&#x7840;" d="M68 557 q290 227 333 672 l-94 0 q-53 0 -170 -12 l0 127 q125 -13 170 -13 l326 0 q37 0 174 13 l0 -127 q-125 12 -174 12 l-105 0 q-49 -268 -116 -418 l163 0 q56 0 207 12 q-10 -118 -12 -184 l0 -494 q2 -67 12 -178 l-135 0 q8 64 12 162 l-231 0 l0 -47 q0 -59 12 -178 l-135 0 q12 131 12 178 l0 559 q-57 -90 -116 -160 q-51 41 -133 76 ZM428 713 l0 -486 l231 0 l0 486 l-231 0 ZM1036 365 l0 -416 l305 16 l0 803 l-200 0 q-68 0 -183 -14 q5 75 11 184 l0 281 q0 77 -13 200 l158 -20 q16 -2 18.5 -10.5 q2.5 -8.5 -12.5 -16.5 q-39 -31 -41 -145 l0 -365 l262 0 l0 527 q-2 77 -12 198 l162 -22 q16 -2 18 -9 q0 -6 -14 -16 q-41 -27 -39 -143 l0 -535 l264 0 l0 352 q-2 80 -10 201 l158 -22 q18 -2 20 -8.5 q2 -6.5 -14 -16.5 q-41 -20 -39 -145 l0 -285 q2 -33 10 -184 q-110 14 -174 14 l-215 0 l0 -801 l318 19 l0 395 q0 68 -13 199 l160 -23 q16 -2 18.5 -8 q2.5 -6 -12.5 -17 q-41 -22 -39 -145 l0 -469 q2 -59 13 -190 l-140 0 q8 65 13 163 q-562 -30 -861 -57 q13 123 13 186 l0 334 q0 68 -13 203 l156 -22 q18 -3 18 -9 q3 -6 -12 -16 q-43 -23 -39 -145 Z" /><glyph glyph-name="" unicode="&#x79bb;" d="M305 1348 l830 0 q-129 100 -297 180 l80 90 q169 -86 309 -176 l-78 -94 l604 0 q78 2 164 12 l0 -123 q-92 10 -164 12 l-1448 0 q-67 -2 -166 -12 l0 123 q99 -10 166 -12 ZM317 463 q103 -10 183 -12 l389 0 q53 90 78 176 l-381 0 q-76 -2 -178 -13 q10 99 12 164 l0 164 q-2 80 -12 176 l155 -20 q12 -4 12 -12 q0 -11 -20 -31 q-27 -17 -25 -125 l0 -205 l1016 0 l0 256 q-2 80 -12 174 l156 -20 q15 -6 15 -15 q0 -10 -15 -24 q-35 -23 -33 -125 l0 -195 q2 -78 12 -162 q-90 11 -172 13 l-479 0 l88 -39 q20 -10 20 -19.5 q0 -9.5 -20 -19.5 q-43 -17 -90 -98 l598 0 q82 2 178 12 q-10 -94 -12 -172 l0 -393 q4 -123 -64 -158 q-63 -41 -291 -55 q-14 102 -47 153 q103 -11 159 -11 q53 0 77 9 q55 12 51 88 l0 428 l-694 0 q-80 -135 -162 -252 q229 15 438 37 q-39 62 -100 131 l108 52 q119 -154 230 -314 l-107 -84 q-30 62 -75 127 q-586 -63 -648 -94 l-57 137 q102 23 158 115 q43 69 86 145 l-398 0 l0 -491 q2 -78 13 -172 l-140 0 q11 98 13 172 l0 428 q-2 80 -13 174 ZM645 864 q176 35 320 111 q-166 65 -312 110 l52 101 q96 -39 333 -129 q25 -10 37 -15 q142 80 262 197 l107 -94 q9 -9 9 -16 q0 -2 -2.5 -7.5 q-2.5 -5.5 -20.5 -5.5 q-39 0 -80 -24 q-72 -45 -162 -99 q133 -51 264 -110 l-57 -111 q-101 62 -312 150 q-192 -111 -362 -164 q-14 43 -76 106 Z" /><glyph glyph-name="" unicode="&#x7ad9;" d="M88 49 q191 27 416 101 q139 456 168 786 l168 -49 q24 -8 24 -19 q2 -10 -20 -22 q-47 -27 -72 -123 q-82 -315 -154 -541 q193 72 261 103 q-21 -66 -17 -144 q-530 -155 -688 -237 l-86 145 ZM907 1151 l0 -131 q-96 10 -166 12 l-442 0 q-74 -2 -168 -12 l0 131 q94 -10 168 -12 l442 0 q68 2 166 12 ZM293 850 q102 -272 166 -553 l-127 -55 q-51 280 -158 559 l119 49 ZM449 1548 q129 -198 194 -331 l-119 -70 q-84 180 -188 340 l113 61 ZM1769 1079 l-380 0 l0 -411 l270 0 q80 2 184 12 q-10 -92 -12 -176 l0 -613 q2 -79 12 -174 l-139 0 q10 91 12 162 l-653 0 l0 -16 q2 -76 12 -170 l-139 0 q10 98 12 170 l0 637 q-2 78 -12 180 q111 -10 192 -12 l142 0 l0 764 q-2 77 -13 178 l164 -21 q15 -2 15 -14 q0 -10 -17 -23 q-33 -16 -30 -147 l0 -219 l378 0 q76 2 168 12 l0 -131 q-100 10 -166 12 ZM1063 565 l0 -588 l653 0 l0 588 l-653 0 Z" /><glyph glyph-name="" unicode="&#x7ae0;" d="M272 971 l484 0 q-72 100 -168 200 l76 62 l-209 0 q-74 -2 -170 -12 l0 131 q102 -11 170 -13 l612 0 q-92 64 -279 174 l80 107 q168 -96 316 -195 l-72 -86 l541 0 q76 2 166 13 l0 -131 q-97 10 -166 12 l-283 0 l117 -55 q20 -11 20 -23 q-2 -10 -22 -14 q-45 -2 -113 -84 q-57 -66 -76 -86 l494 0 q78 2 164 12 l0 -131 q-88 10 -164 12 l-1518 0 q-75 -2 -166 -12 l0 131 q93 -10 166 -12 ZM1337 1233 l-649 0 q111 -119 193 -217 l-58 -45 l346 0 q158 209 168 262 ZM416 186 q10 101 12 168 l0 226 q-2 75 -12 176 q116 -11 186 -13 l862 0 q80 2 187 13 q-11 -99 -13 -172 l0 -226 q2 -82 13 -172 q-95 11 -183 13 l-376 0 l0 -146 l663 0 q80 2 162 13 l0 -132 q-86 11 -162 13 l-663 0 l0 -115 q2 -76 12 -176 l-139 0 q10 106 12 176 l0 115 l-672 0 q-69 -2 -176 -13 l0 132 q107 -11 176 -13 l672 0 l0 146 l-377 0 q-65 -2 -184 -13 ZM1528 301 l0 117 l-989 0 l0 -117 l989 0 ZM1528 520 l0 121 l-989 0 l0 -121 l989 0 Z" /><glyph glyph-name="" unicode="&#x7b14;" d="M283 203 l565 22 l0 217 q-80 -4 -270 -16 q-160 -10 -226 -14 q-37 -2 -84 -11 q-26 -2 -41 -4 l-14 138 q8 0 25 -3 q67 -10 124 -8 q95 2 347 13 q96 4 139 6 l0 207 q-242 -35 -572 -45 q-12 36 -43 110 q-10 25 -16 37 q144 -12 293 -12 q210 0 430 24 q354 43 526 133 l115 -131 q10 -10 10 -16 q0 -2 -3 -5 q-3 -3 -10 -3 q-7 0 -19 2 q-12 1 -24 1 q-39 0 -91 -9 q-174 -45 -481 -76 l0 -209 q26 2 102 4 q498 25 633 47 l-15 -137 q-14 0 -53 4 q-88 6 -108 4 q-72 -4 -205 -8 q-281 -12 -354 -16 l0 -218 q127 7 450 27 q162 8 225 12 q91 4 191 31 l-14 -143 q-31 2 -168 10 q-80 -4 -267 -12 q-301 -15 -417 -21 l0 -201 q-7 -118 131 -112 q415 0 524 12 q135 12 170 125 q18 49 29 137 q45 -49 131 -78 q-2 -4 -4 -12 q-19 -69 -35 -98 q-47 -117 -121 -156 q-78 -43 -236 -43 q-30 0 -110 0 q-76 -1 -182 -1 q-166 0 -242 5 q-172 11 -170 166 l0 250 q-129 -6 -457 -29 q-49 -2 -72 -4 q-79 -6 -147 -28 l-43 147 q115 -14 154 -12 ZM80 1036 q305 205 428 551 l166 -67 q8 -4 6 -13 q-2 -6 -12 -8 q-27 -4 -41 -24 q-21 -29 -62 -84 q-35 -50 -57 -80 l381 0 q86 0 135 12 l0 -127 q-55 12 -135 12 l-174 0 q78 -94 147 -194 l-117 -60 q-77 129 -180 254 l-125 0 q-92 -123 -227 -260 q-49 43 -133 88 ZM1264 1600 l161 -52 q13 -4 11 -12 q-2 -8 -17 -12 q-28 -13 -49 -54 q-24 -49 -84 -153 l498 0 q92 0 133 12 l0 -127 q-57 12 -133 12 l-223 0 q81 -88 145 -172 l-109 -73 q-96 145 -200 245 l-172 0 q-62 -120 -154 -237 q-41 37 -145 82 q258 223 338 541 Z" /><glyph glyph-name="" unicode="&#x7b26;" d="M72 403 q368 199 536 639 l150 -88 q18 -10 14 -20 q-2 -8 -24 -10 q-37 -11 -70 -64 q-53 -90 -90 -145 l0 -850 q0 -76 12 -180 l-139 0 q12 98 12 180 l0 704 q-106 -137 -280 -270 q-52 57 -121 104 ZM879 752 l585 0 l0 59 q0 96 -10 219 l162 -24 q22 -5 22 -13 q0 -10 -20 -24 q-37 -17 -35 -158 l0 -59 l205 0 q84 0 158 12 l0 -127 q-72 12 -158 12 l-205 0 l0 -745 q4 -142 -57 -174 q-53 -39 -285 -45 q-12 73 -51 159 q107 -16 168 -16 q37 0 55 6 q53 10 51 86 l0 729 l-585 0 q-66 0 -158 -12 l0 127 q92 -12 158 -12 ZM1085 176 q-112 129 -264 236 l86 96 q148 -117 273 -232 l-95 -100 ZM80 1049 q268 184 401 559 l150 -62 q20 -8 20 -14 q0 -6 -20 -16 q-25 -11 -45 -41 q-6 -11 -23 -33 q-14 -23 -22 -33 l327 0 q78 0 156 12 l0 -127 q-74 13 -156 13 l-168 0 q56 -84 125 -209 l-112 -62 q-66 138 -146 271 l-86 0 q-121 -181 -243 -334 q-72 51 -158 76 ZM1245 1626 l164 -72 q16 -6 14 -14 q-2 -6 -22 -14 q-35 -15 -58 -51 q-20 -35 -36 -58 l444 0 q84 0 156 13 l0 -127 q-70 12 -156 12 l-195 0 q68 -88 138 -193 l-103 -80 q-75 142 -170 273 l-168 0 q-61 -115 -174 -287 q-80 35 -176 51 q232 189 342 547 Z" /><glyph glyph-name="" unicode="&#x7b54;" d="M68 594 q505 55 911 588 l145 -80 q19 -10 17 -19 q-2 -6 -25 -14 q-4 -2 -45 -16 q402 -365 907 -396 q-77 -59 -96 -151 q-579 143 -891 479 q-276 -272 -432 -346 q88 -10 156 -10 l588 0 q75 2 180 12 l0 -127 q-115 10 -180 12 l-588 0 q-62 0 -178 -12 l0 111 q-134 -88 -381 -174 q-33 92 -88 143 ZM1583 381 q-12 -117 -12 -174 l0 -346 q2 -62 12 -174 l-133 0 q10 77 10 129 l-880 0 q0 -52 12 -144 l-135 0 q12 115 12 176 l0 355 q-2 71 -12 178 q118 -10 186 -12 l741 0 q62 0 199 12 ZM580 266 l0 -348 l880 0 l0 348 l-880 0 ZM100 1053 q273 221 404 557 l158 -70 q16 -8 14 -18 q-4 -11 -27 -15 q-37 -12 -69 -57 q-41 -66 -52 -80 l334 0 q53 0 168 12 l0 -127 q-115 13 -168 13 l-153 0 q53 -82 114 -191 q-61 -26 -112 -67 q-56 121 -144 258 l-104 0 q-123 -183 -217 -299 q-76 57 -146 84 ZM1325 1380 l369 0 q73 2 188 13 l0 -127 q-133 12 -188 12 l-160 0 q63 -88 152 -223 q-74 -43 -109 -72 q-107 170 -203 295 l-100 0 q-55 -86 -107 -147 q-67 47 -129 65 q179 150 254 424 l146 -66 q20 -8 18 -16 q0 -6 -20 -16 q-45 -21 -76 -78 q-6 -10 -17.5 -30.5 q-11.5 -20.5 -17.5 -33.5 Z" /><glyph glyph-name="" unicode="&#x7b7e;" d="M76 659 q598 89 891 482 l155 -78 q12 -6 12 -12 q0 -2 -2 -5.5 q-2 -3.5 -24 -9.5 q-29 -6 -59 -26 q419 -320 913 -353 q-61 -63 -92 -141 q-236 66 -393 133 l0 -96 q-101 12 -164 12 l-617 0 q-32 0 -116 -8 q-23 -2 -35 -4 l0 115 q-180 -82 -359 -150 q-41 80 -110 141 ZM975 954 q-178 -155 -408 -276 q68 -10 129 -10 l617 0 q53 0 104 8 q-248 115 -442 278 ZM1382 489 l158 -86 q19 -10 19 -22 q-3 -12 -23 -16 q-57 -15 -92 -72 q-117 -186 -256 -385 l446 0 q76 0 166 12 l0 -127 q-88 15 -166 12 l-1233 0 q-63 3 -172 -12 l0 127 q99 -12 172 -12 l664 0 q205 287 317 581 ZM989 481 q74 -151 121 -293 l-111 -47 q-49 158 -116 295 l106 45 ZM102 1081 q283 199 410 514 l147 -65 q21 -10 19 -19 q0 -10 -25 -18 q-49 -18 -75 -55 q-33 -47 -62 -84 l320 0 q55 0 163 10 l0 -125 q-108 14 -163 12 l-185 0 q76 -84 148 -184 l-109 -68 q-78 129 -178 252 l-61 0 q-95 -120 -207 -243 q-62 45 -142 73 ZM1274 1604 l149 -48 q19 -6 19 -14 q0 -8 -17 -14 q-39 -15 -61 -55 q-37 -66 -70 -115 l432 0 q76 0 170 12 l0 -127 q-104 12 -170 12 l-213 0 q76 -92 144 -194 l-111 -76 q-78 135 -182 270 l-125 0 q-47 -71 -94 -137 q-53 45 -125 76 q182 166 254 410 ZM573 424 q103 -158 179 -317 l-111 -68 q-76 174 -174 326 l106 59 Z" /><glyph glyph-name="" unicode="&#x7b97;" d="M453 291 q10 63 12 158 l0 475 q0 92 -12 159 q53 -12 149 -12 l852 0 q98 0 156 12 q-13 -53 -13 -159 l0 -475 q0 -107 13 -158 q-62 12 -156 12 l-94 0 l0 -125 l442 0 q92 0 133 12 l0 -126 q-49 12 -133 12 l-442 0 l0 -207 q0 -113 12 -160 l-139 0 q12 64 12 160 l0 207 l-448 0 q-52 -223 -504 -406 q-17 62 -88 140 q391 47 463 266 l-385 0 q-78 0 -138 -12 l0 126 q41 -12 142 -12 l409 0 q0 53 6 125 l-100 0 q-88 0 -149 -12 ZM1483 406 l0 129 l-903 0 l0 -129 l903 0 ZM580 748 l0 -115 l903 0 l0 115 l-903 0 ZM1483 846 l0 123 l-903 0 l0 -123 l903 0 ZM819 303 l-6 -125 l432 0 l0 125 l-426 0 ZM86 1085 q252 175 403 531 l148 -74 q18 -10 16 -18 q-4 -11 -26 -15 q-47 -8 -105 -110 l361 0 q88 0 133 12 l0 -127 q-47 12 -133 12 l-150 0 q55 -73 111 -155 l-107 -56 q-47 93 -139 211 l-143 0 q-136 -170 -254 -303 q-27 45 -115 92 ZM1260 1632 l147 -69 q16 -9 16 -13 q-2 -6 -20 -12 q-31 -12 -51 -41 q-15 -22 -52 -70 q-8 -12 -14 -20 l473 0 q86 0 133 12 l0 -127 q-55 13 -133 13 l-219 0 q53 -58 109 -131 l-93 -78 q-51 88 -155 209 l-184 0 q-60 -99 -146 -195 q-53 43 -121 72 q215 180 310 450 Z" /><glyph glyph-name="" unicode="&#x7c7b;" d="M106 -186 q648 73 771 440 l-568 0 q-94 0 -168 -10 l0 127 q162 -11 168 -11 l588 0 q10 53 10 111 q0 23 -2 53 l160 -20 q18 -4 20 -14.5 q2 -10.5 -14 -24.5 q-33 -25 -49 -105 l727 0 q127 5 164 11 l0 -127 q-98 10 -164 10 l-590 0 q266 -363 748 -403 q-84 -105 -105 -150 q-520 133 -786 553 l-15 0 q-83 -412 -798 -588 q-62 107 -97 148 ZM358 1073 l607 0 l0 334 q-2 82 -13 188 l152 -20 q12 -5 12 -14 q0 -10 -16 -27 q-23 -6 -21 -137 l0 -324 l607 0 q71 2 163 12 l0 -131 q-96 11 -163 13 l-607 0 l0 -37 q449 -176 672 -291 l-86 -127 q-211 156 -586 303 l0 -84 q2 -78 13 -170 l-140 0 q11 94 13 168 l0 203 q-367 -299 -707 -430 q-33 61 -111 137 q357 49 674 328 l-463 0 q-77 -2 -165 -13 l0 131 q90 -10 165 -12 ZM1159 1186 q234 192 326 352 l127 -98 q14 -13 10 -25 q-6 -10 -27 -12 q-49 -6 -86 -47 q-145 -162 -249 -250 q-50 43 -101 80 ZM471 1425 l88 84 q160 -159 277 -297 l-107 -86 q-113 162 -258 299 Z" /><glyph glyph-name="" unicode="&#x7cbe;" d="M932 686 q98 -12 176 -12 l557 0 q70 0 172 12 q-12 -106 -12 -168 l0 -651 q2 -123 -47 -156 q-41 -39 -217 -49 q-11 78 -66 152 q65 -9 108 -9 q47 0 66 11 q43 14 41 92 l0 127 l-651 0 l0 -187 q0 -77 12 -184 l-139 0 q12 109 12 184 l0 656 q0 72 -12 182 ZM1059 571 l0 -168 l651 0 l0 168 l-651 0 ZM1710 137 l0 164 l-651 0 l0 -164 l651 0 ZM1032 1417 l293 0 l0 47 q0 66 -12 172 l160 -20 q22 -2 22 -12 q2 -9 -14 -25 q-41 -39 -41 -115 l0 -47 l289 0 q71 0 167 13 l0 -127 q-90 12 -167 12 l-289 0 l0 -152 l223 0 q61 0 166 13 l0 -127 q-94 12 -166 12 l-223 0 l0 -150 l368 0 q80 0 168 13 l0 -127 q-90 12 -168 12 l-819 0 q-69 0 -168 -12 l0 127 q92 -13 168 -13 l336 0 l0 150 l-213 0 q-65 0 -168 -12 l0 127 q94 -13 168 -13 l213 0 l0 152 l-293 0 q-76 0 -166 -12 l0 127 q90 -13 166 -13 ZM68 211 q208 238 333 631 l-137 0 q-76 0 -168 -13 l0 127 q99 -12 168 -12 l168 0 l0 465 q0 86 -12 195 l162 -21 q26 -4 28 -14 q2 -10 -20 -31 q-45 -39 -43 -133 l0 -461 l71 0 q70 0 166 12 l0 -127 q-82 13 -166 13 l-71 0 l0 -84 q151 -119 291 -260 l-95 -90 q-90 106 -196 198 l0 -753 q0 -72 12 -185 l-139 0 q12 115 12 185 l0 751 q-96 -244 -221 -471 q-61 43 -143 78 ZM90 1317 l105 70 q110 -164 190 -312 l-111 -69 q-71 155 -184 311 ZM551 1069 q94 162 151 340 l119 -61 q23 -13 23 -21 q0 -8 -23 -18 q-33 -13 -55 -64 q-45 -106 -115 -241 q-35 36 -100 65 Z" /><glyph glyph-name="" unicode="&#x7d22;" d="M201 1090 q61 -13 161 -13 l615 0 l0 183 l-512 0 q-105 0 -168 -13 l0 127 q51 -12 168 -12 l512 0 l0 59 q0 111 -12 170 l159 -26 q25 -4 25 -11 q2 -6 -19 -22 q-38 -31 -38 -111 l0 -59 l501 0 q97 0 168 12 l0 -127 q-69 13 -168 13 l-501 0 l0 -183 l598 0 q104 0 165 13 q-12 -52 -12 -146 l0 -43 q0 -94 12 -139 l-139 0 q13 59 13 141 l0 72 l-715 0 l55 -35 q18 -12 14 -20 q-2 -7 -26 -9 q-45 -2 -90 -43 q-58 -53 -207 -153 q233 6 432 20 q102 51 207 170 l108 -94 q29 -23 25 -35 q-1 -7 -20 -7 q-8 0 -17 1 q-45 2 -90 -33 q-150 -116 -567 -340 q108 6 303 17 q194 10 301 16 q-39 55 -123 113 l92 82 q176 -160 342 -349 l-104 -88 q-50 82 -129 164 q-52 -4 -148 -12 q-186 -16 -276 -27 l0 -401 q4 -133 -45 -160 q-35 -33 -252 -49 q-11 76 -62 152 q77 -10 127 -10 q44 0 66 8 q53 16 51 75 l0 377 q-313 -20 -616 -57 q-19 61 -41 131 q122 2 237 18 q219 45 486 246 q-123 -12 -271 -24 q-39 -3 -51 -5 q-68 -6 -211 -32 q-2 4 -4 12 q-25 70 -45 106 q92 5 141 25 q144 76 307 250 l-585 0 l0 -109 q0 -73 12 -139 l-139 0 q12 51 12 139 l0 70 q0 98 -12 154 ZM201 -137 q252 86 467 334 l98 -74 q33 -25 31 -35 q-2 -12 -39 -14 q-33 -6 -74 -43 q-127 -111 -367 -267 q-77 72 -116 99 ZM1268 78 l67 115 q250 -113 508 -267 l-76 -112 q-192 149 -499 264 Z" /><glyph glyph-name="" unicode="&#x7ea7;" d="M481 1561 l133 -95 q21 -14 19 -26 q-4 -13 -31 -21 q-51 -16 -80 -55 q-22 -33 -61 -92 q-137 -203 -201 -297 q172 6 326 18 q43 58 121 203 l133 -98 q18 -15 16 -23 q-2 -8 -29 -12 q-49 -4 -106 -86 q-150 -203 -375 -494 q279 13 465 52 l-41 -129 q-479 -31 -598 -78 l-53 137 q110 16 194 143 q88 117 205 287 q-289 -20 -391 -51 l-55 125 q78 22 153 139 q109 147 256 453 ZM92 45 q357 72 668 227 l-12 -147 q-398 -137 -586 -227 l-70 147 ZM522 -176 q555 366 537 1511 l-109 0 q-63 2 -168 -12 l0 123 q97 -14 168 -12 l606 0 q68 -2 173 12 q-60 -135 -213 -600 l114 0 q64 -2 156 12 q-82 -424 -250 -694 q168 -178 420 -258 q-78 -60 -117 -142 q-184 115 -383 306 q-149 -170 -455 -355 q-59 72 -137 119 q269 78 508 326 q-151 223 -254 489 q-71 -473 -448 -893 q-70 52 -148 68 ZM1231 715 q63 -244 221 -457 q131 199 180 490 l-119 0 q-77 0 -176 -13 q131 283 215 600 l-372 0 q-25 -411 -56 -657 l107 37 Z" /><glyph glyph-name="" unicode="&#x7ef4;" d="M467 1581 l137 -84 q29 -18 27 -26.5 q-2 -8.5 -35 -14.5 q-39 -8 -72 -69 q-102 -187 -280 -474 q131 2 278 13 q113 207 162 352 l154 -100 q22 -13 18 -19 q-2 -8 -35 -16 q-39 -17 -65 -55 q-256 -437 -434 -693 q223 21 471 76 l-31 -137 q-526 -78 -557 -101 l-64 154 q76 27 131 119 q82 123 189 311 q-189 0 -330 -39 l-47 146 q76 45 104 98 q193 305 279 559 ZM96 -55 q436 75 713 182 l-16 -152 q-465 -112 -629 -190 l-68 160 ZM631 737 q332 299 465 834 l159 -78 q23 -10 21 -18.5 q-2 -8.5 -29 -18.5 q-39 -12 -61 -69 q-35 -80 -107 -234 l713 0 q59 -2 129 12 l0 -123 q-74 15 -125 13 l-287 0 l0 -299 l222 0 q57 -2 120 12 l0 -123 q-69 14 -116 12 l-226 0 l0 -297 l220 0 q55 -2 116 13 l0 -123 q-69 14 -116 12 l-220 0 l0 -315 l322 0 q57 -2 121 12 l0 -119 q-74 15 -123 13 l-748 0 q-2 -72 13 -158 l-140 0 q15 82 13 160 l0 1075 q-78 -125 -181 -268 q-69 43 -155 75 ZM1081 262 l0 -315 l314 0 l0 315 l-314 0 ZM1081 657 l0 -297 l314 0 l0 297 l-314 0 ZM1081 1055 l0 -299 l314 0 l0 299 l-314 0 ZM1427 1561 q142 -187 215 -310 l-114 -84 q-92 174 -207 314 l106 80 Z" /><glyph glyph-name="" unicode="&#x7f00;" d="M715 256 q-4 -31 -6 -102 q-2 -21 -2 -33 q-345 -123 -564 -225 q-24 81 -63 149 q340 74 635 211 ZM260 973 q47 2 139 6 q50 2 76 4 q62 121 103 248 l141 -74 q22 -12 20 -22.5 q-2 -10.5 -28 -16.5 q-31 -4 -93 -106 q-139 -232 -329 -510 q246 30 387 67 q-23 -71 -21 -120 q-346 -46 -491 -91 q-14 60 -55 127 q71 41 106 82 q102 138 203 312 q-160 -7 -283 -52 q-10 50 -43 121 q88 33 117 94 q110 226 197 519 l141 -68 q31 -14 28 -20 q3 -7 -34 -25 q-33 -10 -95 -131 q-79 -150 -186 -344 ZM852 485 q63 -79 166 -223 q69 144 96 291 l-274 0 q-66 0 -140 -12 l0 110 q86 -12 140 -12 l264 0 q65 0 143 12 q-55 -260 -168 -473 q80 -131 125 -227 l-94 -57 q-31 83 -96 192 q-125 -176 -369 -344 q-55 43 -125 70 q283 141 438 358 q-77 121 -194 256 l88 59 ZM1065 -211 q258 102 428 315 q-104 236 -141 459 q-25 -4 -64 -8 q-6 0 -8 0 l0 109 q61 -11 143 -11 l295 0 q78 0 137 13 q-90 -310 -235 -566 q102 -155 344 -262 q-72 -39 -123 -92 q-178 133 -289 274 q-180 -198 -358 -307 q-78 54 -129 76 ZM1563 197 q110 198 155 370 l-262 0 q6 -143 107 -370 ZM831 1298 q72 -96 160 -223 q76 125 123 299 l-280 0 q-82 0 -140 -12 l0 111 q60 -13 140 -13 l264 0 q76 0 159 13 q-67 -279 -202 -496 q47 -72 129 -197 l-92 -59 q-9 14 -21 41 q-45 90 -74 131 q-135 -131 -288 -219 q-33 45 -117 96 q217 62 342 211 q-80 137 -184 262 l81 55 ZM1413 1282 q55 -57 139 -154 q19 -22 29 -34 q86 133 121 288 l-283 0 q-71 0 -139 -10 l0 109 q80 -13 139 -13 l264 0 q138 11 158 13 q-51 -242 -192 -463 q6 -8 20 -23 q98 -114 172 -196 l-86 -72 q-92 123 -166 207 q-104 -137 -219 -227 q-59 43 -127 73 q166 78 275 228 q-86 114 -189 206 l84 68 Z" /><glyph glyph-name="" unicode="&#x7f51;" d="M684 713 q-133 231 -258 393 l92 57 q125 -178 213 -325 q51 170 76 344 l135 -41 q23 -6 23 -15 q0 -6 -21 -22 q-26 -16 -47 -88 q-49 -162 -94 -287 q43 -82 151 -285 q47 -88 68 -127 l-113 -71 q-80 194 -157 352 q-95 -238 -224 -455 q-49 33 -143 56 q188 198 299 514 ZM971 176 q172 178 307 486 q-154 274 -256 430 l111 53 q110 -203 194 -367 q86 223 109 410 l133 -57 q20 -11 20 -19 q0 -8 -22 -20 q-33 -19 -60 -105 q-53 -160 -112 -323 q112 -207 227 -431 l-115 -75 q-69 196 -168 387 q-96 -211 -219 -416 q-86 33 -149 47 ZM238 1513 q118 -10 196 -12 l1178 0 q86 2 194 12 q-10 -106 -12 -176 l0 -1390 q4 -13 4 -25 q0 -118 -373 -155 q-6 79 -65 155 q115 -11 178 -11 q60 0 88 9 q62 10 57 86 l0 1393 l-1323 0 l0 -1440 q2 -82 13 -186 l-135 0 q10 106 12 186 l0 1362 q-2 82 -12 192 Z" /><glyph glyph-name="" unicode="&#x7f6e;" d="M592 711 l256 0 q22 67 37 133 l-525 0 q-75 0 -155 -12 l0 118 q82 -12 155 -12 l549 0 q19 90 21 135 l149 -29 q29 -6 31 -14 q0 -10 -25 -22 q-32 -17 -36 -31 q-7 -19 -17 -39 l713 0 q53 -2 121 12 l0 -118 q-60 12 -121 12 l-741 0 q-21 -72 -39 -133 l516 0 q53 -2 137 12 q-14 -64 -12 -125 l0 -692 l178 0 q51 -2 125 12 l0 -119 q-78 15 -121 13 l-1526 0 q-57 2 -135 -13 l0 119 q66 -14 133 -12 l195 0 l0 672 q0 67 -13 145 q88 -12 150 -12 ZM309 1186 l0 174 q2 65 -12 135 q78 -14 141 -12 l1192 0 q49 -2 133 12 q-14 -59 -12 -125 l0 -174 q-2 -53 12 -127 q-73 14 -129 12 l-1185 0 q-70 2 -152 -12 q14 64 12 117 ZM565 39 l0 -133 l930 0 l0 133 l-930 0 ZM1495 621 l-930 0 l0 -109 l930 0 l0 109 ZM565 233 l0 -108 l930 0 l0 108 l-930 0 ZM565 426 l0 -106 l930 0 l0 106 l-930 0 ZM1640 1389 l-348 0 l0 -213 l348 0 l0 213 ZM1190 1176 l0 213 l-342 0 l0 -213 l342 0 ZM420 1389 l0 -213 l325 0 l0 213 l-325 0 Z" /><glyph glyph-name="" unicode="&#x8003;" d="M1020 842 l-713 0 q-76 0 -174 -13 l0 127 q94 -12 174 -12 l541 0 l0 273 l-273 0 q-69 0 -169 -13 l0 127 q88 -12 169 -12 l273 0 l0 92 q0 96 -12 191 l151 -21 q27 -2 29 -10 q2 -8 -23 -25 q-32 -14 -30 -135 l0 -92 l188 0 q84 0 162 12 l0 -127 q-72 13 -162 13 l-188 0 l0 -273 l155 0 q256 279 410 553 l151 -102 q19 -11 15 -19 q-2 -6 -29 -12 q-55 -10 -109 -80 q-147 -182 -280 -340 l520 0 q94 0 178 12 l0 -127 q-88 13 -178 13 l-608 0 q-68 -74 -209 -215 l643 0 q94 0 174 12 l0 -127 q-86 12 -174 12 l-492 0 q-38 -129 -81 -237 l434 0 q90 0 166 12 q-21 -76 -41 -160 q-78 -358 -183 -409 q-57 -39 -165 -49 q-52 -6 -131 -6 q-74 0 -205 6 q0 79 -25 163 q175 -31 285 -31 q113 0 157 33 q103 45 142 338 l-350 0 q-95 2 -195 -26 l-59 112 q73 6 120 254 l-116 0 q-310 -307 -674 -559 q-66 66 -139 111 q401 170 950 766 Z" /><glyph glyph-name="" unicode="&#x8272;" d="M92 948 q463 219 668 619 l153 -70 q25 -10 23 -16 q2 -6 -23 -13 q-69 -16 -100 -57 q-2 -4 -6 -8 q-21 -29 -47 -59 l524 0 q119 0 223 12 l-241 -402 l176 0 q104 0 217 13 q-12 -107 -12 -201 l0 -209 q0 -88 12 -197 q-109 13 -217 13 l-977 0 l0 -367 q-2 -78 29 -100 q24 -29 114 -37 q43 -4 201 -6 q162 -4 346 -2 q350 4 424 16 q199 14 195 279 q67 -49 145 -74 q-70 -311 -317 -322 q-56 -8 -342 -12 q-158 -2 -359 -2 q-119 -1 -197 -1 q-78 0 -116 1 q-248 -2 -238 254 l0 778 q0 76 -12 174 q-51 -41 -125 -92 q-45 43 -121 88 ZM354 967 q92 -13 172 -13 l604 0 l175 291 l-629 0 q-156 -153 -322 -278 ZM465 852 l0 -377 l475 0 l0 377 l-475 0 ZM1055 852 l0 -377 l477 0 l0 377 l-477 0 Z" /><glyph glyph-name="" unicode="&#x8868;" d="M88 94 q459 148 764 555 l-553 0 q-100 0 -166 -12 l0 127 q49 -12 166 -12 l668 0 l0 206 l-424 0 q-107 0 -168 -12 l0 127 q65 -12 168 -12 l424 0 l0 184 l-533 0 q-106 0 -168 -12 l0 127 q60 -12 168 -12 l533 0 l0 51 q0 112 -13 186 l164 -26 q25 -5 27 -15 q2 -8 -19 -22 q-51 -25 -45 -115 l0 -59 l549 0 q115 0 168 12 l0 -127 q-63 10 -168 12 l-549 0 l0 -184 l451 0 q117 0 166 12 l0 -127 q-62 12 -166 12 l-451 0 l0 -206 l684 0 q115 0 168 12 l0 -127 q-59 12 -168 12 l-585 0 q39 -180 161 -352 q193 135 328 305 l100 -98 q31 -31 27 -43 q-4 -10 -49 -10 q-47 -5 -94 -39 q-15 -13 -47 -39 q-101 -84 -191 -154 q213 -227 518 -299 q-73 -65 -114 -127 q-650 279 -754 856 l-64 0 q-57 -86 -186 -227 l0 -533 q270 129 395 226 l-14 -162 q-350 -162 -473 -254 q-41 78 -78 127 q37 20 45 43 q10 27 10 92 l0 356 q-200 -184 -489 -344 q-55 74 -123 121 Z" /><glyph glyph-name="" unicode="&#x89c8;" d="M342 1509 l150 -20 q13 -5 13 -15 q0 -11 -16 -28 q-26 -19 -24 -135 l0 -301 q2 -76 12 -170 l-135 0 q10 92 12 170 l0 313 q-2 76 -12 186 ZM866 1018 q209 156 332 569 l148 -51 q18 -6 16 -17.5 q-2 -11.5 -23 -19.5 q-41 -14 -67 -80 q-21 -51 -41 -92 l510 0 q76 2 155 12 l0 -122 q-88 10 -155 12 l-549 0 q-88 -154 -178 -281 q-58 43 -148 70 ZM1292 1049 l78 102 q227 -135 395 -252 l-71 -115 q-162 138 -402 265 ZM98 -160 q508 41 652 211 q135 142 155 514 l156 -30 q24 -5 26 -15 q3 -12 -20 -28 q-33 -23 -47 -97 q-51 -592 -809 -696 q-37 84 -113 141 ZM1061 371 l143 -21 q17 -5 17 -15 q0 -10 -17 -26 q-22 -8 -20 -129 l0 -213 q-2 -55 41 -71 q43 -19 192 -23 q32 -1 74 -1 q187 0 233 36 q66 33 66 209 q57 -72 145 -86 q-61 -197 -139 -232 q-65 -45 -352 -45 q-244 -2 -307 33 q-68 29 -64 150 l0 251 q-2 78 -12 183 ZM565 84 l-135 0 q10 90 12 166 l0 313 q-4 86 -12 174 q102 -10 180 -12 l817 0 q84 2 175 12 q-11 -92 -13 -170 l0 -303 q2 -78 13 -170 l-136 0 q11 94 13 170 l0 363 l-926 0 l0 -377 q2 -64 12 -166 ZM723 1575 l154 -21 q12 -6 12 -15 q0 -12 -17 -30 q-28 -22 -26 -131 l0 -393 q2 -82 12 -172 l-135 0 q10 96 12 172 l0 406 q-2 73 -12 184 Z" /><glyph glyph-name="" unicode="&#x89c9;" d="M209 1143 q90 -12 170 -12 l944 0 q131 208 209 460 l154 -61 q28 -12 26 -23 q0 -10 -31 -20 q-47 -21 -79 -80 q-76 -139 -158 -276 l246 0 q71 0 170 12 q-13 -88 -13 -154 l0 -92 q0 -63 13 -137 l-140 0 q13 76 13 137 l0 131 l-1397 0 l0 -127 q0 -61 12 -149 l-139 0 q12 88 12 151 l0 86 q0 68 -12 154 ZM397 1456 l97 78 q114 -131 215 -279 l-111 -73 q-84 145 -201 274 ZM844 1524 l106 67 q119 -151 207 -299 l-121 -71 q-82 166 -192 303 ZM100 -178 q453 18 682 229 q145 152 145 432 q0 44 -5 103 l161 -31 q27 -4 27 -16.5 q0 -12.5 -29 -30.5 q-37 -23 -45 -127 q-26 -248 -127 -375 q-166 -205 -700 -328 q-33 76 -109 144 ZM1067 352 l158 -20 q24 -4 26 -15 q0 -10 -22 -30 q-35 -33 -35 -103 l0 -235 q-2 -11 -2 -17 q0 -86 176 -88 q43 -2 94 -2 q79 0 146 6 q180 0 184 281 q61 -57 150 -70 q-68 -317 -287 -319 q-87 -12 -191 -12 q-61 0 -127 4 q-163 8 -209 45 q-51 33 -49 143 l0 264 q0 72 -12 168 ZM655 158 l-139 0 q12 96 12 166 l0 319 q0 68 -12 189 q107 -13 178 -13 l692 0 q70 -2 175 13 q-13 -121 -13 -185 l0 -287 q0 -77 13 -174 l-140 0 q13 101 13 174 l0 357 l-791 0 l0 -393 q0 -76 12 -166 Z" /><glyph glyph-name="" unicode="&#x8baf;" d="M1495 1348 l-410 0 l0 -588 l95 0 q94 0 168 12 l0 -127 q-70 12 -164 12 l-99 0 l0 -729 q0 -96 13 -159 l-140 0 q13 61 13 159 l0 729 l-90 0 q-109 0 -166 -12 l0 127 q53 -12 166 -12 l90 0 l0 588 l-133 0 q-109 0 -166 -13 l0 127 q51 -12 166 -12 l604 0 q121 0 180 12 q-12 -57 -12 -166 q-8 -1032 69 -1286 q23 -80 64 -90 q10 -3 18 -3 q36 0 72 44 q49 62 72 182 q55 -84 120 -90 q-55 -137 -137 -213 q-68 -62 -137 -62 q-29 0 -59 11 q-90 39 -127 182 q-76 299 -70 1377 ZM471 723 l0 -766 q162 174 250 279 q27 -86 51 -121 q-131 -125 -250 -252 q-78 -86 -104 -129 q-51 57 -115 104 q51 53 53 115 l0 838 l-129 0 q-104 0 -164 -13 l0 123 q54 -12 164 -12 l86 0 q107 0 170 12 q-12 -57 -12 -178 ZM195 1460 l88 88 q192 -166 342 -344 l-95 -90 q-153 205 -335 346 Z" /><glyph glyph-name="" unicode="&#x8bb0;" d="M549 893 q-10 -78 -10 -154 l-13 -737 q154 117 265 227 l43 -127 q-328 -247 -375 -315 l-111 111 q60 41 62 114 l10 766 l-178 0 q-68 2 -164 -12 l0 127 q90 -14 164 -12 l141 0 q70 0 166 12 ZM244 1411 l94 90 q164 -143 340 -330 l-94 -92 q-148 183 -340 332 ZM936 829 q104 -14 172 -12 l532 0 l0 492 l-641 0 q-63 2 -165 -13 l0 127 q75 -14 165 -12 l590 0 q72 -2 178 12 q-12 -112 -12 -172 l0 -374 q0 -56 12 -175 q-104 13 -178 13 l-526 0 l0 -709 q-4 -78 37 -92 q33 -23 192 -31 q71 -4 134 -4 q35 0 96 2 q108 4 155 15 q138 12 146 268 q71 -66 143 -72 q-57 -274 -237 -303 q-43 -14 -201 -18 q-174 -2 -342 6 q-150 6 -193 43 q-47 33 -45 139 l0 713 q2 71 -12 157 Z" /><glyph glyph-name="" unicode="&#x8bbe;" d="M496 774 l-15 -706 q140 120 234 225 q16 -68 43 -135 q-191 -154 -332 -303 l-111 116 q54 39 52 131 l14 725 l-105 0 q-79 0 -180 -12 l0 127 q94 -12 180 -12 l58 0 q86 0 172 12 q-3 -43 -3 -46 q0 -3 0 -1 l0 1 l3 34 q-6 -74 -10 -156 ZM633 1255 l-103 -90 q-118 160 -282 308 l86 88 q168 -160 299 -306 ZM1202 115 q-194 180 -295 463 q-69 0 -184 -13 l0 127 q100 -12 184 -12 l572 0 q98 0 202 12 q-125 -348 -305 -571 q250 -187 582 -230 q-62 -67 -88 -147 q-338 125 -574 291 q-219 -174 -600 -328 q-30 62 -98 131 q348 68 604 277 ZM1284 195 q148 180 225 383 l-485 0 q70 -213 260 -383 ZM641 815 q264 119 274 500 q1 14 1 44 q0 65 -9 148 q109 -12 193 -12 l303 0 q86 0 180 12 q-12 -80 -12 -161 l0 -269 q-1 -11 -1 -24 q0 -106 -5 -100 q-5 6 86 6 q7 0 22 2 q90 0 197 30 q-23 -73 -29 -141 q-81 -6 -142 -6 q-124 0 -171 24 q-76 31 -72 166 l0 359 l-420 0 q8 -449 -264 -662 q-59 47 -131 84 Z" /><glyph glyph-name="" unicode="&#x8bbf;" d="M541 913 q0 -6 -2 -20 q-7 -98 -9 -152 l-14 -651 q127 121 250 289 q22 -68 59 -127 q-305 -334 -364 -426 l-117 127 q57 43 55 166 l17 680 l-144 0 q-77 0 -172 -13 l0 127 q95 -12 172 -12 l103 0 q84 0 166 12 ZM227 1438 l80 92 q166 -133 334 -287 l-84 -100 q-164 164 -330 295 ZM610 -244 q520 320 510 1293 l-221 0 q-86 0 -174 -13 l0 127 q94 -12 174 -12 l873 0 q92 0 180 12 l0 -127 q-86 13 -180 13 l-531 0 q-6 -148 -22 -351 l407 0 q90 0 180 13 q-8 -103 -10 -179 q-23 -707 -63 -707 q-3 0 -4 1 q-48 -109 -361 -125 q-25 84 -78 154 q105 -11 169 -11 q35 0 80.5 6.5 q45.5 6.5 82.5 47.5 q1 -1 3 -1 q40 0 52 699 l-471 0 q-63 -535 -444 -911 q-68 47 -152 71 ZM1497 1315 l-86 -90 q-145 155 -297 280 l88 86 q160 -135 295 -276 Z" /><glyph glyph-name="" unicode="&#x8be2;" d="M565 901 q-12 -53 -12 -158 l0 -806 q104 94 205 215 q4 -60 51 -127 l-16 -15 q0 -1 0 -0.5 q0 0.5 1 0.5 l3 2 q-197 -178 -217 -198 q-60 -60 -107 -117 q-55 65 -115 117 q60 51 80 98 l0 879 l-174 0 q-100 0 -164 -13 l0 123 q58 -12 164 -12 l148 0 q98 0 153 12 ZM256 1411 l84 92 q166 -129 352 -311 l-92 -94 q-135 164 -344 313 ZM639 864 q287 283 377 705 l162 -49 q16 -4 16 -12.5 q0 -8.5 -16 -16.5 q-56 -31 -74 -84 q-25 -84 -55 -139 l649 0 q106 0 172 12 q-6 -102 -8 -200.5 q-2 -98.5 -4 -352.5 q-3 -590 -11 -758 q-4 -172 -61 -207 q-45 -47 -281 -63 q4 76 -59 164 q94 -15 149 -15 q49 0 74 11 q60 22 62 110 q16 668 20 1196 l-752 0 q-84 -170 -221 -360 q-39 33 -139 59 ZM889 885 q59 -13 160 -13 l311 0 q104 0 172 13 q-12 -66 -12 -168 l0 -475 q0 -105 12 -166 q-59 12 -168 12 l-320 0 q-116 0 -155 -12 q12 65 12 170 l0 471 q0 104 -12 168 ZM1016 434 l0 -244 l389 0 l0 244 l-389 0 ZM1016 770 l0 -238 l389 0 l0 238 l-389 0 Z" /><glyph glyph-name="" unicode="&#x8bed;" d="M553 924 q-12 -90 -12 -156 l-15 -776 q140 125 230 233 q12 -84 47 -133 q-131 -108 -338 -321 l-111 118 q60 60 58 175 l14 745 l-184 0 q-64 0 -164 -12 l0 127 q100 -13 164 -13 l137 0 q78 0 174 13 ZM233 1417 l80 96 q197 -149 355 -303 l-86 -98 q-160 170 -349 305 ZM868 670 l170 0 l39 342 l-86 0 q-63 0 -166 -13 l0 123 q101 -12 166 -12 l101 0 l22 234 l-184 0 q-64 0 -166 -13 l0 127 q102 -12 166 -12 l751 0 q80 0 168 12 l0 -127 q-84 13 -163 13 l-457 0 l-23 -234 l361 0 q67 -2 168 12 q-13 -84 -15 -131 l-24 -321 l98 0 q70 0 166 12 l0 -127 q-82 12 -164 12 l-928 0 q-69 0 -163 -12 l0 127 q92 -12 163 -12 ZM1192 1012 l-39 -342 l426 0 l27 342 l-414 0 ZM885 401 q92 -12 170 -12 l579 0 q37 0 172 12 q-8 -67 -12 -178 l0 -346 q0 -63 12 -164 l-139 0 q10 64 12 121 l-667 0 q2 -61 10 -143 l-137 0 q12 100 12 166 l0 362 q2 76 -12 182 ZM1012 291 l0 -363 l667 0 l0 363 l-667 0 Z" /><glyph glyph-name="" unicode="&#x8bef;" d="M500 772 l-8 -747 q104 90 196 182 l39 -133 q-174 -144 -303 -281 l-113 117 q62 45 62 102 l12 805 l-164 0 q-53 2 -135 -12 l0 127 q74 -14 127 -12 l129 0 q78 -2 168 12 q-10 -76 -10 -160 ZM641 1260 l-96 -99 q-154 176 -324 297 l80 92 q137 -98 340 -290 ZM559 -184 q477 159 594 561 l-401 0 q-52 2 -125 -12 l0 122 q67 -14 121 -12 l428 0 q12 123 16 273 l-293 0 q-59 2 -133 -13 l0 123 q68 -14 127 -12 l793 0 q53 0 120 12 l0 -123 q-59 15 -118 13 l-377 0 q-4 -125 -17 -273 l502 0 q53 -2 117 12 l0 -122 q-72 14 -119 12 l-461 0 q238 -387 641 -492 q-86 -51 -129 -133 q-372 205 -592 549 q-102 -348 -563 -594 q-43 72 -131 109 ZM801 1516 q69 -15 139 -13 l662 0 q65 -2 143 13 q-14 -66 -12 -129 l0 -232 q-2 -59 12 -135 q-84 14 -137 12 l-664 0 q-59 2 -143 -12 q14 70 12 131 l0 233 q2 56 -12 132 ZM928 1405 l0 -274 l690 0 l0 274 l-690 0 Z" /><glyph glyph-name="" unicode="&#x8c03;" d="M395 -119 l-96 109 q68 55 68 162 l14 718 l-117 0 q-61 0 -164 -12 l0 127 q95 -12 164 -12 l78 0 q66 -2 166 12 q-12 -88 -12 -153 l-15 -715 q133 114 207 209 q10 -78 39 -146 q-229 -188 -332 -299 ZM260 1438 l78 96 q182 -127 346 -272 l-80 -101 q-155 162 -344 277 ZM610 -225 q254 262 248 897 l0 692 q0 49 -12 158 q104 -11 166 -11 l714 0 q89 -2 189 13 q-12 -107 -12 -174 l0 -1407 q4 -107 -54 -140 q-51 -36 -247 -57 q-5 88 -68 156 q105 -16 160 -16 q38 0 53 8 q45 12 41 106 l0 1409 l-819 0 l0 -686 q10 -643 -207 -993 q-66 32 -152 45 ZM1184 838 l121 0 l0 219 l-107 0 q-76 0 -166 -13 l0 123 q107 -12 166 -12 l107 0 l0 62 q2 59 -13 163 l150 -20 q20 -2 22 -10 q0 -6 -16 -21 q-33 -24 -33 -119 l0 -55 l98 0 q76 0 166 12 l0 -123 q-96 13 -163 13 l-101 0 l0 -219 l148 0 q73 0 168 12 l0 -123 q-89 14 -166 12 l-381 0 q-82 0 -164 -12 l0 123 q88 -12 164 -12 ZM1649 600 q-13 -102 -13 -164 l0 -162 q0 -59 13 -159 q-93 14 -158 12 l-221 0 q-72 0 -168 -12 q14 100 12 159 l0 154 q0 66 -12 172 q88 -12 162 -12 l219 0 q63 -2 166 12 ZM1225 489 l0 -264 l301 0 l0 264 l-301 0 Z" /><glyph glyph-name="" unicode="&#x8c61;" d="M137 1047 q355 157 604 555 l129 -62 q33 -16 33 -24 q0 -11 -35 -19 q-39 -8 -61 -41 q-6 -8 -25 -26 l408 0 q90 0 186 12 q-59 -84 -100 -164 q-41 -80 -84 -147 l326 0 q86 0 170 12 q-13 -86 -13 -160 l0 -113 q0 -71 13 -157 q-82 12 -172 12 l-504 0 q-58 -61 -119 -104 q151 -95 223 -207 q215 114 354 254 l97 -92 q32 -31 30 -41 q0 -11 -34 -9 q-54 0 -109 -34 q-43 -31 -84 -56 q170 -401 563 -506 q-82 -45 -143 -120 q-354 192 -518 571 q-62 -39 -117 -74 q27 -88 33 -200 q4 -117 -17 -193 q-32 -129 -127 -178 q-94 -53 -292 -49 q-17 82 -56 161 q103 -24 178 -24 q147 0 170 98 q22 79 22 163 q0 73 -17 151 q-334 -357 -789 -498 q-37 59 -100 125 q479 71 848 491 q-21 37 -64 82 q-262 -266 -649 -395 q-45 59 -102 111 q391 65 677 356 q-34 29 -65 47 q-203 -121 -510 -205 q-45 66 -109 117 q398 47 670 258 l-272 0 q-76 0 -168 -12 q12 75 12 151 l0 86 q0 58 -8 117 q-86 -70 -172 -131 q-43 61 -111 111 ZM489 1131 l564 0 q65 90 110 200 l-471 0 q-110 -117 -203 -200 ZM543 1032 l0 -209 l391 0 q47 84 65 209 l-456 0 ZM1561 823 l0 209 l-443 0 q-20 -117 -61 -209 l504 0 Z" /><glyph glyph-name="" unicode="&#x8d44;" d="M129 774 q330 154 487 311 q9 -79 35 -141 q-254 -151 -434 -301 q-29 68 -88 131 ZM635 1309 l-78 -115 q-182 141 -356 207 l63 110 q203 -94 371 -202 ZM1032 1393 l676 0 q74 0 160 12 q-33 -57 -107 -184 q-59 -103 -88 -152 q-65 31 -141 37 q63 80 127 188 l-356 0 q0 -6 -5 -18 q-4 -16 -6 -29 q256 -395 619 -465 q-82 -49 -137 -123 q-326 183 -541 472 q-139 -265 -432 -433 q-25 47 -113 117 q361 96 477 479 l-202 0 q-66 -80 -166 -176 q-68 47 -133 68 q254 174 342 416 l147 -39 q29 -9 29 -19 q-2 -10 -33 -18 q-41 -15 -70 -60 q-24 -39 -47 -73 ZM199 -192 q752 87 752 649 q0 26 -1 45 l164 -29 q25 -4 29 -16 q2 -13 -19 -25 q-51 -29 -77 -145 q-66 -430 -732 -619 q-41 72 -116 140 ZM444 694 q58 -14 150 -12 l852 0 q100 0 160 12 q-15 -61 -13 -166 l0 -317 q0 -84 13 -172 l-140 0 q13 86 13 176 l0 369 l-908 0 l0 -404 q0 -112 9 -170 l-136 0 q13 80 13 174 l0 348 q0 91 -13 162 ZM1040 12 l58 115 q334 -125 710 -311 l-79 -133 q-377 233 -689 329 Z" /><glyph glyph-name="" unicode="&#x8f6c;" d="M1024 895 l172 0 q35 147 49 248 l-117 0 q-88 0 -159 -12 l0 122 q57 -12 159 -12 l132 0 q34 219 36 356 l170 -45 q27 -8 27 -14 q2 -8 -20 -25 q-48 -32 -62 -116 q-4 -23 -10 -62 q-10 -57 -17 -94 l279 0 q92 0 160 12 l0 -122 q-76 12 -160 12 l-297 0 q-25 -137 -49 -248 l446 0 q80 0 162 12 l0 -123 q-61 13 -162 13 l-467 0 q-30 -115 -82 -269 l451 0 q80 0 184 13 q-211 -348 -340 -555 q54 -39 156 -105 q53 -35 84 -55 l-80 -111 q-246 205 -596 400 l76 104 q125 -80 264 -172 q111 162 223 383 l-383 0 q-79 0 -153 -24 q-25 69 -62 120 q47 19 66 58 q24 55 53 161 q10 35 14 52 l-147 0 q-72 0 -158 -13 l0 123 q66 -12 158 -12 ZM485 1593 l158 -65 q25 -10 25 -21 q2 -8 -21 -22 q-43 -29 -72 -113 q-12 -33 -30 -98 q-8 -31 -15 -49 l189 0 q92 0 160 12 l0 -127 q-84 12 -160 12 l-221 0 q-56 -172 -181 -489 l222 0 l0 143 q0 80 -13 195 l160 -21 q31 -4 33 -16 q0 -10 -29 -27 q-35 -28 -37 -110 l0 -164 l117 0 q94 0 162 12 l0 -127 q-70 12 -162 12 l-117 0 l0 -268 q234 60 342 127 q-16 -104 -14 -162 q-170 -39 -328 -88 l0 -256 q0 -78 13 -174 l-140 0 q13 82 13 174 l0 224 q-203 -62 -359 -138 q-2 6 -16 41 q-31 84 -47 115 q207 33 422 102 l0 303 l-222 0 q-75 0 -149 -12 q-2 6 -6 17 q-21 59 -39 106 q67 10 96 72 q94 184 162 409 l-100 0 q-78 0 -158 -12 l0 127 q76 -12 158 -12 l129 0 q67 227 75 368 Z" /><glyph glyph-name="" unicode="&#x8f7d;" d="M301 1090 l385 0 l0 172 l-213 0 q-90 0 -201 -13 l0 127 q111 -12 201 -12 l213 0 l0 76 q0 73 -12 170 l157 -25 q23 -2 23 -12 q2 -10 -18 -23 q-37 -18 -35 -110 l0 -76 l137 0 q96 0 195 12 l0 -127 q-99 13 -195 13 l-137 0 l0 -172 l436 0 q-2 47 -4 114 q0 33 0 74 q0 37 0 113 q0 106 -10 221 l168 -41 q26 -6 24 -15 q0 -8 -26 -32 q-33 -23 -35 -90 q-3 -28 -3 -114 q0 -86 3 -230 l338 0 q104 0 215 12 l0 -127 q-113 12 -215 12 l-338 0 q16 -344 102 -620 q119 229 172 524 l162 -66 q25 -10 25 -16 q0 -8 -27 -23 q-49 -24 -80 -106 q-84 -227 -197 -442 q144 -314 234 -355 q57 -6 76 170 q53 -49 121 -90 q-91 -236 -179 -236 q-6 0 -12 1 q-121 6 -321 399 q-138 -166 -334 -342 q-54 43 -140 82 q222 106 416 379 q-110 364 -131 741 l-633 0 l94 -45 q31 -14 31 -22 q2 -7 -31 -19 q-34 -14 -57 -59 q-14 -31 -31 -60 l363 0 q86 0 170 13 l0 -123 q-84 12 -170 12 l-410 0 q-78 -141 -149 -256 l241 0 l0 27 q0 75 -12 170 l160 -25 q18 -2 18 -10 q0 -8 -16 -25 q-37 -26 -35 -110 l0 -27 l148 0 q79 0 163 12 l0 -123 q-84 13 -163 13 l-148 0 l0 -195 q248 25 395 80 q-22 -59 -36 -141 q-185 -15 -359 -49 l0 -140 q0 -82 12 -180 l-139 0 q12 92 12 180 l0 125 q-276 -35 -446 -86 l-68 158 q166 -6 514 39 l0 209 l-190 0 q-80 0 -160 -17 l-59 111 q82 0 201 260 l-78 0 q-76 0 -164 -12 l0 123 q90 -13 164 -13 l121 0 q53 111 79 205 l-272 0 q-86 0 -203 -12 l0 127 q109 -12 203 -12 ZM1470 1432 l84 88 q127 -107 244 -215 l-90 -101 q-111 123 -238 228 Z" /><glyph glyph-name="" unicode="&#x8fce;" d="M164 1399 l90 96 q219 -164 344 -287 l-90 -100 q-170 178 -344 291 ZM1210 541 q-1 -18 -1 -37 q0 -49 8 -92 q-328 -176 -400 -246 l-76 145 q39 35 37 103 l0 817 q0 65 -12 149 q223 23 367 133 l118 -96 q15 -12 13 -20 q-4 -8 -21 -6 q-45 4 -90 -15 q-119 -47 -260 -90 l0 -926 q188 93 317 181 ZM1706 420 l0 915 l-297 0 l0 -1198 q0 -65 12 -178 l-143 0 q12 107 12 178 l0 1143 q0 64 -12 170 q90 -12 164 -12 l227 0 q76 0 164 12 q-12 -104 -12 -170 l0 -901 q2 -113 -54 -150 q-51 -41 -221 -51 q-2 86 -49 162 q75 -11 121 -11 q36 0 51 7 q39 10 37 84 ZM510 842 q-12 -107 -12 -174 l0 -602 q96 -33 202 -91 q203 -110 572 -104 q379 4 657 51 q-51 -63 -57 -151 q-383 -23 -559 -23 q-447 -8 -688 146 q-113 61 -174 61 q-62 4 -129 -51 q-46 -41 -101 -121 l-98 127 q137 100 260 149 l0 668 l-127 0 q-61 0 -158 -12 l0 127 q90 -13 158 -13 l86 0 q74 0 168 13 Z" /><glyph glyph-name="" unicode="&#x8fd0;" d="M238 1393 l94 82 q176 -160 319 -336 l-100 -86 q-137 180 -313 340 ZM1386 528 l107 70 q184 -272 305 -514 l-119 -61 q-30 79 -80 163 q-772 -73 -876 -131 l-55 146 q59 16 108 59 q172 203 311 557 l-270 0 q-82 0 -180 -12 l0 131 q98 -12 180 -12 l909 0 q93 0 172 12 l0 -131 q-92 12 -172 12 l-604 0 l125 -55 q17 -8 17 -14.5 q0 -6.5 -17 -12.5 q-59 -18 -102 -96 q-121 -207 -266 -422 q331 25 667 62 q-71 124 -160 249 ZM770 1280 l0 131 q102 -12 172 -12 l662 0 q71 0 161 12 l0 -131 q-79 12 -161 12 l-662 0 q-76 0 -172 -12 ZM526 815 q-12 -108 -12 -174 l0 -580 q70 -30 164 -81 q110 -60 237 -78 q125 -21 369 -21 q371 0 668 56 q-41 -76 -58 -160 q-249 -8 -614 -8 q-268 -2 -385 24 q-121 23 -285 111 q-133 65 -159 59 q-101 -4 -256 -186 q-45 63 -103 112 q162 129 307 179 l0 628 l-129 0 q-86 0 -166 -12 l0 131 q91 -12 166 -12 l78 0 q80 0 178 12 Z" /><glyph glyph-name="" unicode="&#x8fdb;" d="M528 1083 q-118 140 -315 312 l94 90 q182 -166 314 -309 l-93 -93 ZM989 1038 l-153 0 q-82 0 -158 -12 l0 127 q78 -12 158 -12 l153 0 l0 282 q0 93 -12 164 l162 -20 q24 -2 26 -13 q2 -8 -20 -20 q-41 -21 -41 -139 l0 -254 l303 0 l0 297 q0 96 -12 164 l161 -21 q21 -2 25 -14 q0 -11 -18 -19 q-41 -12 -41 -139 l0 -268 l182 0 q63 0 154 12 l0 -127 q-86 12 -154 12 l-182 0 l0 -389 l215 0 q92 0 159 13 l0 -127 q-86 12 -159 12 l-215 0 l0 -414 q0 -90 12 -178 l-139 0 q12 109 12 178 l0 414 l-324 0 q-30 -330 -268 -584 q-65 57 -141 78 q231 143 289 506 l-158 0 q-96 0 -158 -12 l0 127 q49 -13 158 -13 l184 0 l0 389 ZM1104 649 l303 0 l0 389 l-303 0 l0 -389 ZM528 811 q-12 -61 -12 -174 l0 -594 q80 -25 146 -76 q124 -106 452 -116 q94 -6 192 -6 q95 0 232 6 q260 10 432 36 q-43 -65 -55 -153 q-154 -10 -318 -13 q-81 -2 -157 -2 q-76 0 -148 2 q-280 9 -452 43 q-117 23 -308 152 q-55 29 -102 29 q-47 0 -90 -29 q-80 -70 -143 -166 q-33 74 -93 137 q148 115 295 160 l0 649 l-137 0 q-82 0 -158 -12 l0 127 q56 -12 158 -12 l98 0 q82 0 168 12 Z" /><glyph glyph-name="" unicode="&#x90e8;" d="M252 780 l442 0 q97 174 160 389 l135 -61 q17 -8 15 -18 q0 -13 -21 -21 q-35 -16 -61 -68 q-62 -129 -111 -221 l195 0 q79 2 168 13 l0 -127 q-82 10 -168 12 l-754 0 q-74 -2 -166 -12 l0 127 q90 -11 166 -13 ZM348 1307 l326 0 q-80 106 -203 211 l94 84 q119 -113 209 -207 l-92 -88 l262 0 q82 2 170 12 l0 -127 q-84 10 -170 12 l-596 0 q-76 -2 -166 -12 l0 127 q97 -10 166 -12 ZM408 -268 l-140 0 q11 80 13 162 l0 440 q-2 72 -13 166 q90 -13 164 -13 l424 0 q82 2 170 13 q-10 -84 -12 -168 l0 -383 q2 -74 12 -166 l-139 0 q10 72 12 125 l-504 0 l0 -14 q2 -82 13 -162 ZM395 385 l0 -379 l504 0 l0 379 l-504 0 ZM385 1151 q94 -137 172 -260 l-108 -76 q-76 143 -168 268 l104 68 ZM1249 1425 q111 -12 181 -12 l282 0 q84 0 176 12 q-143 -381 -266 -637 q201 -118 279 -313 q35 -96 35 -185 q0 -99 -44 -186 q-63 -143 -319 -159 q-29 88 -92 157 q80 -23 143 -23 q133 0 178 105 q21 47 21 100 q0 91 -60 203 q-92 162 -276 263 q135 270 227 561 l-338 0 l0 -1463 q2 -90 13 -176 l-140 0 q11 82 13 174 l0 1405 q-2 80 -13 174 Z" /><glyph glyph-name="" unicode="&#x9192;" d="M811 1364 l-102 0 l0 -299 l57 0 q45 0 176 12 q-10 -114 -12 -184 l0 -959 q0 -6 12 -190 l-131 0 q0 2 2 18 q6 86 6 109 l-518 0 q2 -66 12 -178 l-127 0 q11 110 13 184 l0 1016 q-2 63 -13 184 q113 -10 181 -12 l53 0 l0 299 l-137 0 q-64 -2 -166 -12 l0 123 q98 -13 166 -13 l528 0 q63 2 168 13 l0 -123 q-96 10 -168 12 ZM301 -35 l518 0 l0 197 l-518 0 l0 -197 ZM301 418 l0 -158 l518 0 l0 189 q-36 -5 -62 -5 q-158 0 -151 146 l0 377 l-84 0 q-24 -408 -129 -586 q-49 22 -92 37 ZM420 967 l-119 0 l0 -492 q113 152 119 492 ZM606 1065 l0 299 l-84 0 l0 -299 l84 0 ZM819 545 l0 422 l-110 0 l0 -340 q-2 -60 16 -70 q16 -14 94 -12 ZM1141 766 l129 -41 q24 -6 24 -14.5 q0 -8.5 -24 -22.5 q-31 -18 -62 -117 l222 0 l0 54 q-3 94 -13 172 l166 -25 q16 -4 16 -14 q0 -10 -16 -23 q-43 -30 -43 -110 l0 -54 l180 0 q60 0 166 13 l0 -119 q-90 10 -166 12 l-180 0 l0 -211 l152 0 q67 2 149 13 l0 -119 q-112 12 -151 12 l-150 0 l0 -274 l252 0 q68 2 172 12 l0 -119 q-98 10 -172 12 l-643 0 q-70 -2 -172 -12 l0 119 q110 -12 172 -12 l281 0 l0 274 l-125 0 q-35 0 -156 -12 l0 119 q106 -11 158 -13 l123 0 l0 211 l-256 0 q-54 -131 -115 -248 q-47 27 -121 45 q168 238 203 492 ZM1847 1483 q-10 -113 -12 -168 l0 -340 q2 -60 12 -170 q-116 10 -192 12 l-373 0 q-57 0 -184 -12 q10 98 12 172 l0 319 q-2 72 -12 187 q108 -10 176 -13 l387 0 q49 0 186 13 ZM1221 1096 l0 -185 l503 0 l0 185 l-503 0 ZM1221 1376 l0 -186 l503 0 l0 186 l-503 0 Z" /><glyph glyph-name="" unicode="&#x91cf;" d="M1954 895 l0 -119 q-90 15 -166 12 l-1518 0 q-73 3 -166 -12 l0 119 q72 -14 166 -12 l1518 0 q72 -2 166 12 ZM1665 1479 q-14 -72 -12 -142 l0 -229 q-2 -59 12 -145 q-96 14 -147 12 l-949 0 q-65 0 -96 -2 q-29 -2 -72 -10 q15 81 13 143 l0 217 q0 70 -13 156 q64 -15 158 -13 l963 0 q59 -2 143 13 ZM524 1380 l0 -116 l1018 0 l0 116 l-1018 0 ZM524 1178 l0 -117 l1018 0 l0 117 l-1018 0 ZM322 -139 l669 0 l0 114 l-518 0 q-94 2 -168 -12 l0 119 q74 -14 168 -12 l518 0 l0 118 l-436 0 q-92 2 -170 -12 q14 94 12 170 l0 195 q2 73 -12 168 q88 -15 164 -13 l979 0 q76 -2 176 13 q-14 -90 -12 -166 l0 -197 q-2 -86 12 -170 q-105 12 -176 12 l-422 0 l0 -118 l487 0 q72 -2 168 12 l0 -119 q-92 14 -168 12 l-487 0 l0 -114 l639 0 q70 -2 168 12 l0 -119 q-101 15 -168 13 l-1423 0 q-72 2 -168 -15 l0 121 q77 -14 168 -12 ZM1106 401 l0 -127 l475 0 l0 127 l-475 0 ZM1106 610 l0 -123 l475 0 l0 123 l-475 0 ZM508 401 l0 -127 l483 0 l0 127 l-483 0 ZM508 610 l0 -123 l483 0 l0 123 l-483 0 Z" /><glyph glyph-name="" unicode="&#x9488;" d="M80 969 q287 217 426 628 l149 -63 q21 -10 21 -21 q-2 -10 -23 -18 q-45 -18 -86 -88 q-20 -39 -71 -125 q-15 -25 -21 -35 l322 0 q75 2 166 13 l0 -127 q-95 10 -166 12 l-377 0 q-98 -137 -197 -240 q-59 58 -143 64 ZM295 528 l215 0 l0 281 l-86 0 q-68 -2 -164 -12 l0 127 q98 -11 164 -13 l297 0 q84 4 162 13 l0 -127 q-86 10 -162 12 l-100 0 l0 -281 l180 0 q78 2 168 13 l0 -127 q-99 10 -166 12 l-182 0 l0 -494 q194 132 333 248 q2 -59 39 -127 q-407 -282 -454 -329 l-99 131 q49 34 60 59 q10 18 10 96 l0 416 l-215 0 q-66 -2 -164 -12 l0 127 q92 -11 164 -13 ZM1120 858 l287 0 l0 545 q-2 80 -12 174 l149 -21 q17 -2 19 -14 q0 -12 -15 -22 q-28 -11 -26 -148 l0 -514 l280 0 q74 2 166 12 l0 -127 q-98 11 -166 13 l-280 0 l0 -891 q2 -76 12 -170 l-139 0 q10 92 12 170 l0 891 l-287 0 q-69 -2 -170 -13 l0 127 q99 -10 170 -12 Z" /><glyph glyph-name="" unicode="&#x949f;" d="M1151 1159 l258 0 l0 244 q2 94 -12 180 l155 -20 q25 -2 25 -13 q2 -8 -18 -22 q-33 -15 -31 -135 l0 -234 l268 0 q57 -2 143 12 q-14 -69 -12 -135 l0 -669 q-2 -97 12 -166 l-139 0 q15 57 12 129 l-284 0 l0 -473 q-2 -86 12 -168 l-143 0 q14 88 12 168 l0 473 l-276 0 q-3 -92 12 -172 l-139 0 q14 80 12 166 l0 710 q2 62 -12 137 q86 -14 145 -12 ZM1133 1057 l0 -625 l276 0 l0 625 l-276 0 ZM1528 432 l284 0 l0 625 l-284 0 l0 -625 ZM53 956 q307 248 439 607 l143 -62 q24 -10 22 -18 q-2 -8 -30 -23 q-29 -20 -60 -61 q-12 -21 -37 -58 q-47 -71 -67 -104 l297 0 q61 -2 139 12 l0 -127 q-82 15 -139 13 l-365 0 q-98 -129 -207 -258 q-47 65 -135 79 ZM272 485 l197 0 l0 299 l-98 0 q-62 2 -135 -12 l0 127 q79 -14 133 -12 l327 0 q64 -2 133 12 l0 -127 q-75 14 -137 12 l-108 0 l0 -299 l172 0 q53 -2 129 13 l0 -127 q-76 14 -129 12 l-172 0 l0 -438 q178 112 280 192 l31 -123 q-303 -186 -410 -278 l-86 131 q74 45 70 104 l0 412 l-190 0 q-56 2 -132 -12 l0 127 q72 -15 125 -13 Z" /><glyph glyph-name="" unicode="&#x9519;" d="M502 1614 l141 -60 q31 -12 29 -20 q0 -8 -33 -27 q-49 -32 -90 -96 q-35 -61 -86 -143 l225 0 q60 0 174 12 l0 -119 q-114 13 -174 13 l-285 0 q-110 -154 -194 -246 q-72 51 -143 67 q262 185 436 619 ZM156 406 l0 118 q102 -10 161 -12 l142 0 l0 328 l-43 0 q-58 -2 -156 -13 l0 119 q94 -12 156 -12 l198 0 q52 0 158 12 l0 -119 q-104 13 -158 13 l-41 0 l0 -328 l103 0 q57 0 164 12 l0 -118 q-105 12 -164 12 l-103 0 l0 -484 l258 193 q5 -51 23 -123 q-299 -194 -379 -297 q-37 76 -90 131 q49 29 59 58 q15 24 15 98 l0 424 l-142 0 q-55 0 -161 -12 ZM877 745 l0 123 q102 -12 163 -12 l111 0 l0 328 l-47 0 q-57 0 -154 -13 l0 123 q92 -10 154 -12 l47 0 l0 148 q-2 57 -12 176 l164 -21 q20 -4 20 -12 q0 -10 -23 -25 q-32 -26 -34 -98 l0 -168 l295 0 l0 141 q-2 70 -13 191 l160 -23 q23 -4 23 -8 q2 -6 -15 -18 q-41 -31 -41 -133 l0 -150 l68 0 q67 0 162 12 l0 -123 q-101 13 -162 13 l-68 0 l0 -328 l135 0 q72 2 172 12 l0 -123 q-106 13 -172 13 l-770 0 q-61 0 -163 -13 ZM1266 1184 l0 -328 l295 0 l0 328 l-295 0 ZM1860 612 q-11 -110 -13 -182 l0 -504 q0 -67 13 -202 l-140 0 q9 55 13 120 l-611 0 q0 -51 13 -151 l-140 0 q11 123 13 207 l0 530 q0 59 -13 182 q109 -12 181 -12 l497 0 q60 0 187 12 ZM1122 166 l0 -232 l611 0 l0 232 l-611 0 ZM1122 506 l0 -246 l611 0 l0 246 l-611 0 Z" /><glyph glyph-name="" unicode="&#x95ee;" d="M336 1497 l94 90 q115 -100 283 -278 l-97 -97 q-112 140 -280 285 ZM659 205 q15 61 13 127 l0 442 q2 58 -13 133 q82 -14 138 -12 l426 0 q49 -2 137 12 q-14 -78 -12 -143 l0 -422 q-2 -61 12 -137 q-96 14 -146 12 l-409 0 q-68 0 -146 -12 ZM782 793 l0 -473 l455 0 l0 473 l-455 0 ZM385 -311 l-139 0 q14 71 12 141 l0 1221 q2 86 -12 178 l164 -21 q18 -4 20 -12 q0 -10 -18 -20 q-41 -21 -39 -140 l0 -1204 q-2 -63 12 -143 ZM1411 -121 q108 -16 168 -16 q36 0 53 6 q51 12 47 92 l0 1337 l-669 0 q-66 2 -152 -12 l0 131 q76 -14 139 -12 l645 0 q82 -2 164 12 q-14 -78 -12 -153 l0 -1342 q2 -108 -63 -145 q-64 -41 -267 -56 q-8 91 -53 158 Z" /><glyph glyph-name="" unicode="&#x95f4;" d="M301 1501 l92 90 q164 -147 301 -291 l-94 -90 q-137 170 -299 291 ZM379 -326 l-139 0 q14 97 12 177 l0 1144 q0 95 -12 203 l163 -20 q19 -4 21 -13 q0 -10 -18 -20 q-41 -21 -39 -139 l0 -1155 q-2 -84 12 -177 ZM1434 -156 q92 -14 144 -14 q39 0 60 8 q52 15 50 90 l0 1411 l-617 0 q-72 2 -158 -12 l0 127 q82 -14 158 -12 l578 0 q69 0 166 12 q-15 -86 -13 -174 l0 -1386 q2 -109 -61 -146 q-62 -43 -254 -59 q-12 90 -53 155 ZM651 90 q15 84 13 148 l0 604 q2 59 -13 159 q94 -14 162 -12 l447 0 q69 -2 139 12 q-15 -88 -13 -139 l0 -610 q-2 -72 13 -162 q-94 14 -160 12 l-434 0 q-62 0 -154 -12 ZM774 489 l0 -288 l502 0 l0 288 l-502 0 ZM774 588 l502 0 l0 303 l-502 0 l0 -303 Z" /><glyph glyph-name="" unicode="&#x961f;" d="M219 1479 q100 -15 189 -13 l323 0 q90 0 199 13 q-47 -84 -94 -183 q-111 -225 -213 -407 q274 -238 268 -477 q-8 -252 -397 -320 q-25 107 -74 174 q52 -6 96 -6 q242 0 244 182 q-10 236 -291 412 q141 219 260 514 l-387 0 l0 -1474 q0 -68 12 -175 l-135 0 q12 97 12 170 l0 1399 q0 78 -12 191 ZM1245 1579 l170 -18 q29 -2 29 -13 q2 -10 -25 -30 q-22 -17 -28 -52 q-7 -30 -7 -135 q0 -160 0 -309 q103 -733 605 -1147 q-113 -27 -177 -88 q-327 373 -485 928 q-110 -553 -622 -985 q-54 51 -140 104 q623 365 684 1163 q11 168 11 349 q-3 174 -15 233 Z" /><glyph glyph-name="" unicode="&#x9664;" d="M537 -96 q217 112 393 413 l106 -84 q21 -16 21 -26 q2 -10 -17 -14 q-65 -19 -102 -72 q-104 -141 -287 -313 q-49 49 -114 96 ZM559 875 q451 231 627 720 l147 -47 q17 -6 15 -16 q-2 -8 -23 -16 q-16 -5 -33 -31 q271 -408 674 -518 q-59 -58 -100 -133 q-434 235 -635 550 q-221 -380 -535 -604 q-55 54 -137 95 ZM1509 778 l-188 0 l0 -252 l332 0 q80 0 174 13 l0 -127 q-84 12 -174 12 l-332 0 l0 -504 q4 -121 -51 -158 q-49 -43 -246 -69 q-16 71 -59 145 q74 -9 117 -9 q51 0 77 11 q49 15 47 86 l0 498 l-262 0 q-74 0 -164 -12 l0 127 q76 -13 164 -13 l262 0 l0 252 l-170 0 q-73 0 -172 -12 l0 127 q80 -12 172 -12 l473 0 q72 0 174 12 l0 -127 q-92 12 -174 12 ZM1466 223 l97 88 q176 -174 354 -366 l-96 -88 q-162 190 -355 366 ZM180 1483 q113 -13 189 -13 l254 0 q90 0 184 13 q-141 -312 -305 -627 q231 -240 231 -442 q17 -293 -315 -346 q-17 77 -53 161 q35 -4 58 -4 q185 0 187 168 q4 234 -248 449 q150 258 252 526 l-307 0 l0 -1477 q0 -106 8 -180 l-135 0 q13 99 13 180 l0 1409 q0 68 -13 183 Z" /><glyph glyph-name="" unicode="&#x968f;" d="M844 -10 l0 715 l-99 0 q-75 0 -122 -13 l0 119 q49 -12 122 -12 l93 0 q82 0 129 12 q-13 -53 -13 -137 l0 -703 q4 -2 13 -6 q141 -78 217 -92 q76 -16 231 -16 q126 0 295 10 q39 2 59 4 q76 4 191 27 q14 2 22 4 q-22 -41 -55 -158 q-20 -2 -67 -2 q-43 -2 -68 -2 q-129 -5 -238 -5 q-60 0 -90 1 q-125 2 -213 14 q-168 21 -295 107 q-41 34 -86 34 q-100 0 -215 -167 q-34 61 -90 135 q148 88 279 131 ZM715 1305 l100 55 q96 -168 154 -309 l-107 -58 q-22 144 -147 312 ZM932 868 q174 119 285 342 l-95 0 q-102 0 -161 -12 l0 123 q59 -12 155 -12 l148 0 q53 106 82 264 l139 -33 q26 -6 28 -16 q0 -11 -24 -27 q-33 -16 -45 -55 q-19 -55 -55 -133 l331 0 q111 0 174 12 l0 -123 q-59 12 -168 12 l-380 0 q-82 -153 -138 -237 l434 0 q99 0 152 12 q-12 -47 -12 -141 l0 -694 q1 -11 1 -23 q0 -170 -257 -170 q-6 37 -64 141 q-2 6 -4 9 q62 -8 108 -8 q44 0 62 8 q41 12 39 71 l0 152 l-397 0 l0 -199 q0 -113 12 -174 l-139 0 q12 72 12 172 l0 766 q-39 -51 -96 -107 q-49 44 -127 80 ZM1270 696 l397 0 l0 179 l-397 0 l0 -179 ZM1270 428 l397 0 l0 170 l-397 0 l0 -170 ZM188 1436 q60 -13 152 -13 l217 0 q94 0 150 13 q-7 -17 -15 -43 q-14 -39 -16 -49 q-88 -326 -168 -572 q135 -166 170 -270 q27 -72 27 -163 q0 -47 -7 -97 q-22 -158 -252 -174 q-28 75 -73 149 q38 -5 75 -5 q134 0 140 85 q3 24 3 43 q0 188 -202 395 q137 414 164 590 l-238 0 l0 -1464 q0 -8 0 -25 q-2 -96 9 -149 l-136 0 q13 67 13 172 l0 1394 q0 121 -13 183 Z" /><glyph glyph-name="" unicode="&#x9875;" d="M1921 1493 l0 -127 q-74 12 -133 12 l-684 0 q-33 -141 -80 -293 l479 0 q80 0 158 13 q-12 -70 -12 -154 l0 -655 q0 -84 12 -152 l-143 0 q12 82 12 152 l0 694 l-928 0 l0 -760 q0 -76 12 -153 l-143 0 q10 75 12 153 l0 723 q0 70 -12 152 q68 -13 143 -13 l281 0 q43 179 68 293 l-666 0 q-70 0 -147 -12 l0 127 q53 -12 149 -12 l1489 0 q65 0 133 12 ZM311 -305 q-35 84 -121 143 q496 60 662 273 q138 165 138 503 q0 90 -11 201 l170 -18 q33 -2 33 -6 q4 -5 -17 -23 q-49 -66 -55 -180 q5 -51 5 -93 q0 -593 -804 -800 ZM1145 102 l72 109 q333 -162 671 -360 l-88 -125 q-311 213 -655 376 Z" /><glyph glyph-name="" unicode="&#x9876;" d="M135 1257 l0 123 q80 -12 162 -12 l319 0 q56 -2 148 12 l0 -123 q-98 13 -148 13 l-73 0 l0 -1204 q4 -146 -45 -177 q-39 -38 -238 -47 q-14 90 -49 146 q69 -9 113 -9 q49 0 67 11 q39 16 37 104 l0 1176 l-129 0 q-74 2 -164 -13 ZM1235 813 l156 -25 q22 -2 22 -10 q0 -6 -22 -28 q-29 -23 -33 -125 q-21 -432 -127 -584 q-96 -168 -451 -348 q-45 67 -112 131 q360 76 473 283 q100 166 100 525 q0 77 -6 181 ZM811 1380 l0 123 q80 -14 154 -12 l770 0 q71 0 170 12 l0 -123 q-99 13 -170 13 l-355 0 q-49 -166 -90 -305 l309 0 q76 0 175 12 q-13 -96 -13 -180 l0 -607 q0 -63 13 -157 l-140 0 q13 96 13 159 l0 674 l-662 0 l0 -706 q0 -72 12 -158 l-139 0 q12 88 12 168 l0 635 q0 76 -12 172 q86 -15 178 -12 l146 0 q20 75 51 204 q18 68 27 101 l-297 0 q-62 2 -152 -13 ZM1358 53 l78 97 q278 -168 475 -332 l-82 -101 q-234 199 -471 336 Z" /><glyph glyph-name="" unicode="&#x9898;" d="M57 -170 q211 236 252 641 l166 -57 q19 -6 19 -16.5 q0 -10.5 -21 -16.5 q-41 -10 -53 -53 q-17 -60 -35 -107 q61 -121 197 -215 l0 565 l-316 0 q-65 0 -160 -12 l0 127 q93 -12 160 -12 l586 0 q72 0 149 12 l0 -127 q-86 12 -149 12 l-156 0 l0 -221 l123 0 q68 0 152 13 l0 -123 q-86 14 -152 12 l-123 0 l0 -303 q109 -51 439 -53 q81 -2 187 -2 q172 0 294 8 q203 10 366 43 q-57 -76 -65 -172 q-432 0 -836 6 q-506 -10 -737 305 q-51 -133 -139 -307 q-70 41 -148 53 ZM270 809 q13 100 13 176 l0 336 q2 66 -13 170 q103 -12 168 -12 l340 0 q76 0 174 12 q-14 -109 -12 -168 l0 -338 q0 -76 12 -176 q-96 12 -174 12 l-346 0 q-74 0 -162 -12 ZM397 1102 l0 -182 l428 0 l0 182 l-428 0 ZM397 1380 l0 -180 l428 0 l0 180 l-428 0 ZM932 111 q285 55 373 237 q47 92 59 236 q5 58 5 125 q0 102 -11 239 l160 -16 q16 -2 18 -8 q2 -6 -12 -19 q-37 -28 -39 -110 q-8 -195 -21 -303 q-43 -340 -428 -512 q-28 73 -104 131 ZM1804 334 l-139 0 q12 110 12 180 l0 537 l-481 0 l0 -549 q0 -74 12 -168 l-139 0 q12 102 12 168 l0 493 q0 66 -12 170 q98 -12 160 -12 l61 0 q35 109 62 227 l-176 0 q-72 0 -162 -12 l0 127 q104 -12 162 -12 l589 0 q62 -2 152 12 l0 -127 q-86 14 -152 12 l-290 0 q-37 -114 -76 -227 l241 0 q76 -2 164 12 q-12 -94 -12 -170 l0 -481 q0 -63 12 -180 ZM1544 381 q191 -141 338 -287 l-90 -90 q-156 166 -330 291 l82 86 Z" /><glyph glyph-name="" unicode="&#x9996;" d="M285 1227 l858 0 q211 256 252 397 l129 -80 q37 -22 35 -31 q2 -10 -33 -18 q-53 -4 -123 -104 q-92 -123 -125 -164 l471 0 q49 2 166 12 l0 -127 q-103 10 -164 12 l-670 0 q-63 -147 -110 -247 l452 0 q50 0 187 12 q-11 -103 -13 -182 l0 -830 q2 -69 13 -176 l-135 0 q6 68 8 131 l-897 0 q2 -53 12 -162 l-139 0 q10 109 12 172 l0 863 q-2 59 -12 184 q139 -12 186 -12 l201 0 q59 143 94 247 l-655 0 q-49 0 -164 -12 l0 127 q102 -10 164 -12 ZM586 258 l897 0 l0 195 l-897 0 l0 -195 ZM586 -70 l897 0 l0 226 l-897 0 l0 -226 ZM586 774 l0 -219 l897 0 l0 219 l-897 0 ZM639 1600 q135 -132 262 -275 l-94 -86 q-129 164 -260 281 l92 80 Z" /><glyph glyph-name="" unicode="&#x9ad8;" d="M221 616 q98 -12 178 -12 l1223 0 q64 -2 172 12 q-12 -102 -12 -165 l0 -523 q4 -135 -62 -172 q-55 -45 -280 -61 q-10 78 -62 151 q93 -12 149 -12 q52 0 97 14.5 q45 14.5 43 85.5 l0 568 l-1319 0 l0 -621 q0 -65 12 -182 l-139 0 q12 109 12 182 l0 549 q0 64 -12 186 ZM1409 369 q-12 -86 -12 -158 l0 -94 q0 -60 12 -152 q-100 12 -160 12 l-504 0 q-67 0 -172 -12 q15 99 13 150 l0 96 q0 55 -13 158 q109 -13 172 -13 l504 0 q60 0 160 13 ZM696 258 l0 -182 l590 0 l0 182 l-590 0 ZM305 1350 l746 0 q-76 80 -213 170 l80 92 q131 -88 256 -195 l-58 -67 l629 0 q74 0 168 12 l0 -127 q-94 12 -168 12 l-1440 0 q-72 0 -166 -12 l0 127 q97 -12 166 -12 ZM1532 1126 q-12 -98 -12 -161 l0 -95 q0 -53 12 -155 q-96 12 -170 12 l-700 0 q-66 0 -168 -12 q12 80 12 145 l0 105 q0 61 -12 161 q98 -12 168 -12 l694 0 q76 0 176 12 ZM621 1012 l0 -183 l784 0 l0 183 l-784 0 Z" /><glyph glyph-name="" unicode="&#xff0c;" d="M424 -37 q0 -89 -14 -151 q-14 -62 -48 -124 l-90 0 q74 120 74 232 l-66 0 l0 173 l144 0 l0 -130 Z" /><glyph glyph-name="" unicode="&#xff1a;" d="M1023 941 q-37 0 -64 27 q-27 27 -27 67 q0 39 26 65 q26 26 65 26 q39 0 67 -26 q28 -26 28 -65 q0 -37 -26.5 -65.5 q-26.5 -28.5 -68.5 -28.5 ZM1023 -20 q-39 0 -65 28 q-26 28 -26 65 q0 39 25.5 65.5 q25.5 26.5 65.5 26.5 q39 0 67 -26.5 q28 -26.5 28 -65.5 q0 -37 -27 -65 q-27 -28 -68 -28 Z" /><glyph glyph-name="" unicode="!" d="M344 302 l-103 0 l-20 1027 l143 0 l-20 -1027 ZM218 -80 l0 164 l144 0 l0 -164 l-144 0 Z" /><glyph glyph-name="" unicode="&quot;" d="M590 957 l-100 0 l-18 372 l137 0 l-19 -372 ZM252 957 l-99 0 l-19 372 l137 0 l-19 -372 Z" /><glyph glyph-name="" unicode="#" d="M922 821 l-81 -394 l262 0 l0 -87 l-281 0 l-90 -420 l-87 0 l89 420 l-392 0 l-87 -420 l-87 0 l87 420 l-204 0 l0 87 l223 0 l83 394 l-255 0 l0 86 l273 0 l90 422 l87 0 l-90 -422 l392 0 l90 422 l87 0 l-90 -422 l213 0 l0 -86 l-232 0 ZM445 821 l-84 -394 l393 0 l82 394 l-391 0 Z" /><glyph glyph-name="" unicode="$" d="M993 301 q0 -160 -106.5 -256.5 q-106.5 -96.5 -295.5 -104.5 l0 -156 l-89 0 l0 156 q-365 10 -424 338 l123 27 q23 -130 97.5 -193.5 q74.5 -63.5 203.5 -68.5 l0 558 q-162 46 -231 92 q-69 46 -106 115.5 q-37 69.5 -37 172.5 q0 146 100 233.5 q100 87.5 274 91.5 l0 127 l89 0 l0 -127 q167 -8 259.5 -80.5 q92.5 -72.5 126.5 -221.5 l-127 -26 q-23 110 -84 164.5 q-61 54.5 -175 61.5 l0 -505 q128 -36 178.5 -58.5 q50.5 -22.5 92 -51.5 q41.5 -29 70.5 -69.5 q29 -40.5 45 -95 q16 -54.5 16 -123.5 ZM502 1205 q-124 -5 -187.5 -62.5 q-63.5 -57.5 -63.5 -159.5 q0 -68 24.5 -116 q24.5 -48 72 -81.5 q47.5 -33.5 154.5 -67.5 l0 487 ZM869 299 q0 77 -26.5 128 q-26.5 51 -77.5 84.5 q-51 33.5 -174 68.5 l0 -538 q136 7 207 72.5 q71 65.5 71 184.5 Z" /><glyph glyph-name="" unicode="%" d="M273 -80 l-88 0 l561 1409 l89 0 l-562 -1409 ZM792 805 q90 0 136.5 -112.5 q46.5 -112.5 46.5 -335.5 q0 -223 -49 -336 q-49 -113 -136 -113 q-184 0 -184 449 q0 224 47 336 q47 112 139 112 ZM886 357 q0 189 -18.5 276 q-18.5 87 -75.5 87 q-56 0 -76.5 -86 q-20.5 -86 -20.5 -277 q0 -186 20.5 -274.5 q20.5 -88.5 75.5 -88.5 q95 0 95 363 ZM235 1340 q89 0 135.5 -112.5 q46.5 -112.5 46.5 -334.5 q0 -223 -49 -336.5 q-49 -113.5 -136 -113.5 q-184 0 -184 450 q0 224 47 335.5 q47 111.5 140 111.5 ZM328 893 q0 189 -18.5 276 q-18.5 87 -74.5 87 q-58 0 -78 -86 q-20 -86 -20 -277 q0 -190 20.5 -276.5 q20.5 -86.5 75.5 -86.5 q55 0 75 91.5 q20 91.5 20 271.5 Z" /><glyph glyph-name="" unicode="&amp;" d="M482 714 q-130 163 -130 315 q0 143 91.5 225 q91.5 82 250.5 82 q146 0 235 -74 q89 -74 89 -201 q0 -123 -77.5 -210 q-77.5 -87 -284.5 -176 q147 -179 387 -424 q78 88 135 219.5 q57 131.5 75 244.5 l120 -14 q-24 -135 -90 -279.5 q-66 -144.5 -160 -249.5 q64 -64 134.5 -103 q70.5 -39 120.5 -39 q51 0 99 13 l0 -110 q-52 -20 -119 -20 q-65 0 -140 38.5 q-75 38.5 -185 141.5 q-112 -105 -230 -148.5 q-118 -43.5 -261 -43.5 q-128 0 -226.5 47.5 q-98.5 47.5 -153.5 135.5 q-55 88 -55 199 q0 149 86 248.5 q86 99.5 289 182.5 ZM594 750 q174 74 237.5 141 q63.5 67 63.5 167 q0 83 -57.5 133.5 q-57.5 50.5 -146.5 50.5 q-104 0 -162 -56.5 q-58 -56.5 -58 -156.5 q0 -66 35 -142.5 q35 -76.5 88 -136.5 ZM540 634 q-166 -67 -234 -144.5 q-68 -77.5 -68 -206.5 q0 -123 87.5 -198 q87.5 -75 231.5 -75 q119 0 225 43.5 q106 43.5 174 117.5 q-316 344 -416 463 Z" /><glyph glyph-name="" unicode="&#39;" d="M276 957 l-99 0 l-19 372 l137 0 l-19 -372 Z" /><glyph glyph-name="" unicode="(" d="M103 452 q0 276 75 480 q75 204 251 442 l119 0 q-177 -240 -253.5 -446.5 q-76.5 -206.5 -76.5 -477.5 q0 -270 76 -476.5 q76 -206.5 254 -448.5 l-119 0 q-172 231 -249 438.5 q-77 207.5 -77 488.5 Z" /><glyph glyph-name="" unicode=")" d="M495 449 q0 -270 -74.5 -475.5 q-74.5 -205.5 -252.5 -448.5 l-118 0 q177 240 253.5 446.5 q76.5 206.5 76.5 477.5 q0 268 -76 475 q-76 207 -254 450 l118 0 q176 -237 251.5 -443 q75.5 -206 75.5 -482 Z" /><glyph glyph-name="" unicode="*" d="M464 666 l281 105 l35 -102 l-295 -76 l186 -249 l-92 -57 l-158 260 l-165 -258 l-92 57 l193 247 l-294 76 l37 102 l282 -105 l-14 297 l111 0 l-15 -297 Z" /><glyph glyph-name="" unicode="+" d="M735 548 l0 -428 l-105 0 l0 428 l-426 0 l0 105 l426 0 l0 428 l105 0 l0 -428 l426 0 l0 -105 l-426 0 Z" /><glyph glyph-name="" unicode="," d="M299 -37 q0 -89 -14 -151 q-14 -62 -48 -124 l-90 0 q74 120 74 232 l-66 0 l0 173 l144 0 l0 -130 Z" /><glyph glyph-name="" unicode="-&#x2010;" d="M222 373 l0 114 l580 0 l0 -114 l-580 0 Z" /><glyph glyph-name="" unicode="." d="M152 -80 l0 173 l145 0 l0 -173 l-145 0 Z" /><glyph glyph-name="" unicode="/" d="M135 -80 l-129 0 l637 1456 l124 0 l-632 -1456 Z" /><glyph glyph-name="" unicode="0" d="M994 625 q0 -353 -114 -539 q-114 -186 -337 -186 q-221 0 -333.5 182 q-112.5 182 -112.5 543 q0 367 109.5 546 q109.5 179 343.5 179 q225 0 334.5 -180 q109.5 -180 109.5 -545 ZM866 625 q0 323 -74.5 471 q-74.5 148 -242.5 148 q-174 0 -249.5 -148.5 q-75.5 -148.5 -75.5 -470.5 q0 -315 78 -466.5 q78 -151.5 243 -151.5 q164 0 242.5 155.5 q78.5 155.5 78.5 462.5 Z" /><glyph glyph-name="" unicode="1" d="M155 -80 l0 107 l360 0 l0 1171 l-322 -214 l0 115 l336 230 l111 0 l0 -1302 l307 0 l0 -107 l-792 0 Z" /><glyph glyph-name="" unicode="2" d="M111 -80 l0 90 q46 116 133.5 230.5 q87.5 114.5 256.5 261.5 q174 150 243.5 253 q69.5 103 69.5 216 q0 130 -73 200.5 q-73 70.5 -203 70.5 q-118 0 -193.5 -69.5 q-75.5 -69.5 -88.5 -190.5 l-128 16 q15 158 126.5 255 q111.5 97 284.5 97 q191 0 298 -98 q107 -98 107 -273 q0 -90 -32 -169 q-32 -79 -96 -157.5 q-64 -78.5 -218 -215.5 q-270 -240 -341 -404 l708 0 l0 -113 l-854 0 Z" /><glyph glyph-name="" unicode="3" d="M966 308 q0 -194 -114 -301 q-114 -107 -322 -107 q-399 0 -445 365 l129 14 q35 -271 316 -271 q149 0 227.5 76 q78.5 76 78.5 224 q0 132 -93.5 201 q-93.5 69 -262.5 69 l-96 0 l0 117 l93 0 q94 0 166.5 31 q72.5 31 114.5 91.5 q42 60.5 42 149.5 q0 132 -69.5 204 q-69.5 72 -204.5 72 q-121 0 -197.5 -62.5 q-76.5 -62.5 -89.5 -191.5 l-126 11 q19 167 128.5 258.5 q109.5 91.5 285.5 91.5 q191 0 296.5 -97.5 q105.5 -97.5 105.5 -274.5 q0 -129 -74 -217.5 q-74 -88.5 -208 -117.5 l0 -4 q150 -19 234.5 -108.5 q84.5 -89.5 84.5 -222.5 Z" /><glyph glyph-name="" unicode="4" d="M805 257 l0 -337 l-125 0 l0 337 l-635 0 l0 100 l623 972 l137 0 l0 -967 l191 0 l0 -105 l-191 0 ZM680 1161 l-508 -799 l508 0 l0 799 Z" /><glyph glyph-name="" unicode="5" d="M975 374 q0 -224 -118.5 -349 q-118.5 -125 -331.5 -125 q-341 0 -408 315 l127 20 q31 -123 100 -175.5 q69 -52.5 190 -52.5 q149 0 230 94 q81 94 81 268 q0 149 -79.5 237.5 q-79.5 88.5 -217.5 88.5 q-81 0 -143 -24.5 q-62 -24.5 -125 -80.5 l-119 0 l44 739 l700 0 l0 -108 l-586 0 l-33 -510 q70 51 137.5 70.5 q67.5 19.5 144.5 19.5 q187 0 297 -115.5 q110 -115.5 110 -311.5 Z" /><glyph glyph-name="" unicode="6" d="M975 381 q0 -224 -112 -352.5 q-112 -128.5 -304 -128.5 q-215 0 -328.5 175 q-113.5 175 -113.5 517 q0 378 119.5 568 q119.5 190 352.5 190 q142 0 228 -61.5 q86 -61.5 125 -191.5 l-121 -27 q-53 174 -240 174 q-164 0 -250.5 -155.5 q-86.5 -155.5 -88.5 -458.5 q50 94 136.5 143.5 q86.5 49.5 197.5 49.5 q183 0 291 -118.5 q108 -118.5 108 -323.5 ZM847 373 q0 163 -77.5 255.5 q-77.5 92.5 -220.5 92.5 q-80 0 -147 -37 q-67 -37 -105.5 -106 q-38.5 -69 -38.5 -160 q0 -179 82.5 -295.5 q82.5 -116.5 215.5 -116.5 q137 0 214 98 q77 98 77 269 Z" /><glyph glyph-name="" unicode="7" d="M970 1219 q-241 -377 -353 -696 q-112 -319 -112 -603 l-130 0 q0 280 119.5 608.5 q119.5 328.5 349.5 686.5 l-738 0 l0 114 l864 0 l0 -110 Z" /><glyph glyph-name="" unicode="8" d="M976 311 q0 -196 -113 -303.5 q-113 -107.5 -323 -107.5 q-208 0 -322.5 108 q-114.5 108 -114.5 301 q0 136 74 230 q74 94 194 118 l0 4 q-109 29 -173 120 q-64 91 -64 214 q0 159 109 257 q109 98 293 98 q189 0 298 -98.5 q109 -98.5 109 -258.5 q0 -127 -65.5 -216 q-65.5 -89 -173.5 -113 l0 -4 q124 -24 198 -115.5 q74 -91.5 74 -233.5 ZM813 988 q0 130 -72 196 q-72 66 -205 66 q-132 0 -202.5 -67.5 q-70.5 -67.5 -70.5 -194.5 q0 -129 72.5 -202.5 q72.5 -73.5 202.5 -73.5 q134 0 204.5 72 q70.5 72 70.5 204 ZM846 323 q0 134 -80 210.5 q-80 76.5 -229 76.5 q-143 0 -224 -80 q-81 -80 -81 -211 q0 -154 79.5 -236 q79.5 -82 230.5 -82 q153 0 228.5 81.5 q75.5 81.5 75.5 240.5 Z" /><glyph glyph-name="" unicode="9" d="M964 655 q0 -369 -120 -562 q-120 -193 -352 -193 q-293 0 -369 260 l120 26 q27 -92 92.5 -136.5 q65.5 -44.5 159.5 -44.5 q333 0 344 614 q-41 -86 -132.5 -141 q-91.5 -55 -209.5 -55 q-180 0 -286.5 126.5 q-106.5 126.5 -106.5 338.5 q0 215 112 338.5 q112 123.5 311 123.5 q214 0 325.5 -173 q111.5 -173 111.5 -522 ZM823 843 q0 182 -82.5 291 q-82.5 109 -216.5 109 q-139 0 -215.5 -94 q-76.5 -94 -76.5 -260 q0 -171 77 -266.5 q77 -95.5 213 -95.5 q136 0 218.5 88.5 q82.5 88.5 82.5 227.5 Z" /><glyph glyph-name="" unicode=":" d="M152 756 l0 167 l145 0 l0 -167 l-145 0 ZM152 -80 l0 167 l145 0 l0 -167 l-145 0 Z" /><glyph glyph-name="" unicode=";" d="M154 756 l0 167 l145 0 l0 -167 l-145 0 ZM299 -37 q0 -88 -14 -149.5 q-14 -61.5 -49 -125.5 l-89 0 q74 123 74 232 l-67 0 l0 167 l145 0 l0 -124 Z" /><glyph glyph-name="" unicode="&lt;" d="M204 521 l0 141 l957 433 l0 -114 l-856 -389 l856 -390 l0 -113 l-957 432 Z" /><glyph glyph-name="" unicode="=" d="M204 785 l0 106 l957 0 l0 -106 l-957 0 ZM204 293 l0 106 l957 0 l0 -106 l-957 0 Z" /><glyph glyph-name="" unicode="&gt;" d="M204 89 l0 113 l856 390 l-856 389 l0 114 l957 -433 l0 -141 l-957 -432 Z" /><glyph glyph-name="" unicode="@" d="M498 379 q0 162 65.5 304 q65.5 142 181.5 225 q116 83 258 83 q108 0 186.5 -51 q78.5 -51 116.5 -142 l7 0 l43 171 l116 0 l-116 -506 q-45 -193 -45 -276 q0 -99 89 -99 q86 0 162.5 73 q76.5 73 122 200.5 q45.5 127.5 45.5 281.5 q0 188 -79.5 331.5 q-79.5 143.5 -229 221.5 q-149.5 78 -352.5 78 q-251 0 -443 -111 q-192 -111 -300 -318.5 q-108 -207.5 -108 -463.5 q0 -200 80.5 -352 q80.5 -152 233.5 -235 q153 -83 363 -83 q155 0 305 38 q150 38 305 122 l41 -86 q-162 -92 -320.5 -133.5 q-158.5 -41.5 -333.5 -41.5 q-236 0 -415 95.5 q-179 95.5 -275.5 274 q-96.5 178.5 -96.5 401.5 q0 276 121.5 504.5 q121.5 228.5 341.5 358.5 q220 130 499 130 q239 0 413.5 -90 q174.5 -90 267 -255.5 q92.5 -165.5 92.5 -383.5 q0 -183 -58.5 -332.5 q-58.5 -149.5 -162.5 -234 q-104 -84.5 -229 -84.5 q-85 0 -132 46.5 q-47 46.5 -47 128.5 q0 53 7 84 l-6 0 q-50 -110 -158 -184.5 q-108 -74.5 -223 -74.5 q-157 0 -245 102.5 q-88 102.5 -88 282.5 ZM1264 649 q0 111 -71.5 179 q-71.5 68 -186.5 68 q-113 0 -199.5 -69 q-86.5 -69 -136 -189 q-49.5 -120 -49.5 -257 q0 -140 61 -215 q61 -75 174 -75 q77 0 154.5 49 q77.5 49 136 136.5 q58.5 87.5 88 201.5 q29.5 114 29.5 171 Z" /><glyph glyph-name="" unicode="A" d="M1139 -80 l-169 440 l-635 0 l-169 -440 l-142 0 l550 1409 l159 0 l547 -1409 l-141 0 ZM651 1218 q-19 -62 -41 -124 q-22 -62 -45 -123 l-192 -500 l559 0 l-190 501 q-23 62 -45 123 q-22 61 -42 123 l-4 0 Z" /><glyph glyph-name="" unicode="B" d="M1076 315 q0 -188 -133 -291.5 q-133 -103.5 -371 -103.5 l-387 0 l0 1409 l327 0 q482 0 482 -340 q0 -126 -70 -211 q-70 -85 -198 -114 q162 -19 256 -112.5 q94 -93.5 94 -236.5 ZM858 976 q0 127 -87.5 186 q-87.5 59 -262.5 59 l-189 0 l0 -512 l191 0 q171 0 259.5 68.5 q88.5 68.5 88.5 198.5 ZM940 322 q0 138 -104.5 210 q-104.5 72 -298.5 72 l-218 0 l0 -577 l232 0 q193 0 291 76 q98 76 98 219 Z" /><glyph glyph-name="" unicode="C" d="M704 -100 q-273 0 -427.5 195.5 q-154.5 195.5 -154.5 535.5 q0 340 158 529.5 q158 189.5 438 189.5 q179 0 301.5 -72 q122.5 -72 191.5 -230 l-124 -52 q-51 128 -143.5 184 q-92.5 56 -225.5 56 q-220 0 -339.5 -161 q-119.5 -161 -119.5 -444 q0 -288 119.5 -453 q119.5 -165 331.5 -165 q149 0 245 72 q96 72 143 196 l117 -54 q-140 -327 -511 -327 Z" /><glyph glyph-name="" unicode="D" d="M1293 640 q0 -220 -82.5 -384 q-82.5 -164 -234.5 -250 q-152 -86 -353 -86 l-438 0 l0 1409 l390 0 q351 0 534.5 -176 q183.5 -176 183.5 -513 ZM1157 640 q0 575 -587 575 l-251 0 l0 -1181 l287 0 q258 0 404.5 159.5 q146.5 159.5 146.5 446.5 Z" /><glyph glyph-name="" unicode="E" d="M185 -80 l0 1409 l733 0 l0 -112 l-599 0 l0 -517 l538 0 l0 -111 l-538 0 l0 -557 l640 0 l0 -112 l-774 0 Z" /><glyph glyph-name="" unicode="F" d="M185 -80 l0 1409 l742 0 l0 -113 l-608 0 l0 -516 l566 0 l0 -111 l-566 0 l0 -669 l-134 0 Z" /><glyph glyph-name="" unicode="G" d="M732 -100 q-295 0 -456.5 194 q-161.5 194 -161.5 537 q0 345 158 532 q158 187 450 187 q386 0 514 -309 l-129 -46 q-97 240 -387 240 q-229 0 -349 -155.5 q-120 -155.5 -120 -448.5 q0 -289 128.5 -453.5 q128.5 -164.5 357.5 -164.5 q236 0 384 154 l0 326 l-376 0 l0 111 l502 0 l0 -480 q-203 -224 -515 -224 Z" /><glyph glyph-name="" unicode="H" d="M1103 -80 l0 679 l-784 0 l0 -679 l-134 0 l0 1409 l134 0 l0 -614 l784 0 l0 614 l132 0 l0 -1409 l-132 0 Z" /><glyph glyph-name="" unicode="I" d="M186 -80 l0 1409 l134 0 l0 -1409 l-134 0 Z" /><glyph glyph-name="" unicode="J" d="M21 55 q61 -42 168 -42 q106 0 166 80 q60 80 60 229 l0 893 l-199 0 l0 114 l333 0 l0 -1004 q0 -196 -94 -310.5 q-94 -114.5 -254 -114.5 q-119 0 -180 24 l0 131 Z" /><glyph glyph-name="" unicode="L" d="M193 -80 l0 1409 l134 0 l0 -1296 l586 0 l0 -113 l-720 0 Z" /><glyph glyph-name="" unicode="M" d="M1459 -80 l0 1086 q0 43 6 184 q-21 -57 -32.5 -87 q-11.5 -30 -66.5 -165 l-414 -1018 l-124 0 l-436 1051 q-42 97 -85 219 q2 -57 3.5 -114.5 q1.5 -57.5 1.5 -114.5 l0 -1041 l-127 0 l0 1409 l189 0 l422 -1009 q34 -86 94 -253 q24 64 48 126 q24 62 50 125 l412 1011 l187 0 l0 -1409 l-128 0 Z" /><glyph glyph-name="" unicode="N" d="M1143 -80 l-841 1252 q9 -162 9 -260 l0 -992 l-126 0 l0 1409 l157 0 l848 -1261 q-11 141 -11 281 l0 980 l128 0 l0 -1409 l-164 0 Z" /><glyph glyph-name="" unicode="O" d="M1441 631 q0 -219 -81.5 -386 q-81.5 -167 -232 -256 q-150.5 -89 -353.5 -89 q-207 0 -357 89 q-150 89 -229 255.5 q-79 166.5 -79 386.5 q0 336 176.5 527.5 q176.5 191.5 490.5 191.5 q205 0 355 -86 q150 -86 230 -250 q80 -164 80 -383 ZM1303 631 q0 281 -139 443 q-139 162 -388 162 q-252 0 -391 -159.5 q-139 -159.5 -139 -445.5 q0 -285 141.5 -451.5 q141.5 -166.5 386.5 -166.5 q254 0 391.5 163 q137.5 163 137.5 455 Z" /><glyph glyph-name="" unicode="P" d="M1042 914 q0 -125 -57 -222.5 q-57 -97.5 -164.5 -151.5 q-107.5 -54 -253.5 -54 l-240 0 l0 -566 l-134 0 l0 1409 l366 0 q229 0 356 -110 q127 -110 127 -305 ZM906 912 q0 146 -91.5 227.5 q-91.5 81.5 -272.5 81.5 l-215 0 l0 -629 l224 0 q170 0 262.5 83.5 q92.5 83.5 92.5 236.5 Z" /><glyph glyph-name="" unicode="R" d="M937 932 q0 139 -93.5 214 q-93.5 75 -265.5 75 l-259 0 l0 -588 l267 0 q165 0 258 79 q93 79 93 220 ZM1073 934 q0 -158 -98.5 -263 q-98.5 -105 -264.5 -128 l410 -623 l-159 0 l-387 607 l-255 0 l0 -607 l-134 0 l0 1409 l406 0 q229 0 355.5 -105 q126.5 -105 126.5 -290 Z" /><glyph glyph-name="" unicode="S" d="M967 300 q0 -191 -115 -295.5 q-115 -104.5 -325 -104.5 q-381 0 -448 347 l125 26 q29 -139 109 -201 q80 -62 214 -62 q151 0 230.5 73 q79.5 73 79.5 209 q0 78 -27.5 127.5 q-27.5 49.5 -74.5 82 q-47 32.5 -110.5 53.5 q-63.5 21 -136.5 44 q-154 47 -223.5 95.5 q-69.5 48.5 -107.5 120 q-38 71.5 -38 176.5 q0 171 105 265 q105 94 292 94 q177 0 280.5 -73.5 q103.5 -73.5 142.5 -228.5 l-125 -31 q-28 116 -101.5 170.5 q-73.5 54.5 -197.5 54.5 q-128 0 -197.5 -63 q-69.5 -63 -69.5 -183 q0 -75 27 -124.5 q27 -49.5 82.5 -84.5 q55.5 -35 199.5 -80 q166 -53 230.5 -89.5 q64.5 -36.5 102.5 -81 q38 -44.5 57.5 -102.5 q19.5 -58 19.5 -134 Z" /><glyph glyph-name="" unicode="T" d="M592 1214 l0 -1294 l-133 0 l0 1294 l-439 0 l0 115 l1020 0 l0 -115 l-448 0 Z" /><glyph glyph-name="" unicode="U" d="M669 -100 q-236 0 -369 133.5 q-133 133.5 -133 377.5 l0 918 l134 0 l0 -905 q0 -197 96 -304.5 q96 -107.5 275 -107.5 q190 0 291.5 110 q101.5 110 101.5 315 l0 892 l135 0 l0 -898 q0 -250 -140 -390.5 q-140 -140.5 -391 -140.5 Z" /><glyph glyph-name="" unicode="W" d="M429 -80 l-396 1409 l141 0 l240 -886 q59 -219 93 -375 q27 128 105 390 l264 871 l121 0 l257 -870 q66 -222 101 -391 q38 178 93 375 l251 886 l140 0 l-413 -1409 l-138 0 l-275 931 q-50 173 -79 326 q-24 -128 -81 -325 l-281 -932 l-143 0 Z" /><glyph glyph-name="" unicode="X" d="M1020 -80 l-430 646 l-431 -646 l-148 0 l504 741 l-463 668 l148 0 l393 -582 l386 582 l149 0 l-453 -668 l494 -741 l-149 0 Z" /><glyph glyph-name="" unicode="Y" d="M626 519 l0 -599 l-132 0 l0 599 l-483 810 l148 0 l399 -696 l402 696 l149 0 l-483 -810 Z" /><glyph glyph-name="" unicode="Z" d="M1121 -80 l-1060 0 l0 104 l861 1190 l-796 0 l0 115 l954 0 l0 -101 l-861 -1195 l902 0 l0 -113 Z" /><glyph glyph-name="" unicode="[" d="M187 -475 l0 1849 l401 0 l0 -96 l-277 0 l0 -1657 l277 0 l0 -96 l-401 0 Z" /><glyph glyph-name="" unicode="\" d="M623 -80 l-612 1454 l124 0 l617 -1454 l-129 0 Z" /><glyph glyph-name="" unicode="]" d="M31 -475 l0 96 l277 0 l0 1657 l-277 0 l0 96 l400 0 l0 -1849 l-400 0 Z" /><glyph glyph-name="" unicode="^" d="M1072 415 l-391 831 l-389 -831 l-113 0 l432 914 l140 0 l435 -914 l-114 0 Z" /><glyph glyph-name="" unicode="_" d="M-20 -337 l0 79 l890 0 l0 -79 l-890 0 Z" /><glyph glyph-name="" unicode="a" d="M442 5 q88 0 156.5 41.5 q68.5 41.5 107.5 114 q39 72.5 39 152.5 l0 123 l-146 -4 q-204 -5 -290.5 -62 q-86.5 -57 -86.5 -172 q0 -193 220 -193 ZM872 -80 l-121 0 l-6 181 l-4 0 q-103 -201 -320 -201 q-159 0 -245.5 78.5 q-86.5 78.5 -86.5 217.5 q0 158 119.5 241 q119.5 83 368.5 90 l167 4 l0 41 q0 144 -57.5 212.5 q-57.5 68.5 -178.5 68.5 q-111 0 -167.5 -35.5 q-56.5 -35.5 -77.5 -119.5 l-120 25 q32 129 121.5 182 q89.5 53 245.5 53 q191 0 276.5 -95 q85.5 -95 85.5 -302 l0 -641 Z" /><glyph glyph-name="" unicode="b" d="M1076 433 q0 -252 -117 -392.5 q-117 -140.5 -329 -140.5 q-120 0 -201.5 48.5 q-81.5 48.5 -136.5 150.5 l-4 0 q1 -49 -9 -179 l-121 0 q7 105 7 215 l0 1238 l127 0 l0 -491 q0 -32 -1 -64.5 q-1 -32.5 -3 -64.5 l4 0 q66 115 150.5 160 q84.5 45 208.5 45 q203 0 314 -138.5 q111 -138.5 111 -386.5 ZM945 433 q0 207 -80 313.5 q-80 106.5 -235 106.5 q-169 0 -254.5 -109.5 q-85.5 -109.5 -85.5 -318.5 q0 -207 84 -313.5 q84 -106.5 248 -106.5 q161 0 242 109.5 q81 109.5 81 318.5 Z" /><glyph glyph-name="" unicode="c" d="M515 -100 q-203 0 -309 134.5 q-106 134.5 -106 390.5 q0 255 110.5 394 q110.5 139 313.5 139 q161 0 252.5 -66 q91.5 -66 115.5 -207 l-131 -15 q-19 95 -77 139 q-58 44 -159 44 q-296 0 -296 -423 q0 -425 289 -425 q213 0 248 194 l126 -18 q-53 -281 -377 -281 Z" /><glyph glyph-name="" unicode="d" d="M99 427 q0 245 117.5 388 q117.5 143 327.5 143 q118 0 201 -45.5 q83 -45.5 138 -147.5 l4 0 q-3 46 -3 93 l0 515 l127 0 l0 -1238 q0 -125 8 -215 l-122 0 q-10 129 -10 186 l-4 0 q-62 -111 -146.5 -158.5 q-84.5 -47.5 -201.5 -47.5 q-208 0 -322 138 q-114 138 -114 389 ZM230 429 q0 -202 78.5 -313 q78.5 -111 236.5 -111 q171 0 256 109 q85 109 85 315 q0 209 -83.5 316.5 q-83.5 107.5 -247.5 107.5 q-164 0 -244.5 -111.5 q-80.5 -111.5 -80.5 -312.5 Z" /><glyph glyph-name="" unicode="e" d="M232 409 q0 -191 84.5 -297.5 q84.5 -106.5 235.5 -106.5 q101 0 173.5 41.5 q72.5 41.5 125.5 139.5 l101 -55 q-70 -125 -168 -178 q-98 -53 -235 -53 q-217 0 -333 138 q-116 138 -116 399 q0 167 55 284 q55 117 155.5 177 q100.5 60 234.5 60 q208 0 318 -133 q110 -133 110 -382 l0 -34 l-741 0 ZM540 853 q-140 0 -219 -87.5 q-79 -87.5 -87 -257.5 l606 0 q-18 345 -300 345 Z" /><glyph glyph-name="" unicode="f" d="M349 833 l0 -913 l-127 0 l0 913 l-174 0 l0 105 l174 0 l0 116 q0 163 68.5 241 q68.5 78 207.5 78 q75 0 117 -11 l0 -100 q-57 9 -109 9 q-83 0 -120 -57 q-37 -57 -37 -180 l0 -96 l220 0 l0 -105 l-220 0 Z" /><glyph glyph-name="" unicode="g" d="M232 427 q0 -203 81.5 -310 q81.5 -107 239.5 -107 q163 0 248.5 110 q85.5 110 85.5 315 q0 202 -84 310 q-84 108 -242 108 q-163 0 -246 -110 q-83 -110 -83 -316 ZM100 427 q0 249 113 390 q113 141 320 141 q245 0 350 -205 l4 0 q1 66 11 185 l120 0 q-6 -102 -6 -233 l0 -757 q0 -176 -116 -299.5 q-116 -123.5 -342 -123.5 q-349 0 -415 254 l126 23 q49 -169 291 -169 q329 0 329 308 l0 88 q0 23 0.5 44 q0.5 21 1.5 44 l-4 0 q-58 -109 -147.5 -160.5 q-89.5 -51.5 -221.5 -51.5 q-197 0 -305.5 138.5 q-108.5 138.5 -108.5 383.5 Z" /><glyph glyph-name="" unicode="h" d="M846 -80 l0 596 q0 178 -61 257.5 q-61 79.5 -190 79.5 q-137 0 -220 -99 q-83 -99 -83 -269 l0 -565 l-127 0 l0 1453 l127 0 l0 -405 q0 -55 -1.5 -109 q-1.5 -54 -3.5 -109 l4 0 q56 109 137 158.5 q81 49.5 201 49.5 q175 0 259.5 -100.5 q84.5 -100.5 84.5 -310.5 l0 -627 l-127 0 Z" /><glyph glyph-name="" unicode="i" d="M165 1219 l0 155 l127 0 l0 -155 l-127 0 ZM165 -80 l0 1018 l127 0 l0 -1018 l-127 0 Z" /><glyph glyph-name="" unicode="j" d="M163 1219 l0 155 l127 0 l0 -155 l-127 0 ZM290 -187 q0 -154 -52 -221 q-52 -67 -165 -67 q-59 0 -96 7 l0 105 q33 -6 61 -6 q68 0 96.5 40 q28.5 40 28.5 145 l0 1122 l127 0 l0 -1125 Z" /><glyph glyph-name="" unicode="k" d="M807 -80 l-384 509 l-136 -126 l0 -383 l-127 0 l0 1454 l127 0 l0 -944 l497 508 l160 0 l-434 -429 l452 -589 l-155 0 Z" /><glyph glyph-name="" unicode="l" d="M165 -80 l0 1454 l127 0 l0 -1454 l-127 0 Z" /><glyph glyph-name="" unicode="m" d="M1442 -80 l0 596 q0 182 -54.5 259.5 q-54.5 77.5 -180.5 77.5 q-129 0 -203 -98.5 q-74 -98.5 -74 -250.5 l0 -584 l-126 0 l0 596 q0 179 -55 258 q-55 79 -178 79 q-123 0 -201 -99.5 q-78 -99.5 -78 -260.5 l0 -573 l-127 0 l0 791 q0 94 -7 227 l114 0 q8 -99 12 -194 l4 0 q50 109 126 161.5 q76 52.5 195 52.5 q128 0 202 -61.5 q74 -61.5 96 -165.5 l5 0 q97 227 334 227 q164 0 243.5 -98 q79.5 -98 79.5 -313 l0 -627 l-127 0 Z" /><glyph glyph-name="" unicode="n" d="M846 -80 l0 596 q0 177 -61 257 q-61 80 -190 80 q-139 0 -221 -101.5 q-82 -101.5 -82 -274.5 l0 -557 l-127 0 l0 791 q0 57 -2.5 113.5 q-2.5 56.5 -4.5 113.5 l114 0 l12 -194 l4 0 q53 109 134 161.5 q81 52.5 207 52.5 q175 0 259.5 -100.5 q84.5 -100.5 84.5 -310.5 l0 -627 l-127 0 Z" /><glyph glyph-name="" unicode="o" d="M1075 430 q0 -248 -129.5 -389 q-129.5 -141 -363.5 -141 q-225 0 -354 142.5 q-129 142.5 -129 387.5 q0 249 129 388.5 q129 139.5 360 139.5 q238 0 362.5 -135.5 q124.5 -135.5 124.5 -392.5 ZM942 430 q0 210 -88 316.5 q-88 106.5 -262 106.5 q-177 0 -268.5 -109 q-91.5 -109 -91.5 -314 q0 -202 90.5 -313.5 q90.5 -111.5 257.5 -111.5 q180 0 271 108 q91 108 91 317 Z" /><glyph glyph-name="" unicode="p" d="M1076 433 q0 -247 -118.5 -390 q-118.5 -143 -326.5 -143 q-121 0 -202.5 45.5 q-81.5 45.5 -136.5 146.5 l-4 0 q2 -41 3 -82 q1 -41 1 -84 l0 -401 l-127 0 l0 1197 q0 108 -7 216 l119 0 q11 -108 11 -188 l4 0 q60 111 146 159.5 q86 48.5 213 48.5 q204 0 314.5 -136 q110.5 -136 110.5 -389 ZM945 431 q0 202 -78 312 q-78 110 -236 110 q-170 0 -255.5 -109.5 q-85.5 -109.5 -85.5 -315.5 q0 -207 83 -315 q83 -108 247 -108 q161 0 243 110 q82 110 82 316 Z" /><glyph glyph-name="" unicode="q" d="M99 424 q0 252 117.5 393 q117.5 141 329.5 141 q119 0 201.5 -49.5 q82.5 -49.5 135.5 -149.5 l4 0 q0 40 5 102 q5 62 8 77 l119 0 q-8 -85 -8 -216 l0 -1197 l-127 0 l0 414 q0 42 1 82.5 q1 40.5 2 82.5 l-4 0 q-64 -114 -149 -159 q-85 -45 -210 -45 q-200 0 -312.5 137 q-112.5 137 -112.5 387 ZM230 424 q0 -208 81 -313.5 q81 -105.5 234 -105.5 q169 0 255 108.5 q86 108.5 86 318.5 q0 207 -83.5 314 q-83.5 107 -248.5 107 q-161 0 -242.5 -109.5 q-81.5 -109.5 -81.5 -319.5 Z" /><glyph glyph-name="" unicode="r" d="M169 -80 l0 766 q0 81 -9 252 l118 0 q11 -110 11 -231 l4 0 q42 135 111 193 q69 58 178 58 q42 0 78 -9 l0 -118 q-38 9 -95 9 q-126 0 -197 -107.5 q-71 -107.5 -71 -295.5 l0 -517 l-128 0 Z" /><glyph glyph-name="" unicode="s" d="M771 201 q0 -144 -94.5 -222.5 q-94.5 -78.5 -265.5 -78.5 q-160 0 -251 56.5 q-91 56.5 -123 188.5 l117 21 q21 -83 80.5 -125 q59.5 -42 175.5 -42 q236 0 236 191 q0 54 -21.5 88 q-21.5 34 -59 55.5 q-37.5 21.5 -89 36 q-51.5 14.5 -111.5 30.5 q-110 27 -165.5 61.5 q-55.5 34.5 -85.5 86.5 q-30 52 -30 127 q0 135 83 209 q83 74 244 74 q146 0 226.5 -54 q80.5 -54 108.5 -171 l-120 -14 q-17 75 -68.5 107.5 q-51.5 32.5 -146.5 32.5 q-103 0 -153.5 -44.5 q-50.5 -44.5 -50.5 -125.5 q0 -52 19.5 -83 q19.5 -31 58 -52.5 q38.5 -21.5 176.5 -58.5 q135 -37 191 -72.5 q56 -35.5 87.5 -88 q31.5 -52.5 31.5 -133.5 Z" /><glyph glyph-name="" unicode="t" d="M422 -96 q-111 0 -168.5 59 q-57.5 59 -57.5 174 l0 696 l-150 0 l0 105 l152 0 l34 235 l92 0 l0 -235 l271 0 l0 -105 l-271 0 l0 -673 q0 -72 29 -112 q29 -40 104 -40 q65 0 150 18 l0 -99 q-87 -23 -185 -23 Z" /><glyph glyph-name="" unicode="u" d="M281 938 l0 -597 q0 -178 61 -257 q61 -79 190 -79 q141 0 222.5 101.5 q81.5 101.5 81.5 273.5 l0 558 l128 0 l0 -791 q0 -57 2.5 -113.5 q2.5 -56.5 4.5 -113.5 l-115 0 l-12 193 l-4 0 q-53 -109 -134.5 -161 q-81.5 -52 -207.5 -52 q-175 0 -259.5 100 q-84.5 100 -84.5 310 l0 628 l127 0 Z" /><glyph glyph-name="" unicode="v" d="M546 -80 l-148 0 l-391 1018 l136 0 l261 -708 q53 -149 68 -208 q17 52 34.5 104 q17.5 52 37.5 103 l269 709 l134 0 l-401 -1018 Z" /><glyph glyph-name="" unicode="w" d="M320 -80 l-294 1018 l124 0 l178 -632 q42 -146 60 -259 q13 60 25 101.5 q12 41.5 52 168.5 l196 621 l108 0 l193 -617 q46 -150 72 -274 q15 70 26.5 115.5 q11.5 45.5 40.5 146.5 l182 629 l123 0 l-308 -1018 l-122 0 l-202 643 q-44 143 -60 246 q-20 -105 -62 -241 l-207 -648 l-125 0 Z" /><glyph glyph-name="" unicode="x" d="M746 -80 l-297 439 l-298 -439 l-136 0 l361 522 l-344 496 l140 0 l277 -414 l276 414 l141 0 l-343 -494 l365 -524 l-142 0 Z" /><glyph glyph-name="" unicode="y" d="M157 -474 q-48 0 -92 11 l0 114 q36 -10 77 -10 q59 0 101 28 q42 28 77 86 q35 58 71 114 l17 44 l-402 1025 l136 0 l227 -599 q75 -201 106 -302 q24 68 48 134.5 q24 66.5 50 134.5 l239 632 l135 0 l-435 -1100 q-70 -141 -152.5 -226.5 q-82.5 -85.5 -202.5 -85.5 Z" /><glyph glyph-name="" unicode="z" d="M67 -80 l0 103 l629 810 l-589 0 l0 105 l735 0 l0 -104 l-630 -810 l660 0 l0 -104 l-805 0 Z" /><glyph glyph-name="" unicode="{" d="M463 -475 q-118 0 -182.5 74.5 q-64.5 74.5 -64.5 215.5 l0 349 q0 120 -48.5 176.5 q-48.5 56.5 -154.5 61.5 l0 94 q108 6 155.5 62.5 q47.5 56.5 47.5 175.5 l0 350 q0 142 63 216 q63 74 184 74 l120 0 l0 -99 l-79 0 q-91 0 -129 -53 q-38 -53 -38 -163 l0 -355 q0 -100 -49 -166 q-49 -66 -133 -85 l0 -4 q87 -19 134.5 -84.5 q47.5 -65.5 47.5 -168.5 l0 -357 q0 -108 38 -162 q38 -54 129 -54 l79 0 l0 -98 l-120 0 Z" /><glyph glyph-name="" unicode="|" d="M180 -475 l0 1849 l115 0 l0 -1849 l-115 0 Z" /><glyph glyph-name="" unicode="}" d="M15 -376 l78 0 q92 0 129.5 54 q37.5 54 37.5 162 l0 315 q0 247 182 291 l0 4 q-86 18 -134 84 q-48 66 -48 169 l0 356 q0 107 -39 161.5 q-39 54.5 -128 54.5 l-78 0 l0 99 l119 0 q118 0 182.5 -74.5 q64.5 -74.5 64.5 -216.5 l0 -349 q0 -118 47.5 -174.5 q47.5 -56.5 156.5 -63.5 l0 -94 q-105 -4 -154.5 -61 q-49.5 -57 -49.5 -177 l0 -348 q0 -137 -61 -214 q-61 -77 -186 -77 l-119 0 l0 99 Z" /></font>
</defs>
</svg>
